<?xml version="1.0" encoding="UTF-8" standalone="no"?>
<svg
   xmlns:dc="http://purl.org/dc/elements/1.1/"
   xmlns:cc="http://creativecommons.org/ns#"
   xmlns:rdf="http://www.w3.org/1999/02/22-rdf-syntax-ns#"
   xmlns:svg="http://www.w3.org/2000/svg"
   xmlns="http://www.w3.org/2000/svg"
   viewBox="0 0 582.02667 558.56"
   height="558.56"
   width="582.02667"
   xml:space="preserve"
   id="svg2"
   version="1.1"><metadata
     id="metadata8"><rdf:RDF><cc:Work
         rdf:about=""><dc:format>image/svg+xml</dc:format><dc:type
           rdf:resource="http://purl.org/dc/dcmitype/StillImage" /></cc:Work></rdf:RDF></metadata><defs
     id="defs6" /><g
     transform="matrix(1.3333333,0,0,-1.3333333,0,558.56)"
     id="g10"><g
       transform="scale(0.1)"
       id="g12"><path
         id="path14"
         style="fill:#e7e8e5;fill-opacity:1;fill-rule:nonzero;stroke:none"
         d="M 2614.64,618.102 V 286.25 H 2500.65 L 2746.36,0 2976.88,280.379 h -116.53 v 337.723 h -245.71" /><path
         id="path16"
         style="fill:#e7e8e5;fill-opacity:1;fill-rule:nonzero;stroke:none"
         d="m 3049.41,3117.87 v -116.83 h -40.13 l 86.5,-100.77 81.16,98.7 h -41.02 v 118.9 h -86.51" /><path
         id="path18"
         style="fill:#e7e8e5;fill-opacity:1;fill-rule:nonzero;stroke:none"
         d="m 4086.49,2034.23 v -239.85 h -82.4 l 177.61,-206.9 166.61,202.65 h -84.22 v 244.1 h -177.6" /><path
         id="path20"
         style="fill:#e7e8e5;fill-opacity:1;fill-rule:nonzero;stroke:none"
         d="M 287.902,1064.85 V 824.988 h -82.39 L 383.113,618.102 549.727,820.738 H 465.504 V 1064.85 H 287.902" /><path
         id="path22"
         style="fill:#e7e8e5;fill-opacity:1;fill-rule:nonzero;stroke:none"
         d="M 1762.89,672.738 V 493.719 h -61.49 l 132.55,-154.41 124.36,151.25 h -62.86 v 182.179 h -132.56" /><path
         id="path24"
         style="fill:#f3f2f1;fill-opacity:1;fill-rule:nonzero;stroke:none"
         d="m 1362.36,3600.82 c 8.38,60.89 -77.55,110.98 -142.13,116.19 -30.8,2.48 -62.79,-2.23 -91.97,7.94 -63.2,22.03 -88.45,103.69 -150.131,129.71 -46.113,19.45 -99.199,2.13 -143.902,-20.36 -44.704,-22.5 -88.883,-50.82 -138.825,-54.01 -43.441,-2.78 -90.617,13.33 -128.625,-7.9 -28.324,-15.8 -43.156,-48.44 -69.265,-67.69 -25.543,-18.84 -58.852,-22.83 -90.539,-24.56 -31.688,-1.72 -64.496,-2.04 -93.348,-15.25 -28.852,-13.21 -52.727,-43.72 -46.734,-74.89 l 1095.469,10.82" /><path
         id="path26"
         style="fill:#f3f2f1;fill-opacity:1;fill-rule:nonzero;stroke:none"
         d="m 4364.66,2464.66 c 7.29,52.96 -67.47,96.54 -123.64,101.07 -26.8,2.16 -54.62,-1.93 -80,6.91 -54.99,19.17 -76.96,90.2 -130.61,112.84 -40.12,16.91 -86.3,1.86 -125.18,-17.72 -38.89,-19.57 -77.32,-44.2 -120.77,-46.98 -37.79,-2.42 -78.82,11.6 -111.89,-6.87 -24.64,-13.75 -37.54,-42.14 -60.25,-58.89 -22.22,-16.39 -51.2,-19.86 -78.76,-21.36 -27.57,-1.5 -56.11,-1.77 -81.2,-13.27 -25.1,-11.49 -45.87,-38.03 -40.66,-65.14 l 952.96,9.41" /><path
         id="path28"
         style="fill:#dadbd8;fill-opacity:1;fill-rule:nonzero;stroke:none"
         d="m 1916.67,4077.61 c 3.56,25.91 -33,47.22 -60.47,49.43 -13.1,1.06 -26.71,-0.94 -39.12,3.38 -26.89,9.38 -37.63,44.12 -63.87,55.18 -19.61,8.28 -42.2,0.91 -61.22,-8.66 -19.01,-9.57 -37.8,-21.62 -59.05,-22.98 -18.48,-1.18 -38.55,5.68 -54.72,-3.35 -12.05,-6.73 -18.36,-20.61 -29.46,-28.81 -10.87,-8.01 -25.04,-9.7 -38.52,-10.44 -13.48,-0.73 -27.44,-0.86 -39.71,-6.48 -12.28,-5.63 -22.43,-18.6 -19.88,-31.86 l 466.02,4.59" /><path
         id="path30"
         style="fill:#dadbd8;fill-opacity:1;fill-rule:nonzero;stroke:none"
         d="m 4316.58,240.969 c 6.56,47.633 -60.66,86.812 -111.17,90.883 -24.09,1.937 -49.11,-1.743 -71.93,6.207 -49.44,17.242 -69.19,81.113 -117.43,101.453 -36.07,15.218 -77.59,1.668 -112.55,-15.922 -34.97,-17.602 -69.52,-39.75 -108.59,-42.25 -33.98,-2.168 -70.87,10.43 -100.6,-6.168 -22.16,-12.363 -33.76,-37.891 -54.18,-52.953 -19.97,-14.739 -46.04,-17.848 -70.82,-19.199 -24.79,-1.36 -50.44,-1.598 -73.01,-11.93 -22.57,-10.34 -41.24,-34.199 -36.55,-58.578 l 856.83,8.457" /><path
         id="path32"
         style="fill:#fafaf9;fill-opacity:1;fill-rule:nonzero;stroke:none"
         d="m 1805.31,3135.54 -77.13,135.94 c 34.12,55.39 53.84,120.59 53.84,190.42 0,200.8 -162.78,363.59 -363.59,363.59 -200.81,0 -363.59,-162.79 -363.59,-363.59 0,-200.81 162.78,-363.6 363.59,-363.6 83.85,0 161.01,28.46 222.52,76.14 l -0.13,-0.16 164.49,-38.74" /><path
         id="path34"
         style="fill:#17282f;fill-opacity:1;fill-rule:nonzero;stroke:none"
         d="m 1805.31,3135.54 c -9.01,2.06 -60.36,13.73 -164.79,37.48 l -1.95,0.44 1.22,1.61 0.12,0.16 1.83,-1.81 c -41.11,-32.22 -100.31,-63.59 -174.6,-73.69 -18.48,-2.36 -37.79,-3.89 -57.63,-2.93 -9.91,0.56 -20.01,0.8 -30.19,1.65 -10.11,1.53 -20.36,3.07 -30.75,4.64 -41.22,8.12 -83.36,23.76 -122.67,48.15 -39.3,24.29 -75.67,57.3 -104.84,97.85 -29.12,40.47 -51.2,88.48 -61.54,140.63 -10.25,52.1 -9.4,107.93 4.29,161.97 13.77,53.85 39.51,106.45 78.03,149.73 38.98,44.21 87.17,79.6 140.29,100.15 52.88,21 109.28,28.98 163.19,25.07 53.93,-3.88 105.53,-19.36 149.78,-44.28 44.4,-24.73 81.84,-57.73 110.73,-94.6 28.98,-36.88 49.39,-77.56 62.03,-118.05 12.55,-40.7 15.93,-81.05 15.78,-118.4 -2.14,-75.23 -27.36,-137 -54.4,-180.48 l 0.02,1.26 c 48.35,-86.8 71.75,-128.83 76.05,-136.55 -4.42,7.65 -28.49,49.3 -78.21,135.32 l -0.37,0.64 0.39,0.64 c 26.5,43.4 51.13,104.77 52.92,179.27 -0.02,37 -3.52,76.9 -16.07,117.1 -12.63,40 -32.92,80.13 -61.64,116.49 -28.64,36.35 -65.67,68.86 -109.54,93.18 -43.72,24.51 -94.64,39.7 -147.83,43.46 -53.19,3.8 -108.79,-4.13 -160.92,-24.85 -52.35,-20.28 -99.83,-55.2 -138.27,-98.78 -37.98,-42.66 -63.35,-94.52 -76.96,-147.59 -13.52,-53.25 -14.41,-108.33 -4.37,-159.71 10.13,-51.46 31.85,-98.83 60.51,-138.83 28.72,-40.07 64.56,-72.73 103.31,-96.83 38.77,-24.18 80.36,-39.75 121.09,-47.93 10.27,-1.58 20.4,-3.15 30.4,-4.69 10.06,-0.87 20.05,-1.14 29.86,-1.73 19.63,-1.04 38.74,0.4 57.04,2.66 73.59,9.68 132.43,40.42 173.5,72.11 l 7.98,6.15 -6.16,-7.97 -0.12,-0.16 -0.73,2.05 c 104.04,-25.34 155.22,-37.81 164.19,-40" /><path
         id="path36"
         style="fill:#17282f;fill-opacity:1;fill-rule:nonzero;stroke:none"
         d="m 1524.77,3261.6 h -235.65 c -11.36,0 -20.57,9.21 -20.57,20.57 v 348.28 c 0,11.36 9.21,20.57 20.57,20.57 h 235.65 c 11.36,0 20.57,-9.21 20.57,-20.57 v -348.28 c 0,-11.36 -9.21,-20.57 -20.57,-20.57" /><path
         id="path38"
         style="fill:#fafaf9;fill-opacity:1;fill-rule:nonzero;stroke:none"
         d="m 1531.25,3336.57 h -249.82 v 291.04 h 249.82 v -291.04" /><path
         id="path40"
         style="fill:#33535f;fill-opacity:1;fill-rule:nonzero;stroke:none"
         d="m 1427.92,3299.38 c 0,-11.58 -9.39,-20.97 -20.97,-20.97 -11.59,0 -20.97,9.39 -20.97,20.97 0,11.58 9.38,20.96 20.97,20.96 11.58,0 20.97,-9.38 20.97,-20.96" /><path
         id="path42"
         style="fill:#f2575d;fill-opacity:1;fill-rule:nonzero;stroke:none"
         d="m 1441.98,3538.94 92.15,-108.78 86.38,108.78 h -44.79 v 149.74 l -89.6,1.1 1.07,-151.06 -45.21,0.22" /><path
         id="path44"
         style="fill:#17282f;fill-opacity:1;fill-rule:nonzero;stroke:none"
         d="m 1447.64,3498.02 c 1.04,-0.99 -16.52,-21.08 -39.22,-44.88 -22.71,-23.8 -41.95,-42.28 -42.99,-41.28 -1.04,0.99 16.52,21.08 39.23,44.88 22.7,23.79 41.94,42.28 42.98,41.28" /><path
         id="path46"
         style="fill:#17282f;fill-opacity:1;fill-rule:nonzero;stroke:none"
         d="m 1429.54,3511.12 c 0.86,-1.16 -8.88,-12.35 -21.76,-25 -12.89,-12.66 -24.17,-22.08 -25.2,-21.07 -1.02,1.01 8.73,12.2 21.78,25 13.04,12.79 24.32,22.22 25.18,21.07" /><path
         id="path48"
         style="fill:#f2575d;fill-opacity:1;fill-rule:nonzero;stroke:none"
         d="m 3703.42,3545.75 v -169.12 h -58.1 l 125.23,-145.88 117.47,142.89 h -59.38 v 172.11 h -125.22" /><path
         id="path50"
         style="fill:#cc4341;fill-opacity:1;fill-rule:nonzero;stroke:none"
         d="m 3770.55,3230.75 -125.23,145.88 h 58.1 v 169.12 h 125.22 v -172.11 h 59.38 l -117.47,-142.89" /><path
         id="path52"
         style="fill:#f2575d;fill-opacity:1;fill-rule:nonzero;stroke:none"
         d="m 4111.82,3923.04 c -37.46,145.15 -168.88,252.53 -325.73,252.53 -106.36,0 -201.05,-49.42 -262.77,-126.41 -10.64,1.23 -21.41,2.02 -32.39,2.02 -154.49,0 -279.73,-125.23 -279.73,-279.72 0,-154.49 125.24,-279.73 279.73,-279.73 h 609.08 c 119.27,0 215.95,96.69 215.95,215.95 0,115.28 -90.4,209.18 -204.14,215.36" /><path
         id="path54"
         style="fill:#17282f;fill-opacity:1;fill-rule:nonzero;stroke:none"
         d="m 4176.2,3567.11 c -0.54,0.79 11.57,8.35 27.62,24.43 16.03,15.89 35.41,41.36 47.16,73.89 11.77,32.53 13.14,64.51 10.98,86.98 -2.06,22.62 -6.53,36.18 -5.6,36.43 0.3,0.1 1.73,-3.17 3.63,-9.32 1.93,-6.15 4.12,-15.25 5.64,-26.71 3.14,-22.77 2.35,-55.7 -9.75,-89.15 -12.08,-33.45 -32.52,-59.27 -49.5,-74.77 -8.5,-7.84 -16,-13.44 -21.41,-16.93 -5.41,-3.51 -8.59,-5.12 -8.77,-4.85" /><path
         id="path56"
         style="fill:#17282f;fill-opacity:1;fill-rule:nonzero;stroke:none"
         d="m 3531.03,3967.36 c -0.18,-0.96 -15.43,2.93 -40.47,3.51 -24.89,0.68 -59.97,-3.23 -94.92,-18.52 -34.97,-15.3 -61.65,-38.41 -78.04,-57.15 -16.57,-18.79 -24.06,-32.63 -24.89,-32.11 -0.29,0.16 1.31,3.75 4.84,9.9 3.51,6.16 9.19,14.76 17.25,24.6 15.92,19.67 42.89,43.85 78.75,59.53 35.85,15.69 71.89,19.08 97.15,17.43 12.7,-0.76 22.87,-2.43 29.77,-4.03 6.91,-1.58 10.64,-2.85 10.56,-3.16" /><path
         id="path58"
         style="fill:#17282f;fill-opacity:1;fill-rule:nonzero;stroke:none"
         d="m 3719.96,4105.52 c 0.07,-0.96 -11.09,-1.66 -28.33,-6.2 -17.2,-4.46 -40.3,-13.76 -62.31,-29.66 -21.94,-16.02 -37.93,-35.1 -47.49,-50.08 -9.64,-14.99 -13.77,-25.39 -14.66,-25.02 -0.33,0.13 0.47,2.81 2.22,7.57 1.64,4.81 4.78,11.48 9.3,19.37 4.46,7.94 10.77,16.82 18.63,25.96 8.03,8.99 17.71,18.15 28.94,26.41 11.33,8.12 23.04,14.49 34.06,19.34 11.13,4.65 21.53,7.91 30.45,9.69 8.9,1.85 16.22,2.78 21.3,2.86 5.08,0.19 7.87,0.11 7.89,-0.24" /><path
         id="path60"
         style="fill:#17282f;fill-opacity:1;fill-rule:nonzero;stroke:none"
         d="m 3981.93,3494.09 c 0,-1.43 -82.25,-2.6 -183.7,-2.6 -101.46,0 -183.7,1.17 -183.7,2.6 0,1.45 82.24,2.61 183.7,2.61 101.45,0 183.7,-1.16 183.7,-2.61" /><path
         id="path62"
         style="fill:#17282f;fill-opacity:1;fill-rule:nonzero;stroke:none"
         d="m 4002.53,2990.26 c -1.44,0 -2.61,67.37 -2.61,150.45 0,83.11 1.17,150.47 2.61,150.47 1.44,0 2.6,-67.36 2.6,-150.47 0,-83.08 -1.16,-150.45 -2.6,-150.45" /><path
         id="path64"
         style="fill:#17282f;fill-opacity:1;fill-rule:nonzero;stroke:none"
         d="m 4061.33,2858.83 c -1.45,0 -2.61,86.72 -2.61,193.68 0,106.99 1.16,193.7 2.61,193.7 1.44,0 2.6,-86.71 2.6,-193.7 0,-106.96 -1.16,-193.68 -2.6,-193.68" /><path
         id="path66"
         style="fill:#f2575d;fill-opacity:1;fill-rule:nonzero;stroke:none"
         d="M 2112.26,940.738 V 456.078 H 1945.77 L 2304.65,38 2641.34,447.488 h -170.2 v 493.25 h -358.88" /><path
         id="path68"
         style="fill:#cc4341;fill-opacity:1;fill-rule:nonzero;stroke:none"
         d="m 2304.65,38 -358.88,418.078 h 166.49 v 329.883 h 358.88 V 447.488 h 170.2 l -26.7,-32.468 -105.87,-128.77 -3.98,-4.828 L 2304.65,38" /><path
         id="path70"
         style="fill:#f2575d;fill-opacity:1;fill-rule:nonzero;stroke:none"
         d="m 3282.72,2022.03 c -107.36,416.01 -484.01,723.76 -933.54,723.76 -304.8,0 -576.16,-141.63 -753.05,-362.28 -30.51,3.52 -61.4,5.8 -92.85,5.8 -442.75,0 -801.671,-358.92 -801.671,-801.67 0,-442.75 358.921,-801.679 801.671,-801.679 h 1745.59 c 341.81,0 618.9,277.089 618.9,618.889 0,330.38 -259.08,599.51 -585.05,617.18" /><path
         id="path72"
         style="fill:#17282f;fill-opacity:1;fill-rule:nonzero;stroke:none"
         d="m 1700.93,1876.1 c -0.18,0 -0.42,1.82 -0.71,5.29 -0.27,4.05 -0.6,9.07 -1.01,15.17 -0.18,3.36 -0.39,7.01 -0.61,10.95 -0.34,3.99 -1.02,8.3 -1.56,12.95 -1.28,9.27 -2.06,19.91 -4.68,31.41 -1.13,5.79 -2.31,11.83 -3.54,18.12 -1.27,6.29 -3.3,12.68 -4.99,19.38 -3.17,13.47 -8.32,27.34 -13.32,42.06 -11.12,29.01 -25.77,60.01 -44.75,90.48 -19.36,30.23 -41.06,56.78 -62.49,79.29 -11.14,10.84 -21.45,21.45 -32.26,30.1 -5.32,4.41 -10.22,8.99 -15.35,12.84 -5.15,3.81 -10.11,7.47 -14.85,10.97 -9.26,7.31 -18.53,12.59 -26.35,17.73 -3.96,2.49 -7.56,4.95 -11.02,6.97 -3.47,1.89 -6.68,3.64 -9.63,5.25 -5.33,2.99 -9.71,5.45 -13.26,7.43 -3.01,1.76 -4.56,2.76 -4.48,2.92 0.08,0.16 1.77,-0.52 4.94,-1.97 3.68,-1.77 8.22,-3.94 13.75,-6.59 3.04,-1.5 6.34,-3.12 9.9,-4.88 3.55,-1.9 7.25,-4.26 11.31,-6.64 8.02,-4.93 17.5,-10.04 26.97,-17.21 4.85,-3.45 9.91,-7.05 15.17,-10.8 5.25,-3.81 10.26,-8.34 15.68,-12.72 11.04,-8.59 21.57,-19.19 32.91,-30.04 21.84,-22.56 43.9,-49.31 63.47,-79.87 19.18,-30.8 33.86,-62.21 44.84,-91.6 4.93,-14.91 9.98,-28.97 12.99,-42.63 1.63,-6.79 3.57,-13.25 4.75,-19.62 1.12,-6.36 2.2,-12.48 3.24,-18.34 2.41,-11.64 2.94,-22.39 3.95,-31.75 0.41,-4.69 0.95,-9.04 1.14,-13.07 0.05,-3.97 0.11,-7.65 0.15,-11.03 0.02,-6.13 0.03,-11.17 0.04,-15.25 -0.05,-3.49 -0.16,-5.31 -0.34,-5.3" /><path
         id="path74"
         style="fill:#17282f;fill-opacity:1;fill-rule:nonzero;stroke:none"
         d="m 1372.96,2031.11 c -0.67,-0.69 -11.18,9.72 -30.21,23.89 -18.97,14.2 -47.11,31.4 -80.93,44.23 -33.87,12.71 -66.37,18.38 -89.99,20.25 -23.64,1.93 -38.42,1.05 -38.46,2.01 -0.02,0.35 3.64,0.83 10.32,1.37 6.67,0.65 16.39,0.8 28.38,0.3 23.95,-0.95 57.15,-6.13 91.59,-19.06 34.38,-13.03 62.72,-31.07 81.34,-46.18 9.33,-7.53 16.53,-14.07 21.11,-18.96 4.65,-4.83 7.1,-7.6 6.85,-7.85" /><path
         id="path76"
         style="fill:#17282f;fill-opacity:1;fill-rule:nonzero;stroke:none"
         d="m 1740.21,1346.79 c -0.01,-0.36 -5.66,-0.52 -15.85,-0.49 -10.2,0 -24.94,0.32 -43.16,0.97 -36.43,1.29 -86.74,4.25 -142.11,9.67 -55.39,5.46 -105.31,12.33 -141.3,18.15 -17.99,2.91 -32.51,5.47 -42.51,7.44 -10.01,1.97 -15.51,3.22 -15.45,3.57 0.05,0.35 5.67,-0.22 15.77,-1.57 11,-1.49 25.39,-3.44 42.73,-5.8 36.08,-4.88 85.98,-11.17 141.27,-16.61 55.27,-5.41 105.44,-8.95 141.78,-11.17 17.47,-1.06 31.96,-1.94 43.05,-2.63 10.17,-0.64 15.79,-1.17 15.78,-1.53" /><path
         id="path78"
         style="fill:#17282f;fill-opacity:1;fill-rule:nonzero;stroke:none"
         d="m 3256.52,2026.98 c 0,-0.18 -1.93,-0.43 -5.61,-0.73 -4.25,-0.29 -9.57,-0.65 -16.08,-1.09 -7,-0.33 -15.53,-0.86 -25.39,-2.1 -9.87,-1.15 -21.16,-1.92 -33.46,-4.15 -6.18,-0.98 -12.65,-1.99 -19.37,-3.05 -6.73,-1.09 -13.62,-2.79 -20.82,-4.24 -14.44,-2.68 -29.54,-6.99 -45.5,-11.18 -31.66,-9.3 -65.88,-21.53 -100.48,-37.49 -34.46,-16.29 -65.81,-34.7 -93.27,-53 -13.47,-9.55 -26.46,-18.36 -37.79,-27.71 -5.73,-4.59 -11.45,-8.79 -16.61,-13.25 -5.13,-4.48 -10.05,-8.77 -14.78,-12.89 -9.6,-8 -17.44,-16.17 -24.65,-22.99 -7.28,-6.77 -13.17,-12.97 -17.9,-18.13 -4.53,-4.7 -8.22,-8.55 -11.17,-11.63 -2.59,-2.62 -4.03,-3.94 -4.17,-3.83 -0.13,0.12 1.04,1.66 3.38,4.52 2.77,3.26 6.22,7.33 10.46,12.31 4.52,5.38 10.22,11.82 17.34,18.81 7.05,7.05 14.74,15.45 24.25,23.67 4.67,4.22 9.55,8.63 14.63,13.22 5.12,4.57 10.82,8.87 16.54,13.57 11.29,9.56 24.27,18.57 37.76,28.3 27.51,18.65 59.04,37.33 93.77,53.75 34.87,16.08 69.43,28.27 101.39,37.39 16.11,4.1 31.35,8.27 45.93,10.79 7.27,1.37 14.22,2.98 21.01,3.97 6.78,0.94 13.3,1.86 19.54,2.73 12.41,2.01 23.79,2.53 33.72,3.41 9.93,0.97 18.52,1.21 25.55,1.22 6.54,0.05 11.88,0.09 16.15,0.12 3.7,-0.03 5.63,-0.14 5.63,-0.32" /><path
         id="path80"
         style="fill:#17282f;fill-opacity:1;fill-rule:nonzero;stroke:none"
         d="m 3207.06,780.488 c 0,-1.429 -386.47,-2.597 -863.1,-2.597 -476.8,0 -863.2,1.168 -863.2,2.597 0,1.442 386.4,2.614 863.2,2.614 476.63,0 863.1,-1.172 863.1,-2.614" /><path
         id="path82"
         style="fill:#17282f;fill-opacity:1;fill-rule:nonzero;stroke:none"
         d="m 1122.57,433.609 c -1.44,0 -2.6,72.301 -2.6,161.481 0,89.199 1.16,161.492 2.6,161.492 1.44,0 2.6,-72.293 2.6,-161.492 0,-89.18 -1.16,-161.481 -2.6,-161.481" /><path
         id="path84"
         style="fill:#17282f;fill-opacity:1;fill-rule:nonzero;stroke:none"
         d="m 1188.18,135.871 c -1.44,0 -2.61,101.68 -2.61,227.078 0,125.442 1.17,227.102 2.61,227.102 1.43,0 2.6,-101.66 2.6,-227.102 0,-125.398 -1.17,-227.078 -2.6,-227.078" /><path
         id="path86"
         style="fill:#f2575d;fill-opacity:1;fill-rule:nonzero;stroke:none"
         d="M 301.555,2686.91 V 2583.3 h -35.59 l 76.711,-89.37 71.972,87.54 H 378.27 v 105.44 h -76.715" /><path
         id="path88"
         style="fill:#cc4341;fill-opacity:1;fill-rule:nonzero;stroke:none"
         d="m 342.676,2493.93 -76.711,89.37 h 35.59 v 103.61 h 76.715 v -105.44 h 36.378 l -71.972,-87.54" /><path
         id="path90"
         style="fill:#f2575d;fill-opacity:1;fill-rule:nonzero;stroke:none"
         d="m 551.762,2918.05 c -22.953,88.93 -103.469,154.72 -199.563,154.72 -65.156,0 -123.164,-30.27 -160.98,-77.44 -6.52,0.75 -13.121,1.24 -19.844,1.24 C 76.7266,2996.57 0,2919.84 0,2825.2 0,2730.55 76.7266,2653.83 171.375,2653.83 h 373.148 c 73.067,0 132.301,59.22 132.301,132.29 0,70.63 -55.383,128.15 -125.062,131.93" /><path
         id="path92"
         style="fill:#17282f;fill-opacity:1;fill-rule:nonzero;stroke:none"
         d="m 591.203,2700 c -0.484,0.72 6.777,5.56 16.422,15.48 9.633,9.82 21.309,25.35 28.441,45.1 7.145,19.75 8.102,39.16 6.973,52.87 -1.074,13.79 -3.559,22.15 -2.73,22.39 0.527,0.21 4.316,-7.86 6.386,-21.99 2.121,-14.01 1.75,-34.37 -5.73,-55.04 -7.469,-20.68 -20.192,-36.56 -30.781,-45.98 -10.629,-9.54 -18.704,-13.32 -18.981,-12.83" /><path
         id="path94"
         style="fill:#17282f;fill-opacity:1;fill-rule:nonzero;stroke:none"
         d="m 195.945,2945.21 c -0.179,-0.85 -9.562,1.27 -24.824,1.44 -15.183,0.23 -36.484,-2.26 -57.726,-11.56 -21.2505,-9.29 -37.5434,-23.25 -47.6723,-34.55 -10.2383,-11.32 -15.0391,-19.65 -15.7891,-19.2 -0.5039,0.23 3.1875,9.31 12.9922,21.59 9.668,12.23 26.2344,27.25 48.3832,36.94 22.129,9.68 44.406,11.66 59.949,10.46 15.672,-1.14 24.847,-4.59 24.687,-5.12" /><path
         id="path96"
         style="fill:#17282f;fill-opacity:1;fill-rule:nonzero;stroke:none"
         d="m 311.688,3029.86 c 0.058,-0.87 -6.75,-1.56 -17.188,-4.5 -10.426,-2.89 -24.387,-8.64 -37.75,-18.29 -13.316,-9.72 -23.102,-21.22 -29.082,-30.24 -6.02,-9.02 -8.785,-15.27 -9.586,-14.95 -0.535,0.18 1.02,7.01 6.449,16.88 5.364,9.84 15.196,22.35 29.16,32.52 13.997,10.12 28.934,15.61 39.95,17.66 11.058,2.11 18.043,1.48 18.047,0.92" /><path
         id="path98"
         style="fill:#17282f;fill-opacity:1;fill-rule:nonzero;stroke:none"
         d="m 472.18,2655.27 c 0,-1.44 -50.391,-2.6 -112.535,-2.6 -62.168,0 -112.547,1.16 -112.547,2.6 0,1.44 50.379,2.6 112.547,2.6 62.144,0 112.535,-1.16 112.535,-2.6" /><path
         id="path100"
         style="fill:#17282f;fill-opacity:1;fill-rule:nonzero;stroke:none"
         d="m 484.801,2346.6 c -1.442,0 -2.602,41.27 -2.602,92.17 0,50.92 1.16,92.18 2.602,92.18 1.437,0 2.601,-41.26 2.601,-92.18 0,-50.9 -1.164,-92.17 -2.601,-92.17" /><path
         id="path102"
         style="fill:#17282f;fill-opacity:1;fill-rule:nonzero;stroke:none"
         d="m 520.82,2266.08 c -1.433,0 -2.601,53.13 -2.601,118.65 0,65.56 1.168,118.68 2.601,118.68 1.442,0 2.61,-53.12 2.61,-118.68 0,-65.52 -1.168,-118.65 -2.61,-118.65" /><path
         id="path104"
         style="fill:#cc4341;fill-opacity:1;fill-rule:nonzero;stroke:none"
         d="m 2854.57,1310.38 c -16.59,0 -34.65,0.42 -54.77,1.4 -393.72,19.08 -1191.03,26.05 -1191.03,26.05 -37.33,4.11 -71.34,11.88 -102.15,22.53 10.56,-1.19 21.41,-2.33 32.47,-3.42 55.37,-5.42 105.68,-8.38 142.11,-9.67 18.22,-0.65 32.96,-0.97 43.16,-0.97 0.8,0 1.58,0 2.33,0 8.72,0 13.51,0.16 13.52,0.49 0.01,0.36 -5.61,0.89 -15.78,1.53 -11.09,0.69 -25.58,1.57 -43.05,2.63 -36.34,2.22 -86.51,5.76 -141.78,11.17 -18.22,1.79 -35.86,3.68 -52.61,5.58 -137.7,55.5 -205.97,170.27 -217.05,263.73 -13.96,117.69 42.28,276.41 153.2,318.18 55.45,20.89 122.97,17.6 165.52,58.83 25.41,24.63 35.77,59.66 49.28,92.82 13.22,-23.69 23.95,-47.36 32.57,-69.83 5,-14.72 10.15,-28.59 13.32,-42.06 1.69,-6.7 3.72,-13.09 4.99,-19.38 1.23,-6.29 2.41,-12.33 3.54,-18.12 2.62,-11.5 3.4,-22.14 4.68,-31.41 0.54,-4.65 1.22,-8.96 1.56,-12.95 0.22,-3.94 0.43,-7.59 0.61,-10.95 0.41,-6.1 0.74,-11.12 1.01,-15.17 0.29,-3.47 0.53,-5.29 0.71,-5.29 v 0 c 0.18,0 0.29,1.82 0.34,5.3 -0.01,4.08 -0.02,9.12 -0.04,15.25 -0.04,3.38 -0.1,7.06 -0.15,11.03 -0.19,4.03 -0.73,8.38 -1.14,13.07 -1.01,9.36 -1.54,20.11 -3.95,31.75 -1.04,5.86 -2.12,11.98 -3.24,18.34 -1.18,6.37 -3.12,12.83 -4.75,19.62 -3.01,13.66 -8.06,27.72 -12.99,42.63 -8.92,23.89 -20.29,49.11 -34.54,74.26 2.75,6.47 5.67,12.84 8.89,19.01 11.98,22.98 27.79,42.66 46.38,59.48 1.27,-2.97 2.74,-5.76 4.46,-8.33 6,-9.01 18.31,-17.56 34.18,-25.22 -0.13,-1.77 -14.54,-205.43 78.32,-246.18 -0.83,-18.89 3.5,-35.49 25.2,-35.49 1.21,0 2.47,0.05 3.78,0.15 7.15,0.57 22.17,3.44 42.77,7.85 l -34.6,-98.55 c 0,0 -28.37,11.65 -57.39,22.6 -67.19,25.35 -156.1,30.84 -178.43,30.84 -3.28,0 -5.13,-0.12 -5.26,-0.31 0,0 590.75,-356.79 668.26,-369.27 4.01,-0.65 8.41,-0.95 13.18,-0.95 87.61,0 295.79,103.15 295.79,103.15 l 151.83,-241.56 c 0,0 642.88,166.25 680.94,189.89 49.54,30.75 81.58,94.29 87.8,169.21 23.24,-200.69 -158.28,-350.06 -392.55,-356.16 -116.44,-3.02 -163.52,-17.13 -259.45,-17.13" /><path
         id="path106"
         style="fill:#0f191d;fill-opacity:1;fill-rule:nonzero;stroke:none"
         d="m 1700.93,1876.1 v 0 c -0.18,0 -0.42,1.82 -0.71,5.29 -0.27,4.05 -0.6,9.07 -1.01,15.17 -0.18,3.36 -0.39,7.01 -0.61,10.95 -0.34,3.99 -1.02,8.3 -1.56,12.95 -1.28,9.27 -2.06,19.91 -4.68,31.41 -1.13,5.79 -2.31,11.83 -3.54,18.12 -1.27,6.29 -3.3,12.68 -4.99,19.38 -3.17,13.47 -8.32,27.34 -13.32,42.06 -8.62,22.47 -19.35,46.14 -32.57,69.83 0.83,2.03 1.68,4.06 2.53,6.09 14.25,-25.15 25.62,-50.37 34.54,-74.26 4.93,-14.91 9.98,-28.97 12.99,-42.63 1.63,-6.79 3.57,-13.25 4.75,-19.62 1.12,-6.36 2.2,-12.48 3.24,-18.34 2.41,-11.64 2.94,-22.39 3.95,-31.75 0.41,-4.69 0.95,-9.04 1.14,-13.07 0.05,-3.97 0.11,-7.65 0.15,-11.03 0.02,-6.13 0.03,-11.17 0.04,-15.25 -0.05,-3.48 -0.16,-5.3 -0.34,-5.3" /><path
         id="path108"
         style="fill:#0f191d;fill-opacity:1;fill-rule:nonzero;stroke:none"
         d="m 1726.69,1346.3 c -0.75,0 -1.53,0 -2.33,0 -10.2,0 -24.94,0.32 -43.16,0.97 -36.43,1.29 -86.74,4.25 -142.11,9.67 -11.06,1.09 -21.91,2.23 -32.47,3.42 -6.69,2.31 -13.24,4.76 -19.63,7.34 16.75,-1.9 34.39,-3.79 52.61,-5.58 55.27,-5.41 105.44,-8.95 141.78,-11.17 17.47,-1.06 31.96,-1.94 43.05,-2.63 10.17,-0.64 15.79,-1.17 15.78,-1.53 -0.01,-0.33 -4.8,-0.49 -13.52,-0.49" /><path
         id="path110"
         style="fill:#cc4341;fill-opacity:1;fill-rule:nonzero;stroke:none"
         d="m 2688.15,1768.52 c -5.01,0 -7.84,0.05 -7.84,0.05 v 11.5 l -54.77,108.46 c 1.24,-0.24 2.41,-0.36 3.52,-0.36 10.06,0 14.59,10.29 23.38,34.51 8.99,-2.23 18.42,-3.38 27.98,-3.38 6.47,0 13.01,0.53 19.51,1.58 6.04,-7.95 12.85,-15.19 21,-21.04 24.52,-17.61 52.71,-46.55 81.84,-62.54 -0.72,-0.73 -1.42,-1.44 -2.12,-2.14 -7.12,-6.99 -12.82,-13.43 -17.34,-18.81 -4.24,-4.98 -7.69,-9.05 -10.46,-12.31 -2.34,-2.86 -3.51,-4.4 -3.38,-4.52 0.01,0 0.02,0 0.03,0 0.23,0 1.65,1.31 4.14,3.83 2.95,3.08 6.64,6.93 11.17,11.63 4.73,5.16 10.62,11.36 17.9,18.13 0.93,0.88 1.87,1.78 2.83,2.71 11.85,-6.16 23.84,-10.05 35.79,-10.05 4.28,0 8.56,0.5 12.82,1.58 69.67,17.59 143.2,34.42 216.1,50.08 -70.9,-29.69 -155.36,-66.6 -192.09,-83.56 -51.26,-23.66 -159.96,-25.35 -190.01,-25.35" /><path
         id="path112"
         style="fill:#0f191d;fill-opacity:1;fill-rule:nonzero;stroke:none"
         d="m 2769.5,1799.52 c -0.01,0 -0.02,0 -0.03,0 -0.13,0.12 1.04,1.66 3.38,4.52 2.77,3.26 6.22,7.33 10.46,12.31 4.52,5.38 10.22,11.82 17.34,18.81 0.7,0.7 1.4,1.41 2.12,2.14 0.92,-0.51 1.85,-1 2.77,-1.48 -0.96,-0.93 -1.9,-1.83 -2.83,-2.71 -7.28,-6.77 -13.17,-12.97 -17.9,-18.13 -4.53,-4.7 -8.22,-8.55 -11.17,-11.63 -2.49,-2.52 -3.91,-3.83 -4.14,-3.83" /><path
         id="path114"
         style="fill:#dadbd8;fill-opacity:1;fill-rule:nonzero;stroke:none"
         d="m 2039.43,1127.38 c 13.38,3.32 28.32,17.15 39.88,24.6 28.39,18.28 56.48,37.03 84.25,56.24 -99.8,29.06 -184.52,51.93 -284.32,80.29 -2.9,-39.06 -0.16,-81.44 11.01,-118.98 9.2,-30.9 26.82,-63.77 58,-71.97 28.35,-7.45 57.16,8.17 82.1,23.57 2.32,1.42 4.64,2.86 6.96,4.29" /><path
         id="path116"
         style="fill:#17282f;fill-opacity:1;fill-rule:nonzero;stroke:none"
         d="m 2056.62,1182.49 c -1.53,0.16 -0.9,13.12 -4.43,28.41 -3.36,15.32 -9.5,26.76 -8.18,27.56 1.06,0.82 9.64,-10.07 13.26,-26.42 3.74,-16.31 0.66,-29.83 -0.65,-29.55" /><path
         id="path118"
         style="fill:#17282f;fill-opacity:1;fill-rule:nonzero;stroke:none"
         d="m 2078.12,1187.71 c -1.48,0.32 -0.26,10.32 -1.6,22.41 -1.21,12.11 -4.48,21.63 -3.11,22.26 1.2,0.65 6.95,-8.62 8.29,-21.71 1.42,-13.1 -2.27,-23.35 -3.58,-22.96" /><path
         id="path120"
         style="fill:#33535f;fill-opacity:1;fill-rule:nonzero;stroke:none"
         d="m 1946.25,1269.62 c 0.9,-0.21 -1.98,-10.38 -2.13,-27.09 -0.22,-16.52 2.99,-40.13 15.61,-62.07 12.73,-22.2 27.37,-40.42 40.88,-50.13 13.37,-9.92 23.97,-11.94 23.64,-12.91 -0.06,-0.29 -2.72,-0.08 -7.35,1.2 -4.66,1.23 -11.17,3.98 -18.41,8.7 -14.68,9.36 -30.35,27.99 -43.26,50.52 -13.29,23.13 -15.96,47.85 -14.79,64.82 0.56,8.56 1.87,15.4 3.16,20.01 1.28,4.61 2.34,7.04 2.65,6.95" /><path
         id="path122"
         style="fill:#33535f;fill-opacity:1;fill-rule:nonzero;stroke:none"
         d="m 2024.25,1246.5 c 1.16,0.48 11.75,-24.91 16.26,-58.35 4.56,-33.45 1.11,-60.75 -0.13,-60.59 -1.62,0.07 -0.54,27.1 -5.03,59.88 -4.41,32.79 -12.64,58.57 -11.1,59.06" /><path
         id="path124"
         style="fill:#f2575d;fill-opacity:1;fill-rule:nonzero;stroke:none"
         d="m 2001.65,1140.16 c -0.45,-0.49 -6.71,4.08 -15.83,12.73 -9,8.66 -21.06,21.7 -29.77,39.2 -8.71,17.55 -10.84,35.84 -9.04,48.49 1.69,12.77 6.11,19.64 6.56,19.36 0.85,-0.31 -2.23,-7.52 -2.89,-19.7 -0.79,-12.09 1.78,-29.17 10.04,-45.84 8.3,-16.69 19.52,-29.75 27.75,-38.94 8.31,-9.19 13.71,-14.73 13.18,-15.3" /><path
         id="path126"
         style="fill:#f2575d;fill-opacity:1;fill-rule:nonzero;stroke:none"
         d="m 2141.49,1194.36 c 0.62,-1.3 -15.14,-11.13 -35.18,-21.94 -20.06,-10.82 -36.92,-18.58 -37.67,-17.35 -0.74,1.23 15.01,11.06 35.19,21.93 20.18,10.88 37.04,18.66 37.66,17.36" /><path
         id="path128"
         style="fill:#33535f;fill-opacity:1;fill-rule:nonzero;stroke:none"
         d="m 1982.32,1138.7 c 1,-0.86 -10.86,-13.2 -30.42,-19.63 -19.5,-6.6 -36.4,-3.85 -36.12,-2.56 0.05,1.57 16.13,1.26 34.47,7.51 18.42,6.01 31.09,15.91 32.07,14.68" /><path
         id="path130"
         style="fill:#33535f;fill-opacity:1;fill-rule:nonzero;stroke:none"
         d="m 1948.36,1189.96 c 0.15,-1.53 -13.46,-3.4 -28.52,-10.35 -15.15,-6.78 -25.5,-15.8 -26.57,-14.68 -1.03,0.84 8.27,12.17 24.41,19.43 16.08,7.37 30.73,6.94 30.68,5.6" /><path
         id="path132"
         style="fill:#33535f;fill-opacity:1;fill-rule:nonzero;stroke:none"
         d="m 1941.8,1235.47 c -0.8,-1.36 -14.29,6.69 -32.94,9.14 -18.61,2.73 -33.78,-1.35 -34.18,0.18 -0.63,1.17 14.91,7.86 34.9,4.98 20.02,-2.68 33.15,-13.35 32.22,-14.3" /><path
         id="path134"
         style="fill:#f8a58d;fill-opacity:1;fill-rule:nonzero;stroke:none"
         d="m 2707.4,1380.02 c 0.59,-0.93 -375.11,-91.51 -375.11,-91.51 l -55.26,129.54 25.37,39.12 c 0,0 158.76,35.86 288.02,108.96 l 116.98,-186.11" /><path
         id="path136"
         style="fill:#17282f;fill-opacity:1;fill-rule:nonzero;stroke:none"
         d="m 1825.73,1748.47 c 0,0 -17.11,25.06 -90.08,60.75 -60.49,29.58 -215.78,54.46 -278.64,-67.04 -62.84,-121.51 -14.66,-307.96 90.09,-347.76 104.75,-39.81 278.63,-94.28 349.86,-117.33 71.23,-23.03 305.86,-81.7 305.86,-81.7 l 96.37,56.57 11.36,179.84 c 0,0 -132.86,136.49 -245.99,174.21 -113.13,37.7 -238.83,142.46 -238.83,142.46" /><path
         id="path138"
         style="fill:#17282f;fill-opacity:1;fill-rule:nonzero;stroke:none"
         d="m 1608.77,1833.2 c 1.01,1.49 106.63,-1.46 183.69,-30.53 29.02,-10.95 57.39,-22.6 57.39,-22.6 l 42.62,121.38 319.29,106.37 h 353.54 l 115.01,-227.75 v -11.5 c 0,0 138.04,-2.31 197.85,25.3 59.81,27.61 246.15,108.12 294.46,124.23 48.31,16.1 264.55,47.08 312.86,-84.58 48.31,-131.67 14.04,-268.93 -66.71,-319.06 -38.06,-23.64 -680.94,-189.89 -680.94,-189.89 L 2586,1566.13 c 0,0 -231.46,-114.68 -308.97,-102.2 -77.51,12.48 -668.26,369.27 -668.26,369.27" /><path
         id="path140"
         style="fill:#33535f;fill-opacity:1;fill-rule:nonzero;stroke:none"
         d="m 2260.75,1949.11 c 0.18,0.05 0.72,-1.55 1.59,-4.63 0.96,-3.69 2.13,-8.16 3.55,-13.56 2.87,-11.83 6.63,-29.05 10.39,-50.49 7.79,-42.82 15.56,-102.48 21.61,-168.56 5.92,-66.14 9.2,-126.15 10.49,-169.63 0.7,-21.74 0.9,-39.34 0.88,-51.5 -0.09,-5.57 -0.16,-10.2 -0.22,-14 -0.1,-3.2 -0.24,-4.89 -0.42,-4.89 -0.18,0 -0.39,1.68 -0.62,4.87 -0.21,3.8 -0.47,8.41 -0.77,13.98 -0.64,12.94 -1.5,30.3 -2.53,51.38 -2.23,43.39 -6.08,103.28 -11.99,169.31 -6.05,65.99 -13.22,125.57 -20.06,168.44 -3.29,21.45 -6.49,38.73 -8.74,50.66 -1.04,5.47 -1.89,10.01 -2.6,13.74 -0.54,3.17 -0.73,4.84 -0.56,4.88" /><path
         id="path142"
         style="fill:#33535f;fill-opacity:1;fill-rule:nonzero;stroke:none"
         d="m 2676.75,1762.92 c 0.16,-1.42 -80.01,-11.5 -179.03,-22.5 -99.06,-11 -179.47,-18.76 -179.62,-17.33 -0.16,1.42 79.99,11.5 179.04,22.51 99.02,10.99 179.45,18.75 179.61,17.32" /><path
         id="path144"
         style="fill:#33535f;fill-opacity:1;fill-rule:nonzero;stroke:none"
         d="m 2624,1762.4 c -0.06,-0.35 -4.13,0 -11.43,0.92 -7.28,0.99 -17.83,2.27 -30.88,3.66 -26.08,2.83 -62.26,5.35 -102.26,4.68 -40.01,-0.73 -76.1,-4.51 -102.06,-8.24 -12.99,-1.85 -23.49,-3.5 -30.74,-4.73 -7.24,-1.18 -11.31,-1.68 -11.38,-1.32 -0.07,0.35 3.83,1.51 10.98,3.31 7.14,1.84 17.58,4.05 30.56,6.37 25.95,4.68 62.25,9.09 102.55,9.82 40.28,0.66 76.72,-2.46 102.8,-6.23 13.06,-1.87 23.56,-3.71 30.76,-5.32 7.22,-1.54 11.16,-2.56 11.1,-2.92" /><path
         id="path146"
         style="fill:#33535f;fill-opacity:1;fill-rule:nonzero;stroke:none"
         d="m 2672.86,1776.21 c -0.8,-1.51 -28.84,16.95 -68.5,25.44 -39.58,8.96 -72.79,4 -72.87,5.71 -0.1,0.6 8.01,2.64 21.49,3.55 13.45,0.94 32.29,0.25 52.49,-4.17 20.19,-4.47 37.57,-11.77 49.38,-18.26 11.84,-6.5 18.35,-11.76 18.01,-12.27" /><path
         id="path148"
         style="fill:#33535f;fill-opacity:1;fill-rule:nonzero;stroke:none"
         d="m 2378.43,1578.49 c 0.82,-1.07 -12.66,-12 -32.37,-19.83 -19.67,-7.93 -36.98,-9.3 -37.12,-7.96 -0.26,1.5 16.15,5.11 35.18,12.8 19.08,7.56 33.46,16.26 34.31,14.99" /><path
         id="path150"
         style="fill:#33535f;fill-opacity:1;fill-rule:nonzero;stroke:none"
         d="m 2361.45,1533.7 c 0.47,-1.3 -11.06,-6.47 -26.35,-8.62 -15.28,-2.22 -27.79,-0.48 -27.71,0.91 0.06,1.49 12.23,2.1 26.98,4.25 14.74,2.07 26.61,4.89 27.08,3.46" /><path
         id="path152"
         style="fill:#33535f;fill-opacity:1;fill-rule:nonzero;stroke:none"
         d="m 2904.8,1785.05 c 0.08,-0.15 -1.54,-1.25 -4.69,-3.21 -3.69,-2.2 -8.3,-4.95 -13.96,-8.33 -12.85,-7.4 -30.39,-17.49 -51.78,-29.81 -44.55,-25.05 -105.01,-59.04 -171.83,-96.61 -67.13,-37.06 -127.86,-70.59 -172.61,-95.3 -21.72,-11.71 -39.53,-21.31 -52.58,-28.35 -5.84,-3.03 -10.62,-5.51 -14.43,-7.48 -3.32,-1.66 -5.11,-2.45 -5.19,-2.3 -0.09,0.16 1.53,1.26 4.69,3.22 3.69,2.2 8.3,4.96 13.96,8.34 12.85,7.4 30.39,17.49 51.79,29.8 44.54,25.05 105.01,59.04 171.83,96.62 67.1,37.04 127.82,70.57 172.56,95.27 21.72,11.72 39.53,21.32 52.6,28.37 5.84,3.02 10.61,5.49 14.43,7.48 3.32,1.66 5.12,2.45 5.21,2.29" /><path
         id="path154"
         style="fill:#33535f;fill-opacity:1;fill-rule:nonzero;stroke:none"
         d="m 3174.45,1835.98 c 0.03,-0.19 -2.19,-0.74 -6.45,-1.65 -4.8,-0.99 -10.98,-2.26 -18.64,-3.84 -16.17,-3.34 -39.48,-8.71 -67.87,-16.73 -56.87,-15.76 -133.53,-44.41 -214.03,-84.88 -80.56,-40.43 -150.34,-83.01 -200.81,-113.75 -24.8,-15.2 -45.07,-27.61 -59.7,-36.57 -6.72,-4.03 -12.14,-7.27 -16.34,-9.79 -3.77,-2.19 -5.79,-3.26 -5.89,-3.1 -0.1,0.14 1.74,1.52 5.32,3.99 4.06,2.73 9.32,6.25 15.82,10.61 13.8,9.11 33.87,22.15 58.85,37.99 49.99,31.55 119.59,74.71 200.42,115.28 80.77,40.6 158.05,68.86 215.38,83.78 28.64,7.58 52.14,12.43 68.47,15.16 8.14,1.52 14.54,2.26 18.84,2.88 4.32,0.58 6.61,0.79 6.63,0.62" /><path
         id="path156"
         style="fill:#33535f;fill-opacity:1;fill-rule:nonzero;stroke:none"
         d="m 3332.82,1881.42 c -0.08,-0.88 -11.67,0.13 -30.29,-0.4 -18.61,-0.5 -44.32,-3.21 -71.68,-10.75 -27.35,-7.63 -50.79,-18.53 -67,-27.68 -16.25,-9.13 -25.65,-15.95 -26.18,-15.24 -0.23,0.29 1.93,2.25 6.02,5.57 4.06,3.38 10.3,7.81 18.28,12.84 15.94,10.09 39.61,21.76 67.48,29.53 27.9,7.68 54.19,9.85 73.05,9.41 9.45,-0.21 17.06,-0.79 22.28,-1.6 5.22,-0.74 8.08,-1.32 8.04,-1.68" /><path
         id="path158"
         style="fill:#33535f;fill-opacity:1;fill-rule:nonzero;stroke:none"
         d="m 3277.15,1839.16 c -0.22,-1.55 -26.77,1.96 -59.54,0.74 -32.8,-1.04 -59.04,-6.35 -59.38,-4.82 -0.37,1.26 25.79,8.96 59.19,10.02 33.39,1.23 60.02,-4.67 59.73,-5.94" /><path
         id="path160"
         style="fill:#33535f;fill-opacity:1;fill-rule:nonzero;stroke:none"
         d="m 3161.2,1879.98 c 0.71,-1.39 -22.32,-13.61 -47.94,-32.72 -25.73,-18.99 -44.1,-37.48 -45.22,-36.4 -1.02,0.84 15.94,21.25 42.12,40.58 26.07,19.44 50.53,29.75 51.04,28.54" /><path
         id="path162"
         style="fill:#33535f;fill-opacity:1;fill-rule:nonzero;stroke:none"
         d="m 3499.52,1765.87 c 0.08,-0.05 -0.25,-0.76 -0.99,-2.12 -0.92,-1.61 -2.03,-3.57 -3.39,-5.95 -3.01,-5.22 -7.71,-12.79 -14.37,-22.11 -13.09,-18.72 -34.73,-44.5 -67.25,-69.68 -32.53,-25.06 -74.79,-50.04 -124,-72.68 -49.2,-22.72 -105.33,-42.66 -164.12,-63.31 -117.55,-41.12 -223.92,-78.33 -301.44,-105.44 -38.32,-13.14 -69.49,-23.83 -91.56,-31.39 -10.5,-3.49 -18.84,-6.25 -24.97,-8.29 -2.62,-0.81 -4.77,-1.48 -6.54,-2.03 -1.48,-0.43 -2.26,-0.6 -2.28,-0.52 -0.03,0.08 0.68,0.43 2.1,1.02 1.73,0.69 3.82,1.52 6.37,2.52 6.06,2.27 14.28,5.33 24.65,9.21 21.93,7.94 52.91,19.16 91,32.95 77.39,27.49 183.59,65.2 300.93,106.88 58.81,20.65 114.82,40.39 163.87,62.77 49.03,22.26 91.24,46.78 123.74,71.23 32.49,24.57 54.34,49.69 67.86,67.96 6.88,9.08 11.83,16.44 15.12,21.46 1.53,2.28 2.79,4.14 3.82,5.68 0.89,1.27 1.38,1.89 1.45,1.84" /><path
         id="path164"
         style="fill:#33535f;fill-opacity:1;fill-rule:nonzero;stroke:none"
         d="m 2288.58,1245.57 c -0.08,-0.17 -2.59,0.72 -7.32,2.56 -5.16,2.08 -12.01,4.84 -20.57,8.29 -17.81,7.36 -43.47,18.24 -74.99,32.12 -63.08,27.65 -149.58,67.34 -244.03,113.44 -94.37,46.32 -178.73,90.49 -238.39,125 -29.9,17.13 -53.64,31.78 -69.83,42.23 -7.68,5.14 -13.82,9.24 -18.45,12.34 -4.18,2.86 -6.33,4.43 -6.23,4.59 0.1,0.14 2.44,-1.14 6.8,-3.72 4.76,-2.89 11.06,-6.7 18.95,-11.49 16.5,-9.9 40.48,-24.04 70.57,-40.74 60.03,-33.63 144.57,-77.24 238.87,-123.53 94.38,-46.07 180.58,-86.26 243.24,-114.76 31,-14.03 56.24,-25.45 74.29,-33.62 8.4,-3.82 15.11,-6.88 20.18,-9.19 4.59,-2.14 6.97,-3.36 6.91,-3.52" /><path
         id="path166"
         style="fill:#33535f;fill-opacity:1;fill-rule:nonzero;stroke:none"
         d="m 1633.58,1770.15 c -0.16,0.27 2.93,2.4 8.86,5.64 5.92,3.26 14.81,7.42 26.25,11.41 22.72,8.09 56.6,14.43 93.58,9.69 36.54,-4.41 69.3,-13.75 90.56,-25.71 10.66,-5.83 18.63,-11.68 23.67,-16.21 5.06,-4.5 7.49,-7.36 7.29,-7.57 -0.67,-0.81 -11.27,9.98 -32.65,20.51 -21.21,10.85 -53.31,19.43 -89.53,23.81 -36.03,4.62 -69.14,-0.97 -91.78,-8.02 -22.81,-7 -35.82,-14.41 -36.25,-13.55" /><path
         id="path168"
         style="fill:#33535f;fill-opacity:1;fill-rule:nonzero;stroke:none"
         d="m 2310.55,1431.8 c -0.12,-0.13 -1.73,1.12 -4.67,3.61 -3.36,2.88 -7.6,6.51 -12.8,10.97 -11.09,9.55 -27.45,22.99 -47.88,39.35 -40.83,32.74 -98.45,76.46 -161.95,124.99 -15.82,12.17 -31.27,24.06 -46.2,35.54 -15.05,11.14 -30.37,20.81 -45.15,29.74 -29.64,17.75 -57.03,32.88 -78.71,47.77 -21.84,14.67 -38.06,28.63 -48.33,39.14 -5.3,5.1 -8.92,9.53 -11.42,12.47 -2.49,2.96 -3.73,4.57 -3.59,4.69 0.42,0.37 5.69,-5.81 16.42,-15.7 10.62,-9.99 27.02,-23.36 48.95,-37.52 21.78,-14.4 49.23,-29.12 79.14,-46.73 14.91,-8.86 30.42,-18.53 45.72,-29.76 15.23,-11.32 30.39,-23.41 46.34,-35.5 63.48,-48.52 120.8,-92.76 161.11,-126.28 20.16,-16.75 36.2,-30.65 46.9,-40.69 5.44,-4.92 9.43,-8.99 12.16,-11.71 2.72,-2.74 4.09,-4.24 3.96,-4.38" /><path
         id="path170"
         style="fill:#33535f;fill-opacity:1;fill-rule:nonzero;stroke:none"
         d="m 2046.92,1681.14 c 0.32,0.71 13.75,-4.81 35.59,-13.29 21.83,-8.48 52.18,-19.69 86.23,-30.49 34.06,-10.78 65.33,-19.09 88.07,-24.72 22.74,-5.65 36.89,-8.87 36.75,-9.64 -0.07,-0.35 -3.69,0.03 -10.2,1.01 -6.5,0.95 -15.86,2.66 -27.37,5.04 -23.02,4.73 -54.6,12.51 -88.83,23.35 -34.2,10.84 -64.51,22.66 -86.05,32.05 -10.78,4.68 -19.41,8.68 -25.28,11.64 -5.89,2.94 -9.07,4.71 -8.91,5.05" /><path
         id="path172"
         style="fill:#33535f;fill-opacity:1;fill-rule:nonzero;stroke:none"
         d="m 2157.47,1769.77 c 0.08,-0.74 -13.67,-2.85 -35.9,-6.19 -22.21,-3.34 -52.88,-8.04 -86.6,-14.07 -33.73,-6.04 -64.12,-12.27 -86.12,-16.85 -22,-4.58 -35.63,-7.36 -35.81,-6.64 -0.09,0.35 3.21,1.5 9.25,3.3 6.03,1.81 14.83,4.18 25.74,6.93 21.82,5.5 52.19,12.33 86.02,18.39 33.83,6.05 64.67,10.18 87.05,12.59 11.19,1.2 20.26,2.03 26.55,2.43 6.29,0.41 9.78,0.47 9.82,0.11" /><path
         id="path174"
         style="fill:#33535f;fill-opacity:1;fill-rule:nonzero;stroke:none"
         d="m 2110.09,1828.46 c 0.05,-0.84 -13.76,-1.98 -35.84,-5.29 -22.07,-3.29 -52.35,-9.28 -84.86,-19.33 -32.49,-10.12 -60.85,-22.33 -80.9,-32.12 -20.08,-9.76 -32.11,-16.65 -32.54,-15.93 -0.19,0.31 2.63,2.35 7.89,5.78 5.24,3.47 13.08,8.09 22.98,13.43 19.76,10.7 48.2,23.59 81.03,33.81 32.84,10.16 63.58,15.64 85.93,18.01 11.17,1.2 20.25,1.83 26.53,1.93 6.29,0.16 9.76,0.07 9.78,-0.29" /><path
         id="path176"
         style="fill:#dadbd8;fill-opacity:1;fill-rule:nonzero;stroke:none"
         d="m 2511.91,1323.57 -59.82,-139.82 c 22.07,-19.85 106.09,-32.77 135.73,-31.28 29.65,1.49 72.37,1.15 101.86,4.51 37.45,4.28 75.29,1.5 112.91,-0.82 37.63,-2.31 75.62,-4.13 112.8,2.06 37.18,6.18 73.93,21.02 100.39,47.86 26.48,26.83 41.11,66.84 31.78,103.37 -8.08,31.58 -33.06,57.21 -62.64,70.89 -29.59,13.7 -63.3,16.44 -95.73,13.13 -32.43,-3.32 -63.95,-12.42 -95.23,-21.59 -33.26,-9.75 -67.4,-19.73 -101.94,-16.99 -7.04,0.55 -14.02,0.31 -20.97,1.59 -45.18,8.32 -92.32,8.77 -133,-16.84 -8.39,-5.28 -17.65,-9.85 -26.14,-16.07" /><path
         id="path178"
         style="fill:#33535f;fill-opacity:1;fill-rule:nonzero;stroke:none"
         d="m 2520.59,1307.52 c -0.12,0.13 1.67,1.89 5.26,5.04 3.7,3.02 9.29,7.38 17.2,11.92 15.57,8.92 41.55,19.15 74.52,16.07 16.22,-1.59 33.65,-4.89 52.39,-7.72 18.69,-2.73 38.88,-5.21 59.85,-2.94 21.01,2.12 42.52,8.34 64.79,14.92 22.25,6.53 45.81,13.39 70.77,15.07 24.79,2 49.55,0.43 72.26,-6.24 11.34,-3.27 22.14,-7.68 32.16,-13.03 10.03,-5.21 19.33,-12.21 26.59,-20.3 14.75,-16.12 24.31,-35.16 28.69,-54.05 2.16,-9.41 2.8,-19.18 0.9,-28.12 -1.78,-8.93 -5.26,-17.05 -9.59,-24.07 -8.62,-14.16 -20.29,-24.05 -31.12,-31.06 -10.91,-7.06 -21.13,-11.6 -29.48,-15.11 -8.39,-3.43 -15.02,-5.77 -19.52,-7.31 -4.51,-1.54 -6.91,-2.25 -6.98,-2.08 -0.06,0.16 2.22,1.2 6.6,3.05 4.38,1.87 10.88,4.51 19.09,8.21 8.18,3.76 18.15,8.52 28.67,15.66 10.46,7.1 21.52,16.85 29.58,30.54 8.19,13.49 12.65,31.21 7.64,49.33 -4.35,18.02 -13.77,36.42 -28,51.74 -14.04,15.51 -34.83,25.16 -56.64,31.7 -22.03,6.4 -46.12,7.9 -70.43,5.95 -48.82,-3.59 -92.08,-25.83 -135.5,-29.57 -21.67,-2.21 -42.21,0.52 -60.99,3.45 -18.81,3.02 -36.17,6.52 -52.1,8.32 -31.96,3.46 -57.55,-5.93 -73.17,-14.18 -15.83,-8.55 -23.09,-15.66 -23.44,-15.19" /><path
         id="path180"
         style="fill:#17282f;fill-opacity:1;fill-rule:nonzero;stroke:none"
         d="m 2929.28,1158.51 c -0.28,-0.23 -2.19,1.94 -5.42,6.08 -1.69,2.02 -3.53,4.66 -5.45,7.85 -2,3.16 -4.3,6.74 -6.35,10.98 -4.59,8.23 -8.63,18.72 -12.53,30.54 -3.51,11.93 -6.43,25.34 -7.99,39.63 -1.38,14.3 -1.25,28.03 -0.24,40.44 1.42,12.36 3.24,23.45 6.07,32.45 1.14,4.56 2.66,8.53 3.99,12.03 1.23,3.51 2.5,6.46 3.74,8.79 2.33,4.7 3.76,7.21 4.09,7.06 0.87,-0.39 -4.05,-10.86 -8.26,-28.81 -2.32,-8.92 -3.72,-19.82 -4.85,-31.91 -0.73,-12.15 -0.71,-25.54 0.63,-39.52 1.53,-13.95 4.24,-27.07 7.42,-38.81 3.57,-11.61 7.16,-22.01 11.24,-30.26 7.76,-16.72 14.69,-25.99 13.91,-26.54" /><path
         id="path182"
         style="fill:#33535f;fill-opacity:1;fill-rule:nonzero;stroke:none"
         d="m 2548.77,1343.1 c 1.27,-0.71 -0.3,-5.9 -2.86,-11.91 -2.57,-6 -5.23,-10.73 -6.62,-10.3 -1.37,0.41 -0.86,6.06 1.83,12.34 2.68,6.29 6.41,10.57 7.65,9.87" /><path
         id="path184"
         style="fill:#33535f;fill-opacity:1;fill-rule:nonzero;stroke:none"
         d="m 2591.48,1359.78 c 1.31,-0.61 0.25,-5.76 -1.71,-11.77 -1.98,-6.01 -4.17,-10.79 -5.6,-10.5 -1.39,0.29 -1.42,5.8 0.65,12.12 2.07,6.32 5.36,10.74 6.66,10.15" /><path
         id="path186"
         style="fill:#33535f;fill-opacity:1;fill-rule:nonzero;stroke:none"
         d="m 2646.33,1360.78 c 1.37,-0.44 0.66,-6.32 -1.57,-13.14 -2.23,-6.82 -5.15,-11.98 -6.52,-11.53 -1.36,0.45 -0.66,6.33 1.58,13.15 2.22,6.82 5.14,11.97 6.51,11.52" /><path
         id="path188"
         style="fill:#33535f;fill-opacity:1;fill-rule:nonzero;stroke:none"
         d="m 2697.84,1354.36 c 1.39,-0.4 0.89,-6.32 -1.1,-13.22 -1.99,-6.9 -4.73,-12.16 -6.1,-11.77 -1.39,0.4 -0.89,6.32 1.1,13.22 1.99,6.89 4.73,12.17 6.1,11.77" /><path
         id="path190"
         style="fill:#33535f;fill-opacity:1;fill-rule:nonzero;stroke:none"
         d="m 2741.28,1327.17 c -1.43,0.01 -2.56,6.97 -2.52,15.56 0.05,8.58 1.25,15.53 2.7,15.52 1.43,0 2.56,-6.97 2.52,-15.55 -0.05,-8.59 -1.25,-15.54 -2.7,-15.53" /><path
         id="path192"
         style="fill:#33535f;fill-opacity:1;fill-rule:nonzero;stroke:none"
         d="m 2789.65,1339.42 c -1.43,-0.21 -3.46,5.97 -4.54,13.8 -1.08,7.81 -0.81,14.3 0.61,14.51 1.43,0.19 3.46,-5.99 4.55,-13.8 1.08,-7.82 0.8,-14.32 -0.62,-14.51" /><path
         id="path194"
         style="fill:#33535f;fill-opacity:1;fill-rule:nonzero;stroke:none"
         d="m 2834.07,1383.19 c 1.41,0.26 3.71,-5.61 5.13,-13.11 1.42,-7.51 1.42,-13.81 0,-14.08 -1.41,-0.27 -3.7,5.6 -5.13,13.11 -1.41,7.5 -1.41,13.8 0,14.08" /><path
         id="path196"
         style="fill:#33535f;fill-opacity:1;fill-rule:nonzero;stroke:none"
         d="m 2891.67,1393.77 c 1.41,-0.3 0.85,-8.52 -1.23,-18.37 -2.09,-9.84 -4.92,-17.59 -6.33,-17.28 -1.4,0.29 -0.85,8.51 1.23,18.37 2.09,9.84 4.93,17.57 6.33,17.28" /><path
         id="path198"
         style="fill:#33535f;fill-opacity:1;fill-rule:nonzero;stroke:none"
         d="m 2941.04,1392.38 c 1.32,-0.59 -2.21,-9.69 -7.86,-20.33 -5.67,-10.62 -11.25,-18.63 -12.48,-17.87 -1.22,0.75 2.3,9.86 7.88,20.32 5.56,10.46 11.15,18.47 12.46,17.88" /><path
         id="path200"
         style="fill:#33535f;fill-opacity:1;fill-rule:nonzero;stroke:none"
         d="m 2991.38,1379.12 c 1.2,-0.79 -3.43,-10.02 -10.34,-20.61 -6.92,-10.61 -13.5,-18.56 -14.7,-17.78 -1.2,0.8 3.43,10.02 10.34,20.62 6.92,10.6 13.5,18.55 14.7,17.77" /><path
         id="path202"
         style="fill:#33535f;fill-opacity:1;fill-rule:nonzero;stroke:none"
         d="m 3023.73,1348.78 c 1.17,-0.82 -3.21,-9.18 -9.8,-18.66 -6.6,-9.49 -12.9,-16.51 -14.08,-15.69 -1.19,0.82 3.2,9.18 9.8,18.66 6.59,9.49 12.9,16.51 14.08,15.69" /><path
         id="path204"
         style="fill:#33535f;fill-opacity:1;fill-rule:nonzero;stroke:none"
         d="m 3046.41,1310.16 c 1.15,-0.82 -3.3,-8.94 -10.91,-17.32 -7.59,-8.39 -15.22,-13.63 -16.16,-12.56 -0.98,1.09 4.93,7.9 12.3,16.06 7.4,8.14 13.59,14.68 14.77,13.82" /><path
         id="path206"
         style="fill:#33535f;fill-opacity:1;fill-rule:nonzero;stroke:none"
         d="m 3043.11,1251.27 c 1.12,-0.84 -1.48,-5.7 -7.39,-8.29 -5.88,-2.61 -11.22,-1.25 -11.09,0.16 0.04,1.47 4.33,2.5 8.99,4.62 4.72,2.01 8.37,4.48 9.49,3.51" /><path
         id="path208"
         style="fill:#33535f;fill-opacity:1;fill-rule:nonzero;stroke:none"
         d="m 3011.1,1200.84 c 0.47,-1.35 -0.96,-3.02 -3.13,-2.65 -2.16,0.39 -2.94,2.45 -2.04,3.55 0.9,1.14 2.13,1.69 2.94,1.58 0.8,-0.17 1.78,-1.1 2.23,-2.48" /><path
         id="path210"
         style="fill:#17282f;fill-opacity:1;fill-rule:nonzero;stroke:none"
         d="m 2662.37,1180.89 c -1.41,0.83 11.67,19.72 16.35,46.84 5.06,27.07 -0.63,49.31 0.98,49.61 1.1,0.64 9.41,-22.08 4.15,-50.53 -4.96,-28.5 -20.66,-46.92 -21.48,-45.92" /><path
         id="path212"
         style="fill:#17282f;fill-opacity:1;fill-rule:nonzero;stroke:none"
         d="m 2703.6,1185.64 c -1.38,0.85 10.96,18.15 14.97,43.22 4.39,25.01 -1.63,45.4 -0.04,45.75 1.09,0.7 9.76,-20.13 5.17,-46.61 -4.29,-26.52 -19.3,-43.4 -20.1,-42.36" /><path
         id="path214"
         style="fill:#17282f;fill-opacity:1;fill-rule:nonzero;stroke:none"
         d="m 2755.47,1185.31 c -1.38,0.89 13.28,19.09 18.11,46.45 5.28,27.29 -1.91,49.52 -0.31,49.86 0.58,0.2 3.22,-5.03 5.19,-14.23 1.99,-9.16 2.84,-22.38 0.24,-36.58 -2.64,-14.19 -8.17,-26.23 -13.31,-34.07 -5.12,-7.88 -9.45,-11.83 -9.92,-11.43" /><path
         id="path216"
         style="fill:#17282f;fill-opacity:1;fill-rule:nonzero;stroke:none"
         d="m 2814.06,1188.79 c -1.45,0.74 10.17,20.67 13.48,48.19 3.68,27.47 -2.59,49.66 -0.99,50.01 1.11,0.65 9.97,-21.88 6.16,-50.68 -3.52,-28.82 -17.74,-48.42 -18.65,-47.52" /><path
         id="path218"
         style="fill:#17282f;fill-opacity:1;fill-rule:nonzero;stroke:none"
         d="m 2651.88,1232.73 c 0.06,-0.29 -2.9,-1.34 -8.5,-1.17 -5.54,0.18 -13.7,2.02 -22.26,7.28 -8.59,5.2 -16.99,13.82 -24.86,24.03 -3.87,5.06 -8.42,10.54 -10.79,17.86 -1.14,3.64 -1.63,7.66 -0.91,11.73 0.7,4.08 2.98,8.08 6.25,10.79 6.57,5.48 15.47,6.48 22.78,4.29 7.35,-2.18 13.14,-6.67 17.85,-11.29 9.38,-9.37 15.3,-19.92 18.78,-29.17 3.47,-9.29 4.59,-17.29 4.89,-22.76 0.25,-5.5 -0.22,-8.52 -0.52,-8.51 -0.99,-0.11 -0.37,12.3 -7.78,29.9 -3.75,8.68 -9.73,18.49 -18.71,27.1 -4.47,4.21 -9.77,8.09 -15.91,9.82 -5.96,1.77 -13.12,0.76 -18.01,-3.35 -5,-3.99 -5.75,-11.04 -3.84,-17.03 1.87,-6.08 5.94,-11.35 9.73,-16.47 7.54,-10.2 15.24,-18.59 23.06,-23.85 15.88,-10.85 28.94,-8.32 28.75,-9.2" /><path
         id="path220"
         style="fill:#17282f;fill-opacity:1;fill-rule:nonzero;stroke:none"
         d="m 2649.07,1234.27 c 0.34,-0.14 -0.34,-2.84 -1.93,-7.63 -1.65,-4.75 -4.08,-11.69 -8.52,-19.71 -4.41,-7.91 -11.27,-17.24 -22.27,-23.38 -5.43,-3.04 -11.95,-5.2 -18.96,-5.19 -6.87,0.06 -14.96,2.33 -19.49,9.47 -4.4,7.47 -1.71,16 2.16,21.6 4.01,5.75 9.51,9.9 15.05,12.61 11.19,5.47 22.04,7.07 30.79,8.82 17.65,3.32 28.63,5.03 28.79,4.33 0.15,-0.71 -10.57,-3.68 -28.02,-7.92 -8.67,-2.19 -19.24,-4.23 -29.34,-9.48 -5.03,-2.6 -9.69,-6.32 -13.05,-11.23 -3.21,-4.74 -4.86,-11.31 -1.91,-16.04 2.88,-4.79 9.32,-7.02 15.05,-7.05 5.97,-0.09 11.7,1.67 16.64,4.3 10.04,5.3 16.75,13.64 21.39,21.03 9,15.17 12.72,25.89 13.62,25.47" /><path
         id="path222"
         style="fill:#17282f;fill-opacity:1;fill-rule:nonzero;stroke:none"
         d="m 2645.36,1191.68 c -1.15,0.99 4.61,8.66 6.3,19.84 1.95,11.13 -1.08,20.23 0.32,20.8 1.14,0.81 6.99,-8.75 4.82,-21.64 -2.03,-12.91 -10.63,-20.12 -11.44,-19" /><path
         id="path224"
         style="fill:#17282f;fill-opacity:1;fill-rule:nonzero;stroke:none"
         d="m 2667.64,1261.55 c 1.35,-0.41 0.17,-8 -4.24,-16.23 -4.38,-8.24 -10.05,-13.42 -11.13,-12.53 -1.15,0.91 2.42,7.22 6.54,14.99 4.16,7.74 7.43,14.21 8.83,13.77" /><path
         id="path226"
         style="fill:#f2575d;fill-opacity:1;fill-rule:nonzero;stroke:none"
         d="m 2827.82,1335.94 c 0.26,-0.57 -8.02,-5.09 -22.27,-10.5 -14.23,-5.41 -34.56,-11.35 -57.6,-14.79 -23.06,-3.41 -44.24,-3.66 -59.42,-2.62 -15.21,1.02 -24.46,2.93 -24.38,3.55 0.12,1.69 37.57,-2.74 83.03,4.21 45.51,6.59 80.05,21.73 80.64,20.15" /><path
         id="path228"
         style="fill:#f2575d;fill-opacity:1;fill-rule:nonzero;stroke:none"
         d="m 2802.96,1173.8 c 0.1,-1.43 -24.46,-4.29 -54.86,-6.36 -30.41,-2.08 -55.13,-2.6 -55.23,-1.17 -0.09,1.44 24.47,4.29 54.88,6.37 30.39,2.08 55.11,2.6 55.21,1.16" /><path
         id="path230"
         style="fill:#f2575d;fill-opacity:1;fill-rule:nonzero;stroke:none"
         d="m 2935.68,1169.93 c -0.34,1.18 15.59,-0.09 35.23,13.03 9.54,6.52 19.62,16.65 26.12,30.47 6.59,13.71 8.72,31.12 5.42,48.45 -3.4,17.34 -11.66,32.68 -22.16,43.83 -10.43,11.28 -22.47,18.76 -33.05,23.65 -21.52,9.58 -36.72,9.63 -36.53,10.7 0.01,0.28 3.74,0.56 10.42,-0.17 6.67,-0.73 16.33,-2.63 27.57,-7.15 11.14,-4.62 23.91,-12.05 35.09,-23.75 11.27,-11.56 20.2,-27.77 23.78,-46.14 3.5,-18.35 1.09,-36.92 -6.21,-51.5 -7.21,-14.64 -18.16,-25.04 -28.44,-31.47 -10.42,-6.4 -20.11,-9.09 -26.8,-9.92 -6.72,-0.85 -10.46,-0.25 -10.44,-0.03" /><path
         id="path232"
         style="fill:#f8a58d;fill-opacity:1;fill-rule:nonzero;stroke:none"
         d="m 2303.11,1415.76 260.39,-115.48 c 0,0 5.21,-53.39 -15.99,-96.79 -19.05,-38.99 -76.78,-31.16 -76.78,-31.16 l -228.72,53.19 50.97,29.92 10.13,160.32" /><path
         id="path234"
         style="fill:#dadbd8;fill-opacity:1;fill-rule:nonzero;stroke:none"
         d="m 2535.45,1183.04 c -9.98,7.58 -20.06,15.26 -27.96,24.98 -7.91,9.73 -13.55,21.84 -13.17,34.37 0.35,11.36 5.55,21.99 11.2,31.86 6.28,10.95 14.03,22.14 25.84,26.57 14.39,5.4 30.37,-0.76 44.09,-7.68 l 2.76,-57.95 -42.76,-52.15" /><path
         id="path236"
         style="fill:#f68260;fill-opacity:1;fill-rule:nonzero;stroke:none"
         d="m 2563.5,1300.28 c -0.58,-1.31 -59.35,23.47 -131.24,55.36 -71.92,31.89 -129.73,58.81 -129.14,60.11 0.57,1.32 59.33,-23.46 131.25,-55.36 71.89,-31.88 129.71,-58.8 129.13,-60.11" /><path
         id="path238"
         style="fill:#33535f;fill-opacity:1;fill-rule:nonzero;stroke:none"
         d="m 2859.15,2348.79 c 10.38,-0.34 19.22,7.7 19.59,18.08 2.93,82.13 -51.27,268.37 -77.27,345.63 -15.91,47.28 -69.58,81.71 -107.17,107.13 -45.39,30.69 -205.97,68.28 -258.78,82.91 l -17.79,-0.02 -245.29,18.33 -135.05,-64.74 c 0,0 -187.31,-70.92 -241.6,-169.72 -54.29,-98.8 -95.59,-388.72 -95.59,-388.72 0,0 -24.88,-82.78 0,-120.16 15.49,-23.27 73.15,-43.44 125.08,-53.42 -28.09,-93.58 -5.95,-163.04 -6.94,-174.98 -2.05,-24.61 -20.92,-81.86 23.34,-78.34 44.26,3.54 390.73,94.96 493.57,99.08 102.84,4.1 193.28,-29.79 249.47,-61.23 51.88,-29.04 51.43,-31.19 69.9,20.11 18.47,51.3 -40.57,108.82 -40.57,108.82 0,0 53.08,191.49 77.7,316.66 l 167.4,-5.42" /><path
         id="path240"
         style="fill:#17282f;fill-opacity:1;fill-rule:nonzero;stroke:none"
         d="m 2034.53,2459.9 c -0.29,-0.22 -3.04,2.76 -7.77,8.33 -5.42,6.45 -12.07,14.36 -19.91,23.68 -17,19.74 -40.37,47.35 -70.31,73.35 -14.99,12.95 -30.11,24.29 -44.75,33.19 -14.76,8.65 -28.51,15.79 -40.73,20.14 -24.25,9.26 -40.39,11.52 -40.18,12.6 0.05,0.35 4.07,-0.11 11.33,-1.27 3.66,-0.48 8.07,-1.35 13.1,-2.78 5.06,-1.3 10.86,-2.71 17.02,-5.09 12.58,-3.98 26.77,-10.9 41.92,-19.48 15.05,-8.83 30.51,-20.26 45.7,-33.38 30.35,-26.37 53.42,-54.55 69.75,-74.95 8.07,-10.32 14.44,-18.77 18.66,-24.76 4.24,-5.96 6.46,-9.36 6.17,-9.58" /><path
         id="path242"
         style="fill:#17282f;fill-opacity:1;fill-rule:nonzero;stroke:none"
         d="m 1989.75,2183.46 c 0,-0.36 -4.31,-0.68 -12.1,-0.96 -7.8,-0.29 -19.08,-0.44 -33.03,-0.31 -27.88,0.28 -66.53,1.76 -108.76,8.01 -42.26,6.29 -79.65,17.08 -105.61,27.49 -12.99,5.17 -23.31,9.84 -30.19,13.55 -6.93,3.62 -10.67,5.76 -10.51,6.09 0.41,0.85 15.87,-6.82 42,-16.19 26.08,-9.45 63.17,-19.55 105.08,-25.79 41.9,-6.2 80.3,-8.26 108.08,-9.48 13.07,-0.54 24.09,-0.98 32.95,-1.35 7.78,-0.34 12.09,-0.7 12.09,-1.06" /><path
         id="path244"
         style="fill:#17282f;fill-opacity:1;fill-rule:nonzero;stroke:none"
         d="m 2509.04,2089.61 c 0.31,-0.19 -0.97,-2.82 -3.57,-7.42 -2.55,-4.64 -6.72,-11.07 -12.29,-18.72 -11.1,-15.31 -28.69,-35.04 -51.52,-52.91 -22.88,-17.81 -46.28,-30.1 -63.83,-37.15 -8.78,-3.54 -16.02,-6.03 -21.14,-7.38 -5.1,-1.4 -7.96,-2.01 -8.07,-1.67 -0.26,0.84 10.78,4.57 27.74,12.43 16.95,7.82 39.62,20.38 62.1,37.88 22.42,17.55 40.11,36.5 51.81,51.05 11.73,14.54 18.03,24.35 18.77,23.89" /><path
         id="path246"
         style="fill:#17282f;fill-opacity:1;fill-rule:nonzero;stroke:none"
         d="m 2513.51,2012.8 c 0.38,-0.52 -5.54,-5.85 -16.3,-12.89 -10.73,-7.05 -26.51,-15.48 -45.05,-22.07 -18.56,-6.55 -36.13,-9.92 -48.91,-11.2 -12.79,-1.31 -20.75,-0.89 -20.77,-0.25 -0.16,1.66 31.56,3.29 67.94,16.36 36.49,12.73 62.18,31.43 63.09,30.05" /><path
         id="path248"
         style="fill:#17282f;fill-opacity:1;fill-rule:nonzero;stroke:none"
         d="m 2801.47,2712.5 c 0.35,-0.08 -0.09,-3.09 -1.17,-8.47 -1.04,-5.39 -3.02,-13.1 -5.9,-22.48 -5.73,-18.79 -15.84,-44.19 -30.93,-70.19 -15.16,-25.97 -32.25,-47.32 -45.74,-61.57 -6.75,-7.15 -12.46,-12.68 -16.64,-16.24 -4.15,-3.61 -6.54,-5.47 -6.79,-5.21 -0.58,0.62 8.02,9.13 20.68,23.9 12.68,14.74 29.03,36.13 43.99,61.74 14.87,25.64 25.38,50.43 31.93,68.73 6.58,18.31 9.75,29.99 10.57,29.79" /><path
         id="path250"
         style="fill:#17282f;fill-opacity:1;fill-rule:nonzero;stroke:none"
         d="m 2864.45,2392.72 c 0,-0.71 -9.25,-1.47 -24.21,-1.89 -14.97,-0.41 -35.68,-0.42 -58.51,0.46 -22.84,0.89 -43.48,2.49 -58.37,4.05 -14.89,1.58 -24.05,3.05 -23.99,3.75 0.06,0.73 9.32,0.56 24.25,-0.07 16.86,-0.73 36.55,-1.59 58.32,-2.53 21.75,-0.74 41.45,-1.4 58.31,-1.97 14.94,-0.53 24.19,-1.07 24.2,-1.8" /><path
         id="path252"
         style="fill:#17282f;fill-opacity:1;fill-rule:nonzero;stroke:none"
         d="m 2669.03,2679.45 c 0.37,0.06 1.57,-4.65 3.44,-13.21 2,-9.57 4.56,-21.75 7.62,-36.32 6.17,-30.69 15.05,-73.16 20.35,-120.87 5.28,-47.74 3.78,-91.52 -0.59,-122.66 -2.25,-15.57 -4.54,-28.09 -6.75,-36.6 -2.07,-8.54 -3.38,-13.21 -3.73,-13.12 -0.35,0.08 0.29,4.9 1.73,13.52 1.61,8.6 3.33,21.14 5.08,36.63 3.42,31.02 4.32,74.28 -0.92,121.68 -5.26,47.36 -13.54,89.86 -18.79,120.74 -2.66,15.44 -4.76,27.95 -5.99,36.64 -1.26,8.68 -1.8,13.51 -1.45,13.57" /><path
         id="path254"
         style="fill:#17282f;fill-opacity:1;fill-rule:nonzero;stroke:none"
         d="m 2034.53,2425.3 c 0.36,-0.05 0.1,-4.16 -0.66,-11.54 -0.75,-7.38 -2.05,-18.02 -3.78,-31.16 -3.51,-26.27 -8.81,-62.51 -16.12,-102.32 -7.3,-39.82 -15.59,-75.62 -23.55,-101 -3.9,-12.72 -7.86,-22.77 -10.83,-29.59 -3.27,-6.71 -5.23,-10.32 -5.56,-10.16 -0.78,0.38 6.23,15.17 12.86,40.78 6.99,25.46 14.67,61.19 21.96,100.91 7.29,39.71 13.16,75.81 17.6,101.93 2.14,12.19 3.95,22.52 5.42,30.91 1.37,7.28 2.3,11.29 2.66,11.24" /><path
         id="path256"
         style="fill:#17282f;fill-opacity:1;fill-rule:nonzero;stroke:none"
         d="m 2000.86,2584.67 c 0.61,0.27 4.68,-7.11 9.98,-19.66 5.29,-12.54 11.61,-30.32 16.72,-50.49 5.08,-20.17 7.97,-38.82 9.27,-52.37 1.3,-13.56 1.23,-21.99 0.56,-22.04 -1.58,-0.15 -4.69,33.25 -14.88,73.14 -9.98,39.92 -23.11,70.8 -21.65,71.42" /><path
         id="path258"
         style="fill:#ffffff;fill-opacity:1;fill-rule:nonzero;stroke:none"
         d="m 2283.9,2229.99 c -0.14,0.08 0.83,2.04 2.79,5.72 2.22,4.04 5.16,9.38 8.84,16.08 8.11,14.35 19.51,34.51 33.69,59.57 29.3,50.98 70.01,121.81 116.78,203.18 l 3.28,-3.54 c -29.51,-14.35 -61.42,-28.55 -94.81,-41.78 -40.24,-15.96 -79.85,-29.43 -116.85,-40.36 l -7.81,-2.3 5.17,6.27 c 56.49,68.57 105.28,127.78 140.29,170.28 17.26,20.66 31.12,37.23 41,49.05 4.63,5.4 8.31,9.7 11.11,12.96 2.57,2.92 3.96,4.4 4.08,4.31 0.11,-0.1 -1.06,-1.76 -3.4,-4.85 -2.65,-3.4 -6.12,-7.87 -10.49,-13.48 -9.6,-12.04 -23.09,-28.92 -39.87,-49.97 -34.66,-42.79 -82.94,-102.41 -138.86,-171.45 l -2.64,3.97 c 36.83,11.02 76.26,24.51 116.35,40.41 33.27,13.18 65.08,27.28 94.53,41.48 l 7.47,3.61 -4.19,-7.15 c -47.39,-81 -88.65,-151.51 -118.35,-202.26 -14.71,-24.75 -26.55,-44.65 -34.98,-58.82 -3.98,-6.53 -7.16,-11.73 -9.57,-15.66 -2.21,-3.54 -3.43,-5.34 -3.56,-5.27" /><path
         id="path260"
         style="fill:#0f191d;fill-opacity:1;fill-rule:nonzero;stroke:none"
         d="m 2463.46,1956.26 c -0.06,0.02 -0.13,0.03 -0.2,0.05 -0.04,0.01 -0.09,0.02 -0.13,0.04 0.11,-0.03 0.22,-0.06 0.33,-0.09 m -1.52,0.38 c -11.64,2.75 -40.69,6.63 -64.16,9.52 1.71,0.13 3.54,0.28 5.47,0.48 0.84,0.09 1.69,0.18 2.56,0.28 19.5,-2.36 38.27,-5.9 56.13,-10.28 m -75.55,10.91 c -7.83,0.93 -14.33,1.68 -18.28,2.13 0.18,0.07 0.36,0.13 0.54,0.2 7.75,-0.29 15.42,-0.79 22.98,-1.47 -2.07,-0.33 -3.83,-0.61 -5.24,-0.86" /><path
         id="path262"
         style="fill:#20353d;fill-opacity:1;fill-rule:nonzero;stroke:none"
         d="m 2464.76,1956.13 c -0.45,0 -0.88,0.04 -1.3,0.13 -0.11,0.03 -0.22,0.06 -0.33,0.09 -0.38,0.09 -0.77,0.19 -1.19,0.29 -17.86,4.38 -36.63,7.92 -56.13,10.28 12.51,1.46 29.01,4.8 46.35,10.92 18.54,6.59 34.32,15.02 45.05,22.07 5.37,3.51 9.53,6.6 12.31,8.87 -12.64,-21.04 -33.04,-52.66 -44.76,-52.65 m -73.13,12.28 c -7.56,0.68 -15.23,1.18 -22.98,1.47 2.82,1.02 5.9,2.2 9.18,3.53 17.55,7.05 40.95,19.34 63.83,37.15 20.7,16.2 37.08,33.92 48.23,48.5 -19.41,-42.58 -56.96,-76.14 -102.54,-87.33 4.42,-0.96 8.78,-1.56 13.08,-1.85 -3.34,-0.58 -6.29,-1.06 -8.8,-1.47 m 100.79,100.01 c 0.99,1.39 1.96,2.8 2.93,4.22 -0.1,-0.3 -0.21,-0.6 -0.32,-0.91 -0.83,-1.07 -1.7,-2.17 -2.61,-3.31" /><path
         id="path264"
         style="fill:#0f191d;fill-opacity:1;fill-rule:nonzero;stroke:none"
         d="m 2368.11,1969.68 c -2.65,0.3 -4.15,0.47 -4.15,0.47 53.91,18.83 95.77,51.87 128.46,98.27 0.91,1.14 1.78,2.24 2.61,3.31 -1.53,-4.3 -3.25,-8.53 -5.14,-12.67 -11.15,-14.58 -27.53,-32.3 -48.23,-48.5 -22.88,-17.81 -46.28,-30.1 -63.83,-37.15 -3.28,-1.33 -6.36,-2.51 -9.18,-3.53 -0.18,-0.07 -0.36,-0.13 -0.54,-0.2" /><path
         id="path266"
         style="fill:#0f191d;fill-opacity:1;fill-rule:nonzero;stroke:none"
         d="m 2397.78,1966.16 c -4,0.5 -7.83,0.96 -11.39,1.39 1.41,0.25 3.17,0.53 5.24,0.86 2.51,0.41 5.46,0.89 8.8,1.47 2.05,-0.14 4.09,-0.21 6.11,-0.2 36.86,0 69.89,22.18 104.21,41.16 -0.4,-0.67 -0.81,-1.36 -1.23,-2.06 -2.78,-2.27 -6.94,-5.36 -12.31,-8.87 -10.73,-7.05 -26.51,-15.48 -45.05,-22.07 -17.34,-6.12 -33.84,-9.46 -46.35,-10.92 -0.87,-0.1 -1.72,-0.19 -2.56,-0.28 -1.93,-0.2 -3.76,-0.35 -5.47,-0.48" /><path
         id="path268"
         style="fill:#17282f;fill-opacity:1;fill-rule:nonzero;stroke:none"
         d="m 2000.86,3018.39 c 0.19,0.48 6.85,-2.85 19.72,-5.69 12.57,-2.58 32.84,-4.91 53.94,5.3 10.3,5.13 20.44,13.59 27.19,25.31 6.87,11.54 9.56,26.8 4.36,41.01 -4.89,13.96 -17.07,27.16 -33.09,29.58 -15.65,2.39 -33.42,-7.58 -39.79,-23.19 -3.25,-7.76 -2.64,-16.57 0.93,-23.94 3.63,-7.33 9.8,-13.32 16.92,-17.16 7.06,-3.95 15.08,-6.02 22.82,-5.89 7.82,0.12 15.47,2.12 22.35,5.25 13.87,6.31 24.91,16.55 33.4,27.24 8.54,10.77 14.83,22.09 19.19,32.96 8.9,21.8 10.48,41.22 10.45,54.32 -0.18,13.2 -1.64,20.45 -1.14,20.53 0.17,0.03 0.63,-1.75 1.35,-5.19 0.69,-3.45 1.44,-8.6 1.82,-15.28 0.65,-13.28 -0.37,-33.17 -9.06,-55.73 -4.25,-11.26 -10.54,-23.02 -19.21,-34.28 -8.67,-11.18 -20.02,-22.04 -34.81,-28.94 -7.36,-3.41 -15.61,-5.67 -24.25,-5.85 -8.69,-0.19 -17.52,2.05 -25.38,6.39 -7.89,4.24 -14.88,10.87 -19.12,19.37 -4.17,8.48 -4.91,19.06 -1.1,28.12 7.53,18.06 27.12,28.99 45.4,26.31 18.43,-2.94 31.62,-17.75 36.85,-33.04 5.6,-15.65 2.39,-32.57 -5.17,-44.77 -7.43,-12.48 -18.31,-21.23 -29.29,-26.44 -22.54,-10.32 -43.35,-7.16 -56.03,-3.96 -6.48,1.72 -11.33,3.63 -14.53,5.09 -3.2,1.48 -4.79,2.42 -4.72,2.57" /><path
         id="path270"
         style="fill:#17282f;fill-opacity:1;fill-rule:nonzero;stroke:none"
         d="m 2784.89,3238.5 c 3.88,40.58 -9.3,83.11 -37.71,112.35 -28.4,29.24 -72.1,43.72 -111.79,34.37 -28.34,-6.68 -55.98,-17.82 -76.06,-39.67 -8.26,-9.27 -9.82,-11.03 -15.5,-22.08 -0.65,-1.26 -1.3,-2.56 -1.92,-3.87 -0.79,-1.65 -1.53,-3.3 -2.26,-4.97 l -0.36,-0.81 0.07,0.1 c -12.13,-28.26 -15.76,-60.16 -8.82,-90.1 10.56,-45.47 45.72,-84.82 90.25,-98.83 44.52,-14.02 96.75,-1.37 128.77,32.59 20.57,21.8 32.47,51.08 35.33,80.92" /><path
         id="path272"
         style="fill:#33535f;fill-opacity:1;fill-rule:nonzero;stroke:none"
         d="m 2766.95,3171.78 c -0.91,-0.18 -2.71,11.34 -9.72,28.47 -6.88,17.04 -20,39.6 -41.01,58.32 -21,18.73 -44.93,29.17 -62.64,34.04 -17.83,5 -29.47,5.47 -29.4,6.39 0.02,0.32 2.93,0.56 8.2,0.34 5.27,-0.2 12.89,-1.06 22.11,-3.16 18.37,-4.06 43.42,-14.31 65.2,-33.72 21.78,-19.41 34.83,-43.11 40.98,-60.89 3.14,-8.93 4.87,-16.4 5.68,-21.61 0.82,-5.2 0.92,-8.13 0.6,-8.18" /><path
         id="path274"
         style="fill:#33535f;fill-opacity:1;fill-rule:nonzero;stroke:none"
         d="m 2727.91,3250.76 c 0.55,-0.21 -2.19,-9.5 -9.16,-23.49 -6.96,-13.95 -18.75,-32.38 -35.54,-49.48 -16.84,-17.06 -35.09,-29.14 -48.93,-36.32 -13.88,-7.2 -23.13,-10.07 -23.34,-9.52 -0.98,1.64 35.61,15.85 68.56,49.49 33.11,33.45 46.75,70.27 48.41,69.32" /><path
         id="path276"
         style="fill:#f2575d;fill-opacity:1;fill-rule:nonzero;stroke:none"
         d="m 2619.99,3293.71 c -1.55,0.88 10.45,20.17 20.42,45.63 10.26,25.58 8.97,48.27 10.49,48.32 0.62,0.06 1.92,-5.57 1.74,-14.86 -0.13,-9.26 -2.34,-22.09 -7.35,-35.3 -10.36,-26.36 -24.41,-44.39 -25.3,-43.79" /><path
         id="path278"
         style="fill:#f8a58d;fill-opacity:1;fill-rule:nonzero;stroke:none"
         d="m 2445.86,2804.6 c 0,0 -0.1,-1.64 0,0" /><path
         id="path280"
         style="fill:#f8a58d;fill-opacity:1;fill-rule:nonzero;stroke:none"
         d="m 2621.5,3328.57 c 4.73,116.85 -82.02,222.09 -200.44,233.93 -125.66,12.57 -234.88,-79.31 -242.98,-201.62 l -20.16,-493.62 c -0.39,-9.55 2.49,-18.92 8.04,-26.71 29.74,-41.76 82.81,-73.89 129.76,-79.51 45.48,-5.45 91.27,7.19 129.43,29.36 12.92,7.51 20.66,21.55 20.65,36.49 l -0.05,110.42 0.75,0.73 c 6.83,-0.37 24.26,-0.31 30.91,1.44 29.08,7.67 102.94,37.67 125.85,147.33 7.6,36.38 14.09,139.33 18.24,241.76" /><path
         id="path282"
         style="fill:#17282f;fill-opacity:1;fill-rule:nonzero;stroke:none"
         d="m 2462.38,3164.33 c -0.03,1.1 12.17,2.54 31.91,4 5,0.26 9.75,0.99 10.74,4.28 1.33,3.48 -0.51,8.86 -2.66,14.67 -4.14,12.07 -8.46,24.72 -13.01,37.98 -18.01,54.06 -30.81,98.4 -28.6,99.08 2.22,0.69 18.62,-42.58 36.62,-96.64 4.32,-13.32 8.46,-26.02 12.39,-38.17 1.63,-5.66 4.58,-12.12 1.71,-19.33 -1.51,-3.58 -5.29,-6.05 -8.51,-6.73 -3.24,-0.8 -6.03,-0.7 -8.51,-0.72 -19.79,-0.05 -32.05,0.49 -32.08,1.58" /><path
         id="path284"
         style="fill:#17282f;fill-opacity:1;fill-rule:nonzero;stroke:none"
         d="m 2573.99,3254.95 c -0.09,-9.41 -8.28,-17.05 -18.28,-17.07 -9.99,-0.02 -18.02,7.58 -17.93,17 0.09,9.41 8.28,17.06 18.26,17.08 10,0.02 18.03,-7.6 17.95,-17.01" /><path
         id="path286"
         style="fill:#17282f;fill-opacity:1;fill-rule:nonzero;stroke:none"
         d="m 2591.98,3309.29 c -1.78,-1.96 -16.28,-1.02 -34.75,-7.28 -18.49,-6.1 -30.56,-15.92 -32.91,-15.34 -1.14,0.22 0.39,3.18 5.62,7.54 5.15,4.33 14.41,9.97 25.93,13.81 11.51,3.86 21.86,4.78 28.09,4.25 6.35,-0.49 8.91,-2.08 8.02,-2.98" /><path
         id="path288"
         style="fill:#17282f;fill-opacity:1;fill-rule:nonzero;stroke:none"
         d="m 2386.39,3267.24 c -0.09,-9.42 -8.27,-17.05 -18.27,-17.07 -9.99,-0.02 -18.03,7.58 -17.93,16.99 0.09,9.43 8.27,17.07 18.26,17.09 10,0.02 18.04,-7.59 17.94,-17.01" /><path
         id="path290"
         style="fill:#17282f;fill-opacity:1;fill-rule:nonzero;stroke:none"
         d="m 2392.76,3293.28 c -2.84,-0.13 -13.46,11.35 -32.46,20.42 -18.9,9.19 -35.58,10.86 -36.99,13.04 -0.72,1.01 2.65,2.08 9.97,1.43 7.21,-0.6 18.6,-3.29 30.42,-8.98 11.82,-5.7 20.55,-12.7 25.02,-17.72 4.57,-5.09 5.39,-8.18 4.04,-8.19" /><path
         id="path292"
         style="fill:#f68260;fill-opacity:1;fill-rule:nonzero;stroke:none"
         d="m 2445.75,2938.08 c 0,0 -75.49,-2.24 -167.05,58.14 0,0 25.23,-99.26 167.11,-93.45 l -0.06,35.31" /><path
         id="path294"
         style="fill:#f68260;fill-opacity:1;fill-rule:nonzero;stroke:none"
         d="m 2452.04,3118.6 c -6.59,9.46 -18.64,15.08 -30.89,14.42 -8.48,-0.47 -17.21,-4.04 -22.66,-10.55 -5.44,-6.51 -6.95,-16.06 -2.59,-22.75 4.93,-7.53 15.84,-9.77 25.26,-7.65 9.42,2.13 17.69,7.74 25.56,13.35 2.18,1.55 4.4,3.17 5.83,5.38 1.42,2.21 1.83,5.16 0.29,7.13" /><path
         id="path296"
         style="fill:#17282f;fill-opacity:1;fill-rule:nonzero;stroke:none"
         d="m 2404.45,3154 c 3.18,0.02 2.26,-20.77 19.69,-36.44 17.4,-15.73 40.04,-14.54 40.08,-17.45 0.23,-1.32 -5.2,-3.78 -14.74,-3.55 -9.34,0.16 -22.84,3.8 -33.5,13.38 -10.63,9.62 -14.83,21.93 -15.16,30.49 -0.41,8.74 2.19,13.77 3.63,13.57" /><path
         id="path298"
         style="fill:#17282f;fill-opacity:1;fill-rule:nonzero;stroke:none"
         d="m 2405.92,3370.6 c -2.76,-4.81 -21.54,0.97 -44.54,2.2 -22.99,1.71 -42.26,-1.62 -44.47,3.5 -0.97,2.44 3.01,6.72 11.21,10.43 8.11,3.7 20.54,6.4 34.33,5.53 13.78,-0.9 25.82,-5.16 33.48,-9.88 7.72,-4.72 11.21,-9.48 9.99,-11.78" /><path
         id="path300"
         style="fill:#17282f;fill-opacity:1;fill-rule:nonzero;stroke:none"
         d="m 2591.61,3367.62 c -3.63,-4.18 -16.84,1.02 -32.98,2.05 -16.09,1.59 -29.93,-1.4 -32.87,3.3 -1.28,2.28 1.08,6.53 7.23,10.34 6.07,3.81 16.06,6.66 27.15,5.77 11.07,-0.91 20.5,-5.34 25.91,-10.08 5.49,-4.76 7.16,-9.34 5.56,-11.38" /><path
         id="path302"
         style="fill:#17282f;fill-opacity:1;fill-rule:nonzero;stroke:none"
         d="m 2437.92,3587.5 c -10.51,17.13 -29.6,24.69 -50.82,27.5 -86.6,11.46 -182.05,-42.36 -229.07,-115.98 -47.02,-73.62 -47.58,-182.15 -10.66,-261.32 l 32.5,-5.07 c 67.4,5.31 177.38,195.41 270.03,301.03 11.52,13.12 -2.85,38.95 -11.98,53.84" /><path
         id="path304"
         style="fill:#17282f;fill-opacity:1;fill-rule:nonzero;stroke:none"
         d="m 2604.33,3533.94 c -36.9,40.41 -96.54,89.44 -171,59.48 -10.65,-21.21 12.12,-48.04 30.99,-63.62 27.64,-22.82 51.71,-38.12 69.87,-54.48 36.73,-33.07 82.48,-88.07 87.18,-149.9 0.29,-3.88 3.27,-4.39 7.16,-3.72 5.04,0.87 16.19,26.37 21.51,60.1 11.35,71.93 -8.82,111.73 -45.71,152.14" /><path
         id="path306"
         style="fill:#17282f;fill-opacity:1;fill-rule:nonzero;stroke:none"
         d="m 2185.15,3345.64 c -3.83,16.4 -11.78,31.91 -22.74,44.86 v 0 c -7.21,8.53 -15.7,15.98 -25.25,21.76 -34.87,21.11 -80.91,20.79 -116.94,1.72 -36.02,-19.07 -61.67,-55.48 -70.47,-95.28 -6.47,-29.26 -4.16,-60.79 8.69,-87.87 20.01,-42.17 65.8,-70.28 112.48,-70.66 46.68,-0.38 92.25,26.23 116.3,66.24 16.96,28.23 12.52,78.05 -2.07,119.23" /><path
         id="path308"
         style="fill:#f8a58d;fill-opacity:1;fill-rule:nonzero;stroke:none"
         d="m 2200.6,3272.41 c -2.02,1.06 -82.4,31.13 -85.9,-52.88 -3.49,-84.01 81.57,-70.2 81.82,-67.79 0.24,2.4 4.08,120.67 4.08,120.67" /><path
         id="path310"
         style="fill:#f68260;fill-opacity:1;fill-rule:nonzero;stroke:none"
         d="m 2172.18,3184.63 c -0.36,0.28 -1.51,-0.96 -4.03,-1.99 -2.45,-1 -6.63,-1.59 -10.95,0.23 -8.74,3.63 -15.62,18.02 -15.4,33.19 0.11,7.65 2.02,14.87 4.97,20.78 2.82,6.04 6.98,10.16 11.48,10.77 4.49,0.85 7.54,-1.96 8.47,-4.36 1.03,-2.4 0.42,-4.06 0.86,-4.22 0.22,-0.22 1.87,1.33 1.33,4.83 -0.28,1.68 -1.18,3.71 -3.08,5.4 -1.96,1.73 -4.89,2.69 -8.01,2.47 -6.49,-0.17 -12.58,-5.89 -15.83,-12.38 -3.61,-6.51 -5.93,-14.61 -6.05,-23.21 -0.17,-16.94 7.84,-33.15 19.84,-37.16 5.84,-1.79 10.85,-0.21 13.47,1.66 2.7,1.97 3.21,3.83 2.93,3.99" /><path
         id="path312"
         style="fill:#33535f;fill-opacity:1;fill-rule:nonzero;stroke:none"
         d="m 2621.6,3517.11 c 0.07,-0.64 -9.23,-2.31 -24.47,-3.22 -15.22,-0.93 -36.41,-0.78 -59.57,2 -23.16,2.82 -43.77,7.72 -58.34,12.24 -14.58,4.51 -23.22,8.35 -23.01,8.96 0.26,0.75 9.29,-1.84 23.99,-5.41 14.68,-3.57 35.12,-7.84 57.99,-10.62 22.86,-2.74 43.72,-3.47 58.83,-3.49 15.12,-0.03 24.52,0.33 24.58,-0.46" /><path
         id="path314"
         style="fill:#33535f;fill-opacity:1;fill-rule:nonzero;stroke:none"
         d="m 2649.91,3456.87 c 0.14,-0.59 -6.71,-2.95 -18.28,-4.33 -11.54,-1.41 -27.88,-1.35 -45.33,2.43 -17.46,3.84 -32.32,10.6 -42.23,16.7 -9.95,6.08 -15.18,11.08 -14.81,11.56 0.86,1.45 24.07,-15.97 58.14,-23.17 33.97,-7.66 62.34,-1.51 62.51,-3.19" /><path
         id="path316"
         style="fill:#33535f;fill-opacity:1;fill-rule:nonzero;stroke:none"
         d="m 2147.36,3470.36 c 0.14,1.06 18.2,-2.17 47.53,-1.36 14.66,0.07 32.04,2.26 51.15,5.23 19.04,3.6 39.74,8.72 60.96,15.8 21.18,7.24 40.73,15.79 58.15,24.31 17.21,8.91 32.49,17.45 44.66,25.68 24.58,16.07 38.3,28.16 38.93,27.41 0.24,-0.26 -3.04,-3.44 -9.22,-8.96 -3.02,-2.83 -6.91,-6.07 -11.6,-9.62 -4.63,-3.63 -9.88,-7.79 -16.06,-11.89 -12.01,-8.69 -27.25,-17.65 -44.53,-26.89 -17.49,-8.85 -37.23,-17.64 -58.66,-24.98 -21.48,-7.16 -42.5,-12.21 -61.82,-15.58 -19.43,-2.77 -37.05,-4.6 -51.91,-4.19 -7.42,-0.21 -14.12,0.31 -19.99,0.78 -5.88,0.32 -10.91,0.89 -15,1.68 -8.18,1.33 -12.65,2.22 -12.59,2.58" /><path
         id="path318"
         style="fill:#33535f;fill-opacity:1;fill-rule:nonzero;stroke:none"
         d="m 2443.15,3538 c 0.3,-0.18 -2.09,-4.33 -6.7,-11.68 -2.27,-3.69 -5.13,-8.17 -8.86,-13.07 -3.71,-4.92 -7.63,-10.79 -12.76,-16.61 -9.78,-12.07 -22.46,-25.62 -37.77,-39.35 -15.47,-13.54 -33.52,-27.3 -53.92,-39.49 -20.52,-12.02 -41.26,-21.27 -60.61,-28.24 -19.46,-6.68 -37.49,-11.17 -52.83,-13.65 -7.61,-1.61 -14.65,-2.05 -20.76,-2.82 -6.12,-0.8 -11.42,-1.02 -15.76,-1.11 -8.67,-0.28 -13.46,-0.26 -13.47,0.1 -0.06,1.08 19.14,1.5 49.32,7.44 15.08,2.93 32.78,7.72 51.88,14.56 18.99,7.12 39.36,16.36 59.57,28.2 20.1,12.01 37.98,25.45 53.41,38.61 15.28,13.36 28.09,26.48 38.12,38.13 20.12,23.27 30.27,39.57 31.14,38.98" /><path
         id="path320"
         style="fill:#33535f;fill-opacity:1;fill-rule:nonzero;stroke:none"
         d="m 2387.1,3614.99 c -0.03,0.55 6.56,1.45 16.86,-1.15 10.16,-2.63 23.7,-9.55 34.52,-21.74 2.64,-3.08 5.08,-6.24 7.01,-9.64 2.04,-3.43 3.13,-7.24 4.14,-10.29 2.14,-6.42 3.96,-12.43 4.75,-17.67 1.7,-10.57 -0.71,-17.06 -1.24,-16.86 -0.86,0.11 0.12,6.46 -2.38,16.14 -1.19,4.84 -3.26,10.45 -5.66,16.8 -1.24,3.34 -2.21,6.4 -4.02,9.32 -1.77,2.99 -4.06,5.89 -6.51,8.74 -10.08,11.36 -22.38,18.32 -31.72,21.7 -9.42,3.32 -15.8,3.78 -15.75,4.65" /><path
         id="path322"
         style="fill:#f2575d;fill-opacity:1;fill-rule:nonzero;stroke:none"
         d="m 2165.38,3279.72 c -0.85,0.27 1.7,8.68 3.46,22.54 1.78,13.82 2.19,33.37 -3.11,53.9 -5.37,20.54 -15.92,37.01 -25.4,47.11 -9.49,10.17 -16.95,14.91 -16.4,15.72 0.19,0.3 2.17,-0.67 5.61,-2.73 3.51,-1.94 8.15,-5.51 13.42,-10.41 10.52,-9.79 22.22,-26.9 27.81,-48.37 5.53,-21.45 4.47,-41.77 1.71,-55.78 -2.76,-14.1 -6.59,-22.17 -7.1,-21.98" /><path
         id="path324"
         style="fill:#33535f;fill-opacity:1;fill-rule:nonzero;stroke:none"
         d="m 2171.65,3298.24 c -0.5,-0.74 -10.81,5.92 -28.48,14.65 -17.63,8.75 -42.98,18.96 -72.27,25.54 -29.33,6.5 -56.62,8.03 -76.3,7.6 -19.7,-0.39 -31.87,-2.04 -32,-1.16 -0.05,0.35 2.94,1.09 8.42,2.11 5.47,1.08 13.48,2.06 23.43,2.73 19.88,1.38 47.73,0.42 77.58,-6.2 29.81,-6.69 55.43,-17.65 72.84,-27.35 8.72,-4.84 15.57,-9.12 20.05,-12.44 4.53,-3.25 6.93,-5.18 6.73,-5.48" /><path
         id="path326"
         style="fill:#33535f;fill-opacity:1;fill-rule:nonzero;stroke:none"
         d="m 2095.17,3331.59 c 0.58,-0.14 -1.07,-9.77 -6.28,-24.63 -5.17,-14.85 -14.42,-34.78 -28.15,-54.6 -13.79,-19.79 -29.23,-35.4 -41.34,-45.43 -12.12,-10.08 -20.57,-14.98 -20.9,-14.48 -1.16,1.32 31.07,23.73 57.97,62.89 27.3,38.85 37.06,76.87 38.7,76.25" /><path
         id="path328"
         style="fill:#33535f;fill-opacity:1;fill-rule:nonzero;stroke:none"
         d="m 2150.49,3168.45 c 0.62,1.62 3.63,2.54 8.63,1.24 4.91,-1.29 11.88,-5 17.6,-13.11 5.78,-7.91 9.04,-21.54 4.23,-34.81 -2.31,-6.61 -6.72,-13.33 -13.41,-18.24 -6.61,-4.84 -14.72,-7.48 -23.01,-7.69 -8.23,-0.27 -16.68,2.16 -23.23,6.49 -6.58,4.26 -11.42,10 -14.6,16.05 -3.18,6.23 -4.79,12.17 -4.78,19.01 0.15,6.33 1.71,11.29 3.63,15.66 3.89,8.66 10.07,14.42 15.39,16.31 5.34,1.96 8.54,0.62 8.93,-0.98 0.61,-3.6 -5.7,-8.43 -6.72,-20.74 -0.3,-2.92 -0.32,-6.33 0.32,-9.01 0.53,-2.13 2,-5.6 3.91,-8.09 4.06,-5.43 9.78,-8.94 16.51,-8.67 7.04,0.31 11.9,3.42 14.85,8.97 2.96,5.65 3.3,11.77 1.7,17.15 -3.28,11.15 -11.42,17.08 -9.95,20.46" /><path
         id="path330"
         style="fill:#17282f;fill-opacity:1;fill-rule:nonzero;stroke:none"
         d="m 2235.61,3301.36 c -0.12,1.23 20.18,-0.67 50.58,8.88 30.22,9.14 69.47,32.23 99.87,70.08 30.38,37.95 46.54,79.81 56.06,110.06 4.77,15.22 8.03,27.74 10.23,36.41 2.19,8.67 3.44,13.47 3.81,13.39 0.34,-0.06 -0.24,-4.99 -1.84,-13.83 -1.58,-8.83 -4.32,-21.55 -8.67,-37.03 -8.69,-30.74 -24.51,-73.49 -55.53,-112.26 -31.1,-38.75 -71.73,-61.94 -102.86,-70.35 -15.59,-4.37 -28.68,-5.91 -37.7,-6.03 -4.49,-0.3 -8.01,0.13 -10.36,0.19 -2.37,0.14 -3.6,0.31 -3.59,0.49" /><path
         id="path332"
         style="fill:#17282f;fill-opacity:1;fill-rule:nonzero;stroke:none"
         d="m 2443.01,2863.98 c 0.06,0.12 1.87,-0.62 5.03,-2.58 3.14,-1.98 7.5,-5.48 11.91,-11.07 4.42,-5.56 8.62,-13.44 11.03,-23.3 2.47,-9.79 2.75,-21.83 -0.91,-34.14 -6.93,-24.82 -29.87,-49.16 -61.29,-61.23 -15.58,-6.26 -32.86,-10.08 -50.8,-12.39 -17.95,-2.31 -36.76,-3.34 -55.98,-2.26 -38.4,2.06 -74.79,13.36 -102.52,32.33 -27.95,18.63 -46.86,43.84 -56.17,67.35 -4.71,11.76 -7.07,23.28 -6.76,33.46 0.21,10.19 3.2,18.75 6.81,24.87 3.6,6.19 7.79,10.01 10.8,12.18 3.05,2.17 4.9,2.85 4.96,2.74 0.49,-0.48 -7.4,-3.7 -13.99,-15.91 -3.19,-6.02 -5.74,-14.21 -5.67,-23.92 -0.02,-9.7 2.48,-20.7 7.26,-32.02 9.48,-22.66 28.1,-46.85 55.43,-64.76 27.09,-18.21 62.48,-29.08 100.16,-31.12 18.83,-1.06 37.33,-0.09 55.03,2.11 17.67,2.22 34.54,5.86 49.67,11.8 30.43,11.43 52.49,34.41 59.53,57.84 7.46,23.6 -0.42,44.37 -8.21,55.16 -8.14,11.19 -15.76,14.32 -15.32,14.86" /><path
         id="path334"
         style="fill:#17282f;fill-opacity:1;fill-rule:nonzero;stroke:none"
         d="m 2222.97,2734.32 c -1.36,-0.01 -1.63,11.6 4.88,23.91 6.43,12.37 16.12,18.75 16.89,17.63 1,-1.15 -6.43,-8.71 -12.27,-20.05 -5.99,-11.25 -7.99,-21.67 -9.5,-21.49" /><path
         id="path336"
         style="fill:#17282f;fill-opacity:1;fill-rule:nonzero;stroke:none"
         d="m 2316.83,2716.56 c -1.44,0.05 -2.24,9.44 -1.79,20.97 0.45,11.52 1.98,20.82 3.42,20.76 1.43,-0.06 2.24,-9.44 1.79,-20.97 -0.45,-11.52 -1.99,-20.82 -3.42,-20.76" /><path
         id="path338"
         style="fill:#17282f;fill-opacity:1;fill-rule:nonzero;stroke:none"
         d="m 2411.01,2730.49 c -1.41,-0.29 -4.69,9.87 -7.32,22.69 -2.63,12.81 -3.62,23.44 -2.21,23.73 1.4,0.29 4.67,-9.87 7.31,-22.69 2.64,-12.82 3.62,-23.44 2.22,-23.73" /><path
         id="path340"
         style="fill:#17282f;fill-opacity:1;fill-rule:nonzero;stroke:none"
         d="m 2466.03,2790.44 c -1.32,-0.7 -5.26,4.54 -11.73,8.74 -6.39,4.35 -12.74,5.94 -12.6,7.43 -0.05,1.4 7.8,2.05 15.48,-3.09 7.71,-5.09 10.15,-12.59 8.85,-13.08" /><path
         id="path342"
         style="fill:#17282f;fill-opacity:1;fill-rule:nonzero;stroke:none"
         d="m 2173.25,2827.79 c 0.22,-1.47 -5.3,-3.4 -10.62,-7.72 -5.42,-4.21 -8.54,-9.15 -9.92,-8.6 -1.35,0.35 0.06,7.44 6.69,12.67 6.58,5.27 13.8,5.05 13.85,3.65" /><path
         id="path344"
         style="fill:#17282f;fill-opacity:1;fill-rule:nonzero;stroke:none"
         d="m 2337.74,2158.66 c -14.8,0.48 -24.55,15.78 -18.56,29.31 26.97,60.78 100.65,177.8 105.53,185.32 6.92,10.67 10.64,23.71 33.03,26.41 8.64,1.04 143.67,4.13 175.32,4.84 5.17,0.12 10.32,-1.58 14.06,-5.17 6.3,-6.03 12.82,-17.43 2.88,-35.29 -11.23,-20.17 -92.8,-146.71 -125.96,-195.55 -6.56,-9.67 -17.62,-15.27 -29.3,-14.9 l -157,5.03" /><path
         id="path346"
         style="fill:#ffffff;fill-opacity:1;fill-rule:nonzero;stroke:none"
         d="m 2546.04,2360.87 c -2,3.71 -8.53,4.11 -10.78,2.95 -3.81,-1.01 -6.59,-3.41 -9.49,-6.08 -2.9,-2.66 -4.28,-7.43 -1.97,-10.62 1.97,-2.71 5.77,-3.33 9.11,-3.04 4.2,0.37 8.44,1.94 11.25,5.08 2.81,3.13 3.88,8.01 1.88,11.71" /><path
         id="path348"
         style="fill:#33535f;fill-opacity:1;fill-rule:nonzero;stroke:none"
         d="m 2615.49,2333.34 c -0.31,0.17 1.57,4.32 5.25,11.67 2.03,3.95 4.29,8.38 6.82,13.33 1.37,2.63 2.81,5.4 4.33,8.29 1.51,3.07 3.49,5.83 3.4,8.9 0.08,3.09 -1.41,6.4 -4.12,8.4 -2.79,2.22 -6.03,2.17 -10.61,1.84 -8.7,-0.35 -17.91,-0.73 -27.56,-1.12 -19.52,-0.7 -40.8,-1.45 -63.13,-2.24 -22.35,-0.64 -43.64,-1.26 -63.18,-1.83 -2.36,-0.06 -4.71,-0.13 -7.02,-0.2 -1.9,-0.18 -3.73,-0.9 -5.2,-2.07 -2.65,-2.12 -4.8,-6.93 -7.2,-10.28 -4.61,-7.2 -8.94,-13.96 -12.95,-20.24 -7.6,-11.61 -13.99,-21.36 -19.06,-29.12 -4.6,-6.81 -7.29,-10.48 -7.6,-10.3 -0.3,0.19 1.8,4.23 5.88,11.37 4.69,7.99 10.61,18.04 17.64,29.99 3.86,6.39 8,13.26 12.42,20.58 1.12,1.85 2.26,3.73 3.41,5.62 1.07,1.75 2.38,4.25 4.6,5.96 2.11,1.73 4.78,2.86 7.58,3.17 2.42,0.1 4.87,0.21 7.35,0.32 19.54,0.69 40.82,1.44 63.16,2.23 22.33,0.65 43.61,1.26 63.15,1.83 9.65,0.23 18.86,0.45 27.57,0.65 3.9,0.27 9.65,0.26 13.22,-2.99 3.7,-2.91 5.57,-7.47 5.33,-11.7 -0.13,-2.11 -0.67,-4.15 -1.64,-5.89 -0.86,-1.52 -1.71,-3.01 -2.54,-4.48 -1.63,-2.82 -3.2,-5.52 -4.68,-8.09 -2.82,-4.79 -5.34,-9.08 -7.59,-12.9 -4.23,-7.06 -6.72,-10.87 -7.03,-10.7" /><path
         id="path350"
         style="fill:#f8a58d;fill-opacity:1;fill-rule:nonzero;stroke:none"
         d="m 2841.52,2348.56 c 0,0 -13.71,-95.26 -27.75,-156.43 -12.52,-54.51 -32.34,-238.66 -83.01,-261.88 -50.65,-23.22 -113.66,-8.72 -137.01,36.14 -23.36,44.87 -48.29,164.47 -48.29,164.47 l -105.95,44.61 c 0,0 -24.39,88.84 -10.52,98.85 13.86,10.01 150.65,-5.01 150.65,-5.01 l 36.7,8.34 c 0,0 -58.35,8.35 -70.88,11.68 -12.53,3.34 -20.77,13.35 -17.82,25.02 2.96,11.68 5.29,23.36 36.98,23.36 31.7,0 81.16,4.74 90.08,1.67 11.15,-3.84 23.79,-10.32 26.28,-38.37 2.43,-27.45 -10.79,-80.18 -10.79,-80.18 l 2.88,-4.43 18.68,137.81 149.77,-5.65" /><path
         id="path352"
         style="fill:#f68260;fill-opacity:1;fill-rule:nonzero;stroke:none"
         d="m 2663.49,2184.12 c 0.11,-0.34 -2.95,-1.54 -8.59,-3.42 -5.6,-1.96 -13.9,-4.23 -24.28,-6.55 -20.73,-4.62 -50.2,-8.43 -82.74,-6.34 -32.55,2.17 -61.29,9.97 -81.08,17.68 -9.92,3.85 -17.77,7.39 -22.99,10.24 -5.26,2.77 -8.08,4.45 -7.92,4.78 0.39,0.82 12.23,-4.82 32.15,-11.55 19.88,-6.75 48.21,-13.82 80.18,-15.95 31.98,-2.05 61,1.1 81.69,4.76 20.72,3.66 33.33,7.2 33.58,6.35" /><path
         id="path354"
         style="fill:#f68260;fill-opacity:1;fill-rule:nonzero;stroke:none"
         d="m 2643.41,2222.34 c 0.07,-0.34 -2.98,-1.34 -8.6,-2.75 -5.62,-1.4 -13.82,-3.15 -24.05,-4.83 -20.41,-3.34 -49.24,-6.22 -80.95,-2.99 -31.72,3.21 -59.47,12.74 -77.84,22.54 -9.21,4.85 -16.27,9.49 -20.9,13.01 -4.64,3.51 -6.98,5.72 -6.78,5.99 0.54,0.75 10.77,-7.02 29.32,-15.7 18.44,-8.77 45.66,-17.5 76.73,-20.65 31.09,-3.18 59.53,-0.93 79.92,1.45 20.42,2.42 32.99,4.72 33.15,3.93" /><path
         id="path356"
         style="fill:#f68260;fill-opacity:1;fill-rule:nonzero;stroke:none"
         d="m 2676.44,2320.62 c 0.61,0.17 2.53,-4.66 2.09,-12.82 -0.32,-4.03 -0.93,-9.01 -3.95,-14.07 -1.38,-2.53 -4.31,-4.89 -6.79,-6.19 -2.6,-1.5 -5.43,-2.72 -8.38,-3.71 -11.75,-3.75 -22.75,-4.75 -30.52,-5.2 -7.73,-0.44 -12.25,-1.62 -12.55,-0.98 -0.34,0.66 4.21,3.23 12.06,4.62 7.72,1.39 18.31,2.98 29.34,6.49 5.3,1.95 10.59,4.06 12.82,7.59 2.55,3.75 3.61,8.24 4.31,11.88 1.31,7.44 0.79,12.26 1.57,12.39" /><path
         id="path358"
         style="fill:#f68260;fill-opacity:1;fill-rule:nonzero;stroke:none"
         d="m 2626.12,2160.44 c 0.43,0.31 3.55,-6.58 0.09,-17.33 -1.76,-5.22 -5.16,-11.13 -10.72,-16.03 -5.55,-4.94 -13.13,-8.46 -21.43,-9.89 -8.32,-1.41 -16.4,-0.77 -23.4,1.05 -7,1.87 -12.74,4.71 -17.43,7.1 -9.27,4.98 -14.96,7.82 -14.77,8.47 0.22,0.73 6.68,-1.01 16.32,-5.12 9.52,-4.07 23.14,-9.14 38.4,-6.37 7.47,1.29 14.21,4.3 19.2,8.41 5.03,4.11 8.39,9.16 10.39,13.69 3.98,9.26 2.44,15.95 3.35,16.02" /><path
         id="path360"
         style="fill:#f68260;fill-opacity:1;fill-rule:nonzero;stroke:none"
         d="m 2670.19,2330.21 c 0.09,0.12 0.73,-0.25 1.94,-1.11 1.16,-0.89 2.69,-2.51 4.19,-4.92 2.98,-4.86 5.22,-12.94 5.96,-23.09 1.46,-20.38 -1.97,-48.84 -9.67,-80.9 l -0.07,1.48 c 4.75,-12.8 11.24,-26.18 18.97,-39.48 10.85,-18.65 22.81,-35.48 34.39,-50.2 11.47,-14.62 23.65,-27.14 29.65,-40.69 6.25,-13.45 5.69,-26.22 2.9,-33.88 -1.36,-3.88 -3.1,-6.6 -4.43,-8.26 -1.38,-1.65 -2.24,-2.36 -2.36,-2.25 -0.44,0.29 2.81,3.59 4.85,11.1 2.05,7.36 1.98,19.31 -4.28,31.69 -6.05,12.6 -18.13,24.55 -30.08,39.3 -11.9,14.71 -24.13,31.64 -35.15,50.58 -7.85,13.5 -14.41,27.19 -19.16,40.4 l -0.26,0.72 0.2,0.76 c 7.9,31.51 11.94,59.65 11.35,79.46 -0.29,9.9 -1.96,17.67 -4.29,22.45 -2.36,4.8 -4.93,6.52 -4.65,6.84" /><path
         id="path362"
         style="fill:#f8a58d;fill-opacity:1;fill-rule:nonzero;stroke:none"
         d="m 1734.38,2152.3 c 0,0 -15.47,-212.57 83.36,-248.21 136.33,-49.16 291.76,86.67 292.35,88.86 0.59,2.19 165.39,134.91 165.39,134.91 l -51.34,141.29 c 0,0 -20.53,0 -53.9,-23.78 -12.07,-8.59 -203.1,-109.31 -203.1,-109.31 0,0 -83.35,0.7 -232.76,16.24" /><path
         id="path364"
         style="fill:#f68260;fill-opacity:1;fill-rule:nonzero;stroke:none"
         d="m 1974.08,2139.22 c 0.67,-1.6 -35.31,-16.2 -78.78,-35.67 -21.69,-9.84 -40.84,-19.72 -54.52,-27.23 -13.67,-7.53 -22,-12.48 -22.44,-11.82 -0.36,0.54 7.27,6.59 20.57,14.99 13.3,8.38 32.39,18.89 54.23,28.79 21.82,9.95 42.05,17.75 56.74,23.18 14.71,5.41 23.93,8.43 24.2,7.76" /><path
         id="path366"
         style="fill:#f8a58d;fill-opacity:1;fill-rule:nonzero;stroke:none"
         d="m 2406.9,2346.13 c 0,0 -25.79,36.56 -36.04,36.44 -10.24,-0.12 -71.66,-10.18 -71.66,-10.18 l -86.89,-94.26 c 0,0 -5.98,-30.73 12.8,-41.83 0,0 -6.32,-48.31 16.9,-62.15 0,0 17.25,-45.43 33.47,-46.29 16.22,-0.85 20.64,0 20.64,0 0,0 -3.56,-27.32 21.2,-29.02 18.03,-1.24 54.48,4.25 72.94,7.32 7.18,1.2 13.55,5.21 17.77,11.15 l 21.27,29.94 c 6.78,9.54 6.74,22.34 -0.09,31.84 0,0 10.2,12.2 12.75,22.32 2.57,10.13 0,28.54 0,28.54 0,0 36.72,31.06 37.57,39.2 0.86,8.13 -0.85,15.89 -17.07,15 0,0 -3.42,25.13 -23.9,24.5 -20.5,-0.64 -117.55,0 -117.55,0 l 18.44,18 c 0,0 48.32,-18.39 53.4,-6.17 l 14.05,25.65" /><path
         id="path368"
         style="fill:#f68260;fill-opacity:1;fill-rule:nonzero;stroke:none"
         d="m 2267.52,2237.37 c 0.01,0.38 5.6,0.57 15.74,1.1 10.15,0.53 24.87,1.43 43.05,3.58 18.18,2.13 39.83,5.65 63.65,11.3 11.9,2.86 24.34,6.26 37.12,10.3 12.37,3.44 23.14,13.03 33.59,22.36 l 0.64,0.57 0.7,0.11 c 4.22,0.65 9.14,1.31 14.14,-1.36 2.47,-1.38 4.26,-3.98 5,-6.49 0.8,-2.52 0.93,-5 0.96,-7.27 -0.05,-1.2 0.17,-1.57 -0.12,-3.31 -0.29,-1.88 -0.95,-2.53 -1.47,-3.69 -1.17,-1.83 -2.42,-3.45 -3.71,-5 -2.58,-3.07 -5.3,-5.87 -8.02,-8.62 -5.48,-5.46 -11.03,-10.58 -16.65,-15.51 l -0.07,-0.07 -0.09,-0.06 c -21.01,-15.66 -40.4,-31.29 -59.86,-42.58 -19.39,-11.55 -39.02,-17.36 -55.47,-19.75 -16.55,-2.37 -30.09,-1.06 -38.99,0.96 -4.47,0.96 -7.86,2.02 -10.09,2.88 -2.23,0.86 -3.36,1.37 -3.31,1.52 0.05,1.15 19.36,-7.56 51.87,-2.08 16.02,2.79 34.97,8.79 53.72,20.31 18.92,11.32 37.98,26.95 59.09,42.84 l -0.16,-0.13 c 5.48,4.86 11.01,9.98 16.34,15.33 2.65,2.69 5.3,5.43 7.7,8.3 1.2,1.44 2.31,2.9 3.25,4.36 l 0.77,1.67 0.07,2.55 c 0.02,4.26 -0.78,7.96 -3.41,9.37 -2.69,1.54 -6.84,1.41 -10.59,0.74 l 1.34,0.67 c -5.4,-5.02 -10.9,-9.59 -16.71,-13.75 -5.66,-4.08 -12.26,-7.96 -18.97,-9.62 -12.94,-3.99 -25.52,-7.31 -37.56,-10.04 -24.09,-5.42 -45.98,-8.59 -64.33,-10.27 -18.36,-1.71 -33.18,-2.07 -43.38,-2.01 -5.1,-0.01 -9.04,0.17 -11.71,0.32 -2.67,0.14 -4.07,0.3 -4.07,0.47" /><path
         id="path370"
         style="fill:#f68260;fill-opacity:1;fill-rule:nonzero;stroke:none"
         d="m 2441.96,2229.95 c 0.5,0.04 1.6,-5.49 2.1,-15.22 0.12,-2.43 0.18,-5.12 0.1,-8.07 -0.04,-1.47 -0.11,-3.01 -0.26,-4.61 -0.07,-1.66 -0.83,-3.78 -1.51,-5.19 -1.4,-3.19 -3.13,-6.31 -5.01,-9.56 -0.97,-1.62 -1.96,-3.27 -2.95,-4.94 l -1.61,-2.53 c -0.36,-0.54 -0.34,-0.61 -1.08,-1.58 l -0.71,-0.59 c -0.44,0.03 0.14,-0.72 -2.4,0.2 -1.41,1.14 -0.94,2.59 -0.85,2.78 l 0.24,0.52 0.11,0.18 0.42,0.69 4.05,-2.42 c -5.86,-10.7 -14.41,-21.79 -25.48,-31.26 -20.33,-17.69 -44.82,-24.59 -62,-25.63 -8.67,-0.63 -15.69,-0.08 -20.47,0.58 -4.78,0.81 -7.35,1.42 -7.3,1.78 0.09,1 10.67,-0.82 27.41,1.3 16.55,1.95 39.61,9.08 58.98,25.94 10.56,9.03 18.85,19.49 24.75,29.62 l 4.05,-2.43 c 12.01,26.25 7.89,50.81 9.42,50.44" /><path
         id="path372"
         style="fill:#f68260;fill-opacity:1;fill-rule:nonzero;stroke:none"
         d="m 2341.76,2325.8 c -0.38,-1.12 -10.2,2.53 -14.83,14.14 -2.14,5.68 -1.78,11.29 -0.82,14.93 0.97,3.68 2.34,5.63 2.98,5.44 1.61,-0.36 -0.77,-9.24 2.72,-18.55 3.5,-9.3 10.96,-14.66 9.95,-15.96" /><path
         id="path374"
         style="fill:#f68260;fill-opacity:1;fill-rule:nonzero;stroke:none"
         d="m 2298.25,2126.92 c 0.07,-0.28 -2.55,-1.42 -7.66,-1.82 -5.05,-0.4 -12.76,0.07 -21.23,4 -8.43,3.81 -17.31,11.79 -22.08,23.33 -2.47,5.57 -3.52,12.66 -3.63,18.76 -0.28,3.06 -0.95,4.97 -3.23,6.74 -2.25,1.73 -5.64,4.04 -7.92,6.86 -6.4,7.53 -8.99,16.93 -9.66,25.45 -0.68,8.6 0.24,16.53 0.96,23.65 l 1.11,-2.14 c -13.78,8.7 -17.19,23.14 -16.8,31.72 0.41,9.03 3.68,13.38 3.89,13.18 0.63,-0.21 -1.66,-4.82 -1.27,-13.16 0.33,-7.97 4.35,-20.79 16.44,-27.85 l 1.22,-0.71 -0.11,-1.44 c -0.5,-7.13 -1.19,-14.86 -0.44,-22.8 0.72,-7.86 3.2,-16.17 8.61,-22.5 2.05,-2.48 4.3,-3.97 7.27,-6.27 3.22,-2.23 5.01,-6.99 5.01,-10.29 0.12,-6.71 0.87,-12.06 3,-17.4 4.06,-10.48 11.74,-17.92 19.28,-21.83 15.56,-7.91 27.36,-4.4 27.24,-5.48" /><path
         id="path376"
         style="fill:#20353d;fill-opacity:1;fill-rule:nonzero;stroke:none"
         d="m 1981.41,2153.99 c 2.68,6.49 5.86,15.02 9.01,25.29 7.96,25.38 16.25,61.18 23.55,101 7.31,39.81 12.61,76.05 16.12,102.32 1.39,10.56 2.5,19.5 3.28,26.44 7.91,-44.03 17.67,-96.76 11.24,-140.51 -6.5,-44.17 -29.56,-85.19 -63.2,-114.54" /><path
         id="path378"
         style="fill:#0f191d;fill-opacity:1;fill-rule:nonzero;stroke:none"
         d="m 1979.58,2152.41 c 24.91,73.26 41.42,154.25 53.12,260.33 0.22,-1.22 0.44,-2.46 0.67,-3.7 -0.78,-6.94 -1.89,-15.88 -3.28,-26.44 -3.51,-26.27 -8.81,-62.51 -16.12,-102.32 -7.3,-39.82 -15.59,-75.62 -23.55,-101 -3.15,-10.27 -6.33,-18.8 -9.01,-25.29 -0.61,-0.53 -1.22,-1.06 -1.83,-1.58" /><path
         id="path380"
         style="fill:#cc4341;fill-opacity:1;fill-rule:nonzero;stroke:none"
         d="m 2691.63,2353.6 c 0.04,0.2 0.08,0.41 0.12,0.61 l 0.06,-0.01 v 0 l -0.06,0.01 -0.07,-0.49 -0.05,-0.12" /><path
         id="path382"
         style="fill:#20353d;fill-opacity:1;fill-rule:nonzero;stroke:none"
         d="m 2691.15,2352.55 c 4.5,27.83 7.1,55.97 7.8,84.16 -0.15,-18.7 -1.19,-35.59 -2.77,-49.89 -1.5,-13.23 -2.97,-24.31 -4.37,-32.62 l -0.06,0.01 c -0.04,-0.2 -0.08,-0.41 -0.12,-0.61 l -0.48,-1.05 m 4.88,10.57 c 1.27,6.67 2.55,14.49 3.82,23.27 0.53,3.8 1.02,7.8 1.46,11.96 1.52,-0.34 3.88,-0.74 6.98,-1.19 -2.96,-11.71 -7.01,-23.13 -12.26,-34.04 m 5.4,36.38 c 3.07,29.77 3.59,68.17 -0.99,109.55 -0.82,7.35 -1.72,14.58 -2.68,21.66 0.93,0.77 2.04,1.72 3.33,2.84 0.25,0.21 0.51,0.43 0.77,0.66 5.95,-20.68 10.25,-41.78 12,-63.21 1.95,-23.88 0.59,-48.24 -4.99,-71.48 -1.51,0.03 -2.86,0.05 -4.04,0.05 -1.38,0 -2.52,-0.02 -3.4,-0.07 m -3.93,133.07 c -1.37,9.89 -2.85,19.5 -4.39,28.74 2.9,-8.16 5.6,-16.39 8.05,-24.69 -1.42,-1.56 -2.65,-2.92 -3.66,-4.05" /><path
         id="path384"
         style="fill:#0f191d;fill-opacity:1;fill-rule:nonzero;stroke:none"
         d="m 2697.76,2530.71 c -0.09,0.62 -0.17,1.24 -0.26,1.86 1.01,1.13 2.24,2.49 3.66,4.05 0.23,-0.8 0.47,-1.6 0.7,-2.41 -0.26,-0.23 -0.52,-0.45 -0.77,-0.66 -1.29,-1.12 -2.4,-2.07 -3.33,-2.84" /><path
         id="path386"
         style="fill:#0f191d;fill-opacity:1;fill-rule:nonzero;stroke:none"
         d="m 2708.29,2397.16 c -3.1,0.45 -5.46,0.85 -6.98,1.19 0.04,0.38 0.08,0.77 0.12,1.15 0.88,0.05 2.02,0.07 3.4,0.07 1.18,0 2.53,-0.02 4.04,-0.05 -0.19,-0.78 -0.38,-1.57 -0.58,-2.36" /><path
         id="path388"
         style="fill:#0f191d;fill-opacity:1;fill-rule:nonzero;stroke:none"
         d="m 2691.9,2354.2 h -0.09 v 0 c 1.4,8.31 2.87,19.39 4.37,32.62 1.58,14.3 2.62,31.19 2.77,49.89 1.19,48.19 -3.16,96.52 -13.04,143.71 2.5,-6.32 4.91,-12.69 7.2,-19.11 1.54,-9.24 3.02,-18.85 4.39,-28.74 0.09,-0.62 0.17,-1.24 0.26,-1.86 0.96,-7.08 1.86,-14.31 2.68,-21.66 4.58,-41.38 4.06,-79.78 0.99,-109.55 -0.04,-0.38 -0.08,-0.77 -0.12,-1.15 -0.44,-4.16 -0.93,-8.16 -1.46,-11.96 -1.27,-8.78 -2.55,-16.6 -3.82,-23.27 -0.4,-0.81 -0.8,-1.63 -1.2,-2.44 l -2.93,-6.48" /><path
         id="path390"
         style="fill:#ba7562;fill-opacity:1;fill-rule:nonzero;stroke:none"
         d="m 2691.68,2353.72 0.07,0.49 0.06,-0.01 h 0.09 l -0.22,-0.48" /></g></g></svg>