<svg xmlns:dc="http://purl.org/dc/elements/1.1/" xmlns:cc="http://creativecommons.org/ns#" xmlns:rdf="http://www.w3.org/1999/02/22-rdf-syntax-ns#" xmlns:svg="http://www.w3.org/2000/svg" xmlns="http://www.w3.org/2000/svg" viewBox="0 0 564.15997 550.46667" height="550.46667" width="564.15997" xml:space="preserve" id="svg2" version="1.1"><metadata id="metadata8"><rdf:RDF><cc:Work rdf:about=""><dc:format>image/svg+xml</dc:format><dc:type rdf:resource="http://purl.org/dc/dcmitype/StillImage"/></cc:Work></rdf:RDF></metadata><defs id="defs6"/><g transform="matrix(1.3333333,0,0,-1.3333333,0,550.46667)" id="g10"><g transform="scale(0.1)" id="g12"><path id="path14" style="fill:#fafaf9;fill-opacity:1;fill-rule:nonzero;stroke:none" d="M 176.555,3391.29 30.4961,2686.23 C 95.457,2620.29 164.355,2557.96 275.578,2534.45 l 535.047,-94.03 125.633,828.77 -759.703,122.1"/><path id="path16" style="fill:#f3f2f1;fill-opacity:1;fill-rule:nonzero;stroke:none" d="M 146.059,3434.79 0,2729.73 l 245.086,-151.78 535.043,-94.04 157.941,795.58 -792.011,155.3"/><path id="path18" style="fill:#dadbd8;fill-opacity:1;fill-rule:nonzero;stroke:none" d="M 99.7305,2767.36 0,2729.73 c 0,0 36.0313,-58.72 88.4961,-90.51 52.4649,-31.8 103.0699,-51.86 156.5899,-61.27 0,0 -116.832,58.11 -145.3555,189.41"/><path id="path20" style="fill:#e7e8e5;fill-opacity:1;fill-rule:nonzero;stroke:none" d="m 64.75,3283.42 365.652,113.43 -23.343,76.99 L 35.3945,3365.79 64.75,3283.42"/><path id="path22" style="fill:#e7e8e5;fill-opacity:1;fill-rule:nonzero;stroke:none" d="m 1001.37,3089.26 -237.026,300.66 -63.496,-49.4 234.16,-308.2 66.362,56.94"/><path id="path24" style="fill:#dadbd8;fill-opacity:1;fill-rule:nonzero;stroke:none" d="m 800.492,3045.27 c -0.273,-1.42 -135.316,23.81 -301.582,56.33 -166.328,32.53 -300.894,60.03 -300.617,61.44 0.273,1.41 135.289,-23.81 301.613,-56.33 166.27,-32.52 300.864,-60.03 300.586,-61.44"/><path id="path26" style="fill:#dadbd8;fill-opacity:1;fill-rule:nonzero;stroke:none" d="m 776.59,2937.18 c -0.274,-1.41 -135.313,23.81 -301.582,56.33 -166.328,32.53 -300.891,60.04 -300.613,61.45 0.277,1.41 135.285,-23.81 301.613,-56.34 166.265,-32.51 300.859,-60.03 300.582,-61.44"/><path id="path28" style="fill:#dadbd8;fill-opacity:1;fill-rule:nonzero;stroke:none" d="m 761.137,2840.25 c -0.282,-1.42 -135.321,23.8 -301.586,56.32 -166.324,32.53 -300.891,60.04 -300.617,61.45 0.277,1.41 135.289,-23.8 301.617,-56.33 166.269,-32.52 300.859,-60.03 300.586,-61.44"/><path id="path30" style="fill:#dadbd8;fill-opacity:1;fill-rule:nonzero;stroke:none" d="m 742.367,2747.67 c -0.273,-1.41 -135.316,23.82 -301.582,56.33 -166.328,32.53 -300.894,60.04 -300.617,61.45 0.273,1.41 135.289,-23.81 301.613,-56.34 166.27,-32.52 300.864,-60.03 300.586,-61.44"/><path id="path32" style="fill:#fafaf9;fill-opacity:1;fill-rule:nonzero;stroke:none" d="M 3599.99,3715.46 3410.94,3254.5 c -62.79,-12.68 -126.43,-21.77 -199.33,7.78 l -343.3,153.11 248.64,524.02 483.04,-223.95"/><path id="path34" style="fill:#f3f2f1;fill-opacity:1;fill-rule:nonzero;stroke:none" d="m 3634.31,3728.62 -189.05,-460.96 -199.32,7.77 -343.31,153.11 217.27,517.48 514.41,-217.4"/><path id="path36" style="fill:#dadbd8;fill-opacity:1;fill-rule:nonzero;stroke:none" d="m 3402.62,3327.83 42.64,-60.17 c 0,0 -43.4,-19.74 -85.79,-17.68 -42.4,2.07 -79.19,10.14 -113.53,25.45 0,0 89.5,-11.87 156.68,52.4"/><path id="path38" style="fill:#e7e8e5;fill-opacity:1;fill-rule:nonzero;stroke:none" d="m 3622.38,3610.32 -165.86,206.57 43.19,35.13 171.38,-205.81 -48.71,-35.89"/><path id="path40" style="fill:#e7e8e5;fill-opacity:1;fill-rule:nonzero;stroke:none" d="m 3009.98,3861.4 252.3,80.74 17.31,-52.91 -253.58,-86.18 -16.03,58.35"/><path id="path42" style="fill:#dadbd8;fill-opacity:1;fill-rule:nonzero;stroke:none" d="m 3108.18,3758.43 c 0.56,1.32 88.56,-34.65 196.52,-80.34 107.98,-45.7 195.05,-83.82 194.5,-85.14 -0.57,-1.32 -88.54,34.64 -196.54,80.34 -107.95,45.69 -195.04,83.81 -194.48,85.14"/><path id="path44" style="fill:#dadbd8;fill-opacity:1;fill-rule:nonzero;stroke:none" d="m 3080.07,3687.18 c 0.55,1.32 88.54,-34.65 196.5,-80.34 108,-45.7 195.07,-83.82 194.5,-85.14 -0.55,-1.32 -88.53,34.64 -196.52,80.34 -107.96,45.69 -195.05,83.81 -194.48,85.14"/><path id="path46" style="fill:#dadbd8;fill-opacity:1;fill-rule:nonzero;stroke:none" d="m 3051.41,3625.59 c 0.57,1.32 88.56,-34.64 196.52,-80.33 108,-45.71 195.06,-83.82 194.5,-85.15 -0.56,-1.32 -88.54,34.64 -196.53,80.35 -107.96,45.68 -195.04,83.81 -194.49,85.13"/><path id="path48" style="fill:#dadbd8;fill-opacity:1;fill-rule:nonzero;stroke:none" d="m 3026.37,3565.23 c 0.55,1.32 88.54,-34.65 196.5,-80.34 108,-45.7 195.07,-83.82 194.5,-85.14 -0.56,-1.32 -88.53,34.64 -196.52,80.34 -107.96,45.69 -195.05,83.81 -194.48,85.14"/><path id="path50" style="fill:#f3f2f1;fill-opacity:1;fill-rule:nonzero;stroke:none" d="m 3394.39,1751.13 c -153.15,124.82 -174.27,337 -153.91,524.82 3.39,31.35 2.39,64.74 19.38,91.21 17,26.46 53.28,42.72 80.44,27.39 22.53,-12.71 30.68,-40.62 42.08,-64.04 15.16,-31.17 39.21,-57.8 68.5,-75.87 19.24,-11.87 43.53,-20.05 64.1,-10.62 28.21,12.94 34.19,50.16 36.31,81.44 3.95,58.29 7.92,116.58 11.87,174.86 2.12,31.27 4.4,63.19 16.32,92.14 11.91,28.95 35.45,54.91 65.8,61.04 30.36,6.13 65.86,-13.75 69.86,-44.81 1.67,-12.93 -1.9,-25.95 -1.99,-38.99 -0.1,-13.04 4.89,-27.84 16.95,-32.37 12.19,-4.59 25.37,3.34 35.39,11.8 34.61,29.17 59.51,68.21 82.97,107.12 23.46,38.92 46.39,78.84 78.22,111.1 31.82,32.25 74.34,56.53 119.29,55.75 44.97,-0.79 90.61,-31.96 98.67,-76.75 8.07,-44.91 -20.95,-87.71 -51.58,-121.31 -45.43,-49.85 -98,-93.02 -155.54,-127.71 -10.37,-6.26 -21.61,-13.03 -26.24,-24.33 -8.33,-20.34 9.87,-42.5 29.94,-50.87 22.72,-9.5 48.19,-8.95 72.35,-13.63 24.16,-4.67 49.77,-17.38 57.28,-41.1 10.44,-32.9 -18.77,-64.41 -46.69,-84.4 -55.9,-40.01 -118.6,-70.25 -184.47,-88.99 -23.62,-6.71 -48.36,-12.3 -68.11,-27.08 -19.74,-14.79 -33.02,-42.05 -23.45,-64.9 9.58,-22.87 37.82,-32.05 62.23,-29.37 24.41,2.68 46.94,14.16 70.55,21.12 44.16,13.03 99.41,5.96 124.18,-33.21 16.27,-25.75 15.34,-59.85 4.04,-88.26 -11.3,-28.41 -31.71,-52.09 -53.13,-73.74 -74.83,-75.67 -167.8,-134.17 -270.02,-161.34 -102.2,-27.16 -195.24,-29.66 -291.59,13.9"/><path id="path52" style="fill:#dadbd8;fill-opacity:1;fill-rule:nonzero;stroke:none" d="m 3381.57,1611.72 c 12.35,74.08 35.24,160.95 70.18,253.83 34.76,92.97 81.3,191.72 133.55,293.33 13.15,25.35 26.14,50.4 38.95,75.09 12.85,24.62 25.58,49.03 39.51,72.14 27.66,46.34 57.79,88.79 87.65,128.19 29.86,39.43 59.62,75.75 87.71,109.52 28.16,33.71 55.01,64.64 80.67,91.79 51.19,54.5 97.59,93.5 130.54,118.97 16.45,12.79 29.54,22.29 38.5,28.62 4.3,2.99 7.68,5.35 10.23,7.12 2.32,1.58 3.54,2.34 3.59,2.26 0.07,-0.08 -1.03,-1.01 -3.25,-2.74 -2.46,-1.89 -5.74,-4.4 -9.89,-7.6 -8.73,-6.62 -21.59,-16.41 -37.81,-29.45 -32.47,-25.99 -78.29,-65.32 -128.96,-120.02 -25.41,-27.25 -52.01,-58.26 -79.97,-92.07 -27.9,-33.87 -57.48,-70.25 -87.15,-109.66 -29.66,-39.39 -59.59,-81.76 -87.03,-127.88 -13.82,-23 -26.41,-47.21 -39.28,-71.89 -12.79,-24.68 -25.77,-49.73 -38.9,-75.07 -52.19,-101.53 -98.77,-199.96 -133.71,-292.55 -35.09,-92.49 -58.29,-178.9 -71.12,-252.64"/><path id="path54" style="fill:#dadbd8;fill-opacity:1;fill-rule:nonzero;stroke:none" d="m 3665.42,2306.21 c -0.39,-0.04 -1.11,4.79 -2.06,13.56 -1.01,8.76 -2.03,21.47 -3.08,37.21 -2.11,31.45 -3.54,74.98 -4.95,122.98 -1.4,48.03 -3.44,91.42 -6.03,122.75 -1.25,15.67 -2.38,28.35 -3.29,37.09 -0.85,8.77 -1.13,13.64 -0.73,13.7 0.39,0.06 1.43,-4.7 2.96,-13.39 1.58,-8.67 3.34,-21.32 5.11,-36.99 3.64,-31.35 6.35,-74.89 7.74,-122.96 1.26,-47.37 2.39,-90.23 3.26,-122.97 0.48,-14.79 0.91,-27.25 1.24,-37.26 0.27,-8.8 0.23,-13.69 -0.17,-13.72"/><path id="path56" style="fill:#dadbd8;fill-opacity:1;fill-rule:nonzero;stroke:none" d="m 4072.89,2351.52 c -0.02,-0.4 -5.79,-0.64 -16.17,-0.73 -10.38,-0.16 -25.4,-0.3 -43.96,-1.07 -37.1,-1.24 -88.3,-4.75 -144.61,-11.1 -56.32,-6.45 -107.04,-14.46 -143.55,-21.31 -18.29,-3.29 -33.02,-6.36 -43.22,-8.42 -10.18,-2.1 -15.85,-3.07 -15.96,-2.68 -0.09,0.39 5.41,2.11 15.47,4.9 10.06,2.73 24.69,6.42 42.94,10.25 36.41,7.91 87.2,16.59 143.7,23.07 56.47,6.35 107.91,9.23 145.15,9.41 18.63,0.25 33.69,-0.23 44.09,-0.79 10.4,-0.6 16.13,-1.12 16.12,-1.53"/><path id="path58" style="fill:#dadbd8;fill-opacity:1;fill-rule:nonzero;stroke:none" d="m 3457.24,1872.58 c -0.19,-0.06 -1,1.69 -2.39,5.11 -1.57,4.07 -3.48,9.04 -5.8,15.05 -4.97,13.09 -11.68,32.22 -19.65,55.97 -15.97,47.47 -35.97,113.75 -57.06,187.19 -21.1,73.46 -40.47,139.83 -55.43,187.57 -7.34,23.22 -13.39,42.31 -17.88,56.5 -1.91,6.16 -3.49,11.24 -4.78,15.41 -1.03,3.54 -1.49,5.43 -1.3,5.51 0.19,0.05 1,-1.7 2.39,-5.12 1.57,-4.06 3.49,-9.03 5.8,-15.04 4.97,-13.09 11.67,-32.22 19.65,-55.96 15.98,-47.48 35.98,-113.76 57.07,-187.22 21.09,-73.44 40.46,-139.81 55.42,-187.56 7.35,-23.21 13.39,-42.31 17.88,-56.49 1.91,-6.16 3.49,-11.25 4.79,-15.41 1.03,-3.54 1.48,-5.44 1.29,-5.51"/><path id="path60" style="fill:#dadbd8;fill-opacity:1;fill-rule:nonzero;stroke:none" d="m 4004.06,2005.11 c 0.04,-0.2 -1.85,-0.81 -5.46,-1.79 -4.28,-1.09 -9.53,-2.42 -15.9,-4.05 -14.66,-3.58 -34.47,-8.41 -58.56,-14.29 -49.44,-12.08 -117.55,-29.55 -192.77,-48.95 -75.26,-19.42 -143.59,-36.28 -193.31,-47.33 -24.85,-5.54 -45.01,-9.82 -58.99,-12.49 -6.46,-1.19 -11.8,-2.17 -16.12,-2.98 -3.7,-0.62 -5.68,-0.84 -5.71,-0.65 -0.03,0.2 1.85,0.82 5.46,1.81 4.27,1.08 9.52,2.41 15.9,4.03 14.67,3.59 34.46,8.41 58.56,14.3 49.44,12.07 117.55,29.54 192.8,48.96 75.23,19.41 143.55,36.27 193.27,47.32 24.85,5.54 45,9.82 59,12.48 6.47,1.19 11.78,2.19 16.13,2.99 3.7,0.61 5.65,0.84 5.7,0.64"/><path id="path64" style="fill:#dadbd8;fill-opacity:1;fill-rule:nonzero;stroke:none" d="m 1281.44,3815.11 241.23,-735.53 c 95.86,-26.7 193.46,-47.93 309.74,-10.32 l 549.18,198.73 -326.49,839.94 -773.66,-292.82"/><path id="path66" style="fill:#f03d5f;fill-opacity:1;fill-rule:nonzero;stroke:none" d="m 1229.72,3839.35 241.23,-735.53 309.75,-10.33 549.17,198.73 -278.6,826.28 -821.55,-279.15"/><path id="path68" style="fill:#f03d5f;fill-opacity:1;fill-rule:nonzero;stroke:none" d="m 1543.79,3192.28 -72.84,-88.46 c 0,0 65.02,-35.46 130.96,-37.02 65.93,-1.56 123.85,6.81 178.79,26.69 0,0 -140.03,-8.36 -236.91,98.79"/><path id="path70" style="fill:#ba2c42;fill-opacity:1;fill-rule:nonzero;stroke:none" d="m 1617.21,3066.62 c -5.05,0 -10.16,0.06 -15.3,0.18 -65.94,1.56 -130.96,37.02 -130.96,37.02 2.11,-0.66 4.19,-0.97 6.24,-0.97 25.45,0 46.11,48.01 66.6,89.43 83.8,-92.69 199.9,-98.94 229.7,-98.94 4.65,0 7.21,0.15 7.21,0.15 -50.65,-18.32 -103.83,-26.87 -163.49,-26.87"/><path id="path72" style="fill:#dadbd8;fill-opacity:1;fill-rule:nonzero;stroke:none" d="m 1234.93,3654.7 280.2,301.48 -62.97,59.28 -288.68,-299.68 71.45,-61.08"/><path id="path74" style="fill:#dadbd8;fill-opacity:1;fill-rule:nonzero;stroke:none" d="m 2212.11,3975.03 -381.92,153.44 -32.76,-80.04 383.29,-162.01 31.39,88.61"/><path id="path76" style="fill:#17282f;fill-opacity:1;fill-rule:nonzero;stroke:none" d="m 2048.38,3826.49 c 0.46,-1.36 -138.97,-50.05 -311.4,-108.73 -172.48,-58.7 -312.64,-105.17 -313.1,-103.81 -0.46,1.36 138.94,50.04 311.43,108.74 172.42,58.69 312.6,105.16 313.07,103.8"/><path id="path78" style="fill:#17282f;fill-opacity:1;fill-rule:nonzero;stroke:none" d="m 2083.95,3712.93 c 0.46,-1.37 -138.97,-50.05 -311.39,-108.73 -172.49,-58.7 -312.64,-105.18 -313.1,-103.81 -0.47,1.36 138.94,50.03 311.42,108.73 172.42,58.68 312.61,105.17 313.07,103.81"/><path id="path80" style="fill:#17282f;fill-opacity:1;fill-rule:nonzero;stroke:none" d="m 2121.42,3614.27 c 0.47,-1.36 -138.97,-50.04 -311.39,-108.73 -172.48,-58.7 -312.63,-105.17 -313.1,-103.81 -0.46,1.37 138.94,50.04 311.42,108.75 172.43,58.68 312.61,105.16 313.07,103.79"/><path id="path82" style="fill:#17282f;fill-opacity:1;fill-rule:nonzero;stroke:none" d="m 2153.48,3517.92 c 0.46,-1.36 -138.97,-50.05 -311.39,-108.73 -172.49,-58.7 -312.64,-105.17 -313.11,-103.81 -0.46,1.36 138.94,50.04 311.43,108.74 172.42,58.68 312.61,105.16 313.07,103.8"/><path id="path84" style="fill:#f03d5f;fill-opacity:1;fill-rule:nonzero;stroke:none" d="m 2523.86,1411.16 -48.38,-450.461 c 0,0 -94.28,142.541 -158.09,79.011 -60.79,-60.519 -168.14,-502.48 -168.14,-502.48 0,0 -1.5,-144.121 75.18,-182.179 245.48,-121.871 518.91,107.918 518.91,107.918 L 2704.58,1751.04 C 2602.8,1665.25 2538.06,1543.5 2523.86,1411.16"/><path id="path86" style="fill:#c0776a;fill-opacity:1;fill-rule:nonzero;stroke:none" d="m 3352.64,1723.89 -425.13,33.96 c -2.64,49.64 0.91,241.67 0.91,241.67 0,0 -176.89,27.5 -179.08,204.35 -2.17,176.85 28.48,582.95 28.48,582.95 204.73,87.98 441.04,58.28 617.61,-77.63 l 26.21,-20.18 -69,-965.12"/><path id="path88" style="fill:#b85549;fill-opacity:1;fill-rule:nonzero;stroke:none" d="m 2928.12,2002.07 c 0,0 111.77,-9.09 230.57,65.52 0,0 -54.5,-127.28 -230.98,-111.34 l 0.41,45.82"/><path id="path90" style="fill:#c0776a;fill-opacity:1;fill-rule:nonzero;stroke:none" d="m 3399.84,2505.82 c 3.02,1.31 121.53,35.94 117.66,-84.96 -3.87,-120.91 -124.45,-92.09 -124.55,-88.62 -0.1,3.47 6.89,173.58 6.89,173.58"/><path id="path92" style="fill:#b85549;fill-opacity:1;fill-rule:nonzero;stroke:none" d="m 3431.35,2376.87 c 0.53,0.37 2.06,-1.55 5.56,-3.29 3.42,-1.7 9.36,-2.99 15.73,-0.82 12.92,4.27 24.33,24.21 25.61,45.98 0.66,11 -1.31,21.55 -4.93,30.35 -3.41,8.96 -8.93,15.32 -15.32,16.67 -6.36,1.68 -11.04,-2.02 -12.62,-5.38 -1.73,-3.32 -1.04,-5.76 -1.69,-5.95 -0.34,-0.29 -2.53,2.11 -1.4,7.07 0.58,2.38 2.09,5.2 5,7.42 2.98,2.27 7.29,3.34 11.75,2.71 9.31,-0.94 17.42,-9.79 21.41,-19.45 4.49,-9.72 6.96,-21.58 6.22,-33.93 -1.55,-24.34 -14.76,-46.74 -32.39,-51.24 -8.58,-1.94 -15.59,0.85 -19.16,3.82 -3.66,3.11 -4.2,5.83 -3.77,6.04"/><path id="path94" style="fill:#17282f;fill-opacity:1;fill-rule:nonzero;stroke:none" d="m 2816.8,2512.74 c -0.47,-13.33 10.43,-24.73 24.36,-25.48 13.89,-0.74 25.56,9.43 26.03,22.77 0.47,13.34 -10.43,24.75 -24.33,25.5 -13.92,0.75 -25.59,-9.45 -26.06,-22.79"/><path id="path96" style="fill:#17282f;fill-opacity:1;fill-rule:nonzero;stroke:none" d="m 2811.29,2538.03 c 3.13,-3.29 22.26,10.87 49.45,10.8 27.15,0.32 47.09,-13.67 50.04,-10.34 1.44,1.48 -1.75,7.42 -10.43,13.74 -8.55,6.3 -23.13,12.43 -40.06,12.35 -16.92,-0.09 -31.17,-6.33 -39.35,-12.7 -8.36,-6.41 -11.19,-12.37 -9.65,-13.85"/><path id="path98" style="fill:#17282f;fill-opacity:1;fill-rule:nonzero;stroke:none" d="m 3082.96,2503.25 c -0.47,-13.33 10.44,-24.73 24.35,-25.47 13.9,-0.75 25.57,9.43 26.04,22.76 0.47,13.34 -10.44,24.75 -24.33,25.5 -13.91,0.75 -25.58,-9.45 -26.06,-22.79"/><path id="path100" style="fill:#17282f;fill-opacity:1;fill-rule:nonzero;stroke:none" d="m 3078.44,2532.96 c 3.13,-3.29 22.29,10.87 49.45,10.79 27.14,0.32 47.09,-13.66 50.04,-10.33 1.44,1.47 -1.71,7.42 -10.43,13.74 -8.55,6.3 -23.13,12.42 -40.06,12.35 -16.92,-0.09 -31.16,-6.32 -39.36,-12.71 -8.33,-6.41 -11.18,-12.36 -9.64,-13.84"/><path id="path102" style="fill:#17282f;fill-opacity:1;fill-rule:nonzero;stroke:none" d="m 2979.8,2331.41 c 0.13,1.55 -16.76,4.46 -44.14,7.97 -6.94,0.71 -13.5,2.09 -14.68,6.83 -1.64,5.01 1.27,12.49 4.63,20.56 6.54,16.8 13.36,34.4 20.53,52.85 28.51,75.24 49.13,137.11 46.09,138.23 -3.03,1.12 -28.61,-58.96 -57.1,-134.2 -6.86,-18.55 -13.42,-36.24 -19.66,-53.16 -2.63,-7.88 -7.15,-16.83 -3.61,-27.23 1.87,-5.19 6.97,-8.96 11.42,-10.15 4.44,-1.36 8.35,-1.43 11.78,-1.64 27.55,-1.48 44.64,-1.6 44.74,-0.06"/><path id="path104" style="fill:#17282f;fill-opacity:1;fill-rule:nonzero;stroke:none" d="m 3071.42,2639.47 c 2.68,-7.39 29.82,-3.89 61.7,-7.73 31.97,-3.2 57.68,-12.54 61.91,-5.91 1.88,3.17 -2.6,10.12 -13,17.28 -10.29,7.14 -26.74,13.93 -45.88,16.06 -19.14,2.09 -36.67,-0.95 -48.28,-5.67 -11.71,-4.72 -17.6,-10.52 -16.45,-14.03"/><path id="path106" style="fill:#17282f;fill-opacity:1;fill-rule:nonzero;stroke:none" d="m 2821.29,2616.69 c 4.77,-6.18 23.49,0.24 46.01,0.53 22.5,1.1 41.58,-4.14 45.97,2.31 1.92,3.14 -1.08,9.32 -9.41,15.16 -8.21,5.83 -21.94,10.59 -37.42,10.12 -15.46,-0.49 -28.86,-6.09 -36.7,-12.41 -7.95,-6.34 -10.56,-12.7 -8.45,-15.71"/><path id="path108" style="fill:#17282f;fill-opacity:1;fill-rule:nonzero;stroke:none" d="m 2691.67,2898.47 c -1.9,21.92 6.26,45.45 24.1,58.33 17.84,12.87 45.51,12.06 60,-4.49 -8.3,29.53 15.84,63.59 46.45,65.53 28.84,1.83 53.44,-19.95 81.31,-27.59 27.21,-7.47 56.41,-1.01 82.58,9.53 26.17,10.53 50.64,25.08 77.13,34.76 55.27,20.18 118.47,17.65 171.94,-6.9 53.47,-24.55 96.59,-70.82 117.31,-125.9 38.67,12.09 82.63,-7.54 106.47,-40.31 23.85,-32.76 29.97,-75.78 25.23,-116.03 -3.21,-27.2 -11.08,-53.47 -20.23,-79.36 0.01,-2.27 0.24,-4.5 0.19,-6.78 -1.83,-97.25 -12.82,-211.46 -54.31,-212.09 -72.31,-1.11 -55.09,135.14 -55.09,135.14 -88.74,34.28 -55.68,167.25 -77.87,187.42 -22.18,20.17 -68.61,67.04 -254.41,-27.93 -72.14,-36.87 -168.08,-35.71 -220.44,-23.84 -1.54,0.34 -3.1,0.57 -4.63,0.94 l -1.07,0.22 -1.54,0.62 c -16.69,4.35 -32.79,10.81 -47.64,20.22 -16.84,10.65 -32.14,25.06 -39.28,43.66 -7.13,18.59 -4.45,41.8 10.14,55.36 -13.71,17.21 -24.45,37.56 -26.34,59.49"/><path id="path110" style="fill:#f03d5f;fill-opacity:1;fill-rule:nonzero;stroke:none" d="M 3700.42,614.109 3713.79,363.148 3743.67,2.64844 H 2607.42 l 49.35,532.63256 -96.78,841.489 c 8.41,297.36 122.6,421.01 356.22,449.41 0.97,0.12 -4.13,-0.52 -9.22,-1.15 -5.09,-0.64 -10.18,-1.27 -9.19,-1.16 17.84,2.11 15.89,1.88 13.76,1.65 -1.72,-0.18 -3.55,-0.37 4.65,0.66 151.09,-46.52 302.2,-46.43 453.29,0.27 70.06,-2.98 128.09,-24.54 187.68,-35.96 187.67,-35.96 342.2,-180.98 379.72,-307.2 30.91,-103.93 254.4,-1005.188 254.4,-1005.188 h -444.61 l -46.27,136.007"/><path id="path112" style="fill:#b85549;fill-opacity:1;fill-rule:nonzero;stroke:none" d="m 2956.74,2247.81 c 4.26,-10.79 8.62,-21.75 15.76,-30.89 7.14,-9.14 17.59,-16.39 29.17,-16.94 12.35,-0.58 24.26,6.73 31.14,16.99 6.9,10.26 9.24,23.06 8.68,35.41 -0.5,11.17 -5.6,24.5 -16.71,25.81 -4.62,0.55 -9.16,-1.24 -13.47,-2.98 -19.45,-7.89 -38.89,-15.78 -58.34,-23.67"/><path id="path114" style="fill:#17282f;fill-opacity:1;fill-rule:nonzero;stroke:none" d="m 2980.04,2199.82 c 0.3,1.83 13.1,-3.38 31.11,3.84 8.71,3.51 18.26,10.45 23.52,21.37 5.26,10.79 6.29,25.39 0.77,38.16 -1.28,3.19 -3.22,6.12 -5.09,8.72 -2.31,2.42 -1.89,2.31 -4.4,1.94 -2.38,-0.64 -6.22,-2.44 -9.35,-3.66 -3.25,-1.33 -6.45,-2.63 -9.58,-3.91 -12.49,-5.05 -23.79,-9.46 -33.34,-13.03 -19.1,-7.13 -31.2,-10.89 -31.76,-9.57 -0.56,1.33 10.51,7.47 28.87,16.34 9.18,4.44 20.18,9.55 32.46,15.09 3.09,1.38 6.24,2.79 9.44,4.22 3.41,1.4 6.01,2.93 10.66,4.39 2.27,0.64 5.51,1 8.65,-0.25 3.09,-1.25 5,-3.34 6.44,-5.08 2.6,-3.48 4.91,-7.05 6.56,-11.06 6.85,-15.95 5.2,-33.6 -1.79,-46.68 -7.13,-13.36 -19.29,-20.87 -29.61,-23.93 -10.49,-3.24 -19.53,-2.46 -25.27,-0.99 -5.8,1.53 -8.52,3.51 -8.29,4.09"/><path id="path116" style="fill:#c0776a;fill-opacity:1;fill-rule:nonzero;stroke:none" d="m 2558.09,664.328 -267.59,821.612 -24.23,137.94 c 0,0 -72.82,307.52 -76.05,337.96 -3.74,35.17 -21.58,41.82 -34.45,39.55 -20.05,-3.51 -31.69,-29.93 -29.41,-60.21 0.79,-10.46 19.84,-175.07 19.84,-175.07 0,0 -8.99,12.82 -36.69,41.04 -27.7,28.21 -86.8,39.66 -145.31,31.46 -58.51,-8.21 -74.17,-15.67 -72.04,-38.55 0.85,-9.19 6.8,-16 13.9,-20.93 11.61,-8.05 26.15,-10.95 40.16,-9.18 93.88,11.86 124.62,-35.68 124.62,-35.68 l 3.17,-18.04 c 0,0 -61.58,34.66 -105.24,12.52 -7.13,-3.61 -12.59,-8.17 -16.96,-13.16 -24.95,-2.94 -48.02,-19.23 -58.72,-42.02 -11.13,-23.7 -8.44,-53.31 6.78,-74.63 7.27,-10.17 19.62,-19.04 31.54,-15.26 6.3,1.99 11.02,7.1 15.56,11.89 2.37,2.52 4.91,5.04 7.7,7.1 l 15.96,-49.31 c 0,0 41.77,-108.87 54.58,-158.3 l 130.3,-827.349 C 2173.57,453 2282.2,375.398 2396.56,395.488 c 124.39,21.84 200.65,148.75 161.53,268.84"/><path id="path118" style="fill:#c0776a;fill-opacity:1;fill-rule:nonzero;stroke:none" d="m 2262.21,1494.34 c -16.75,-6.58 -35.83,4.16 -46.78,18.44 -10.97,14.28 -16.78,31.86 -26.68,46.89 -29.64,44.94 -91.35,61.27 -118.79,107.59 -3.83,6.46 -6.52,15.62 -1.03,20.74 5.1,4.73 13.26,2.29 19.67,-0.41 54.79,-23.05 109.58,-46.11 164.37,-69.16"/><path id="path120" style="fill:#b85549;fill-opacity:1;fill-rule:nonzero;stroke:none" d="m 2252.97,1618.43 c 0.27,0.65 -5.79,3.93 -17.01,9.3 -11.21,5.38 -27.55,12.85 -47.85,21.9 -21.16,9.24 -45.21,19.76 -71.46,31.25 -6.77,2.9 -13.67,5.87 -20.71,8.89 -6.78,2.33 -14.6,8.36 -26.35,4.51 -5.76,-2.2 -9.19,-9.05 -8.79,-14.4 0.15,-5.4 1.92,-9.86 4.12,-13.99 4.59,-7.61 9.66,-14.66 15.8,-21.03 24.47,-25.59 54.08,-40.14 76.31,-58.35 11.26,-8.92 20.92,-18.5 27.97,-28.87 7.07,-10.34 12,-21.49 17.62,-31.3 10.38,-20.31 27.22,-32.73 40.16,-34.81 13.2,-2.45 19.84,2.63 19.43,2.81 -0.2,1.02 -6.99,-2.35 -18.46,1.03 -11.52,3.24 -25.56,14.56 -34.81,34.39 -5.04,9.66 -9.57,21.08 -16.91,32.55 -7.34,11.49 -17.53,21.98 -29.09,31.48 -22.89,19.26 -52.25,34.26 -74.8,58.01 -5.65,5.82 -10.36,12.46 -14.34,18.94 -3.68,6.43 -4.02,13.32 -0.19,14.42 3.99,1.85 11.55,-1.32 18.57,-4.34 7.08,-2.92 14.03,-5.78 20.84,-8.59 26.56,-10.74 50.89,-20.58 72.31,-29.23 20.64,-8.2 37.41,-14.66 49.1,-18.91 11.68,-4.26 18.26,-6.31 18.54,-5.66"/><path id="path122" style="fill:#b85549;fill-opacity:1;fill-rule:nonzero;stroke:none" d="m 2076.31,1715.59 c -1.27,-0.42 -0.62,14.38 -14.21,30.55 -6.69,7.88 -17.43,14.67 -30.88,17.69 -13.43,3.21 -28.91,3.02 -45.19,1.63 -16.31,-1.34 -32.31,-2.83 -46.94,-0.95 -14.54,1.89 -27.45,6.41 -36.45,13.54 -9.25,7.09 -12.24,17.19 -11.9,23.35 0.25,6.32 1.88,9.45 2.12,9.38 0.64,-0.11 -0.1,-3.47 0.42,-9.26 0.53,-5.71 3.67,-13.92 12.16,-19.77 8.31,-5.89 20.59,-9.79 34.33,-11.24 13.81,-1.45 29.28,0.13 45.75,1.49 16.45,1.41 32.79,1.48 47.15,-2.31 14.41,-3.54 26.24,-11.6 33.01,-20.6 6.95,-8.94 9.64,-17.87 10.62,-23.94 0.94,-6.13 0.39,-9.55 0.01,-9.56"/><path id="path124" style="fill:#b85549;fill-opacity:1;fill-rule:nonzero;stroke:none" d="m 2125.66,1952.87 c 0.94,0.03 2.14,-12.49 4.01,-32.71 2.17,-22.48 4.76,-49.28 7.63,-78.91 3.31,-29.58 6.3,-56.35 8.82,-78.81 2.35,-20.16 3.76,-32.66 2.83,-32.81 -0.86,-0.16 -3.88,12.09 -7.42,32.14 -3.56,20.05 -7.52,47.9 -10.76,78.8 -3.21,30.88 -5.09,58.96 -5.74,79.31 -0.68,20.35 -0.25,32.96 0.63,32.99"/><path id="path126" style="fill:#b85549;fill-opacity:1;fill-rule:nonzero;stroke:none" d="m 2043.14,1674.48 c -0.19,-0.47 -3.7,0.79 -9.97,2.68 -6,1.67 -16.17,4.34 -25.44,-1.52 -4.5,-2.8 -7.1,-8.11 -7.05,-14.6 -0.14,-6.42 1.95,-13.38 3.84,-21.12 1.85,-7.55 3.5,-17.22 -1.13,-26.2 -4.62,-8.66 -13.77,-14.44 -23.68,-15.73 -10.17,-1.35 -19.95,2.57 -26.98,8.38 -7.08,5.93 -12.22,13.29 -14.64,21.6 -4.07,15.86 -4.31,30.15 -3.88,42.21 0.63,12.03 2.73,21.75 5.45,28.01 2.75,6.29 5.62,8.96 5.84,8.74 0.48,-0.35 -1.57,-3.4 -3.44,-9.59 -1.85,-6.21 -3.18,-15.6 -3.21,-27.27 0.13,-11.58 0.96,-25.87 5.03,-40.36 4.17,-13.31 18.61,-27.23 34.97,-25.21 8,1 15.37,5.77 18.85,12.23 3.5,6.5 2.61,14.42 0.93,21.85 -1.63,7.48 -3.78,15.05 -3.39,22.66 0.02,7.5 4.05,15.17 10.03,18.34 11.97,6.56 22.9,2.32 28.76,-0.01 6.18,-2.71 9.26,-4.72 9.11,-5.09"/><path id="path128" style="fill:#b85549;fill-opacity:1;fill-rule:nonzero;stroke:none" d="m 1954.89,1611.66 c 0.31,0.09 1.59,-3.31 0.09,-9.4 -1.47,-5.85 -6.49,-14.62 -17.3,-18.96 -10.58,-4.25 -25.68,-2.35 -37.26,7.25 -11.61,9.49 -18.94,25 -20.76,41.62 -1.81,16.69 2.09,32.93 9.35,45.47 7.2,12.69 17.5,21.38 26.85,26.74 9.43,5.4 18.04,7.6 23.95,8.46 5.95,0.81 9.27,0.46 9.29,0.08 0.29,-1.25 -13.45,-1.42 -30.83,-12.5 -8.49,-5.54 -17.68,-13.96 -23.98,-25.72 -6.38,-11.64 -9.76,-26.57 -8.11,-41.82 1.65,-15.19 8.24,-29.27 18.12,-37.69 9.78,-8.51 22.7,-10.61 31.83,-7.53 9.25,3.1 14.42,10.35 16.42,15.39 2.08,5.23 1.77,8.6 2.34,8.61"/><path id="path130" style="fill:#b85549;fill-opacity:1;fill-rule:nonzero;stroke:none" d="m 2080.15,1513.78 c -0.1,0.58 5.69,2.42 15.76,1.47 9.89,-0.91 24.33,-5.34 36.52,-17.06 l -5.36,-2.21 c -0.03,6.99 0.35,14.56 1.28,22.35 4.98,43.43 25.34,73.53 26.55,72.39 1.83,-0.83 -15.29,-31.36 -20.04,-73.16 -0.89,-7.53 -1.36,-14.85 -1.5,-21.62 l -0.17,-7.47 -5.19,5.27 c -10.66,10.8 -23.56,15.71 -32.7,17.6 -9.26,1.97 -15.08,1.57 -15.15,2.44"/><path id="path132" style="fill:#b85549;fill-opacity:1;fill-rule:nonzero;stroke:none" d="m 2046.88,1793.76 c 1.63,-0.6 -3.45,-13.1 -17.26,-20.84 -13.74,-7.88 -27.07,-5.84 -26.75,-4.12 -0.01,1.9 11.6,2.9 23.51,9.82 12.05,6.68 18.86,16.12 20.5,15.14"/><path id="path134" style="fill:#fafaf9;fill-opacity:1;fill-rule:nonzero;stroke:none" d="m 2770.06,1793.83 c 0.25,-0.28 -3.66,-3.99 -10.36,-11.67 -6.37,-7.76 -16.77,-19.38 -23.21,-37.25 -1.57,-4.45 -2.42,-9.34 -2.62,-14.41 0.04,-5.09 1.25,-10.3 3.8,-15.14 5.45,-9.65 16.25,-16.79 28.85,-21.42 25.35,-9.47 56.99,-12.26 91.46,-12.92 17.24,-0.33 35.79,-0.97 54.83,-2.1 9.52,-1.11 19.23,-2.25 29.12,-3.41 9.9,-1.08 19.77,-3.73 29.93,-5.58 40.15,-9.09 82.95,-24.54 120.22,-53.41 18.64,-14.21 35.82,-31.52 49.66,-52.07 3.34,-5.22 6.58,-10.56 9.42,-16.22 2.91,-5.85 4.94,-11.61 7.36,-17.35 4.45,-11.68 8.08,-23.97 10.4,-36.56 9.99,-50.22 2.31,-105.76 -23.53,-153.68 -26.09,-48.12 -70.41,-83.03 -118.18,-100.91 -23.95,-9.04 -49,-13.73 -73.62,-14.62 -24.73,-0.78 -48.72,3.64 -71.15,8.67 -22.51,4.98 -44.2,10.23 -65.45,11.69 -21.15,1.44 -41.84,-1.54 -59.4,-10.49 -17.65,-8.82 -32.04,-22.21 -44.5,-36.1 -12.46,-13.99 -23.06,-28.71 -33.55,-42.66 -20.76,-27.86 -42.73,-52.43 -68.36,-65.32 -12.58,-6.38 -25.88,-10.15 -38.11,-9.97 -12.2,-0.08 -23.24,2.35 -32.49,6.06 -9.26,3.73 -16.72,8.81 -22.3,14.09 -5.5,5.41 -8.99,11.02 -11.17,15.77 -4.09,9.7 -3.52,15.35 -3.52,15.35 0.66,0.15 0.89,-5.45 5.4,-14.43 2.38,-4.4 5.97,-9.52 11.4,-14.42 5.51,-4.78 12.73,-9.32 21.65,-12.57 17.6,-6.53 42.73,-8.19 66.44,5.27 24.04,12.68 44.91,36.6 65.14,64.56 10.24,13.99 20.8,29.06 33.45,43.6 12.66,14.42 27.6,28.73 46.62,38.47 18.98,9.93 41.64,13.32 63.88,11.93 22.35,-1.38 44.5,-6.64 66.91,-11.45 22.41,-4.89 45.26,-8.94 68.82,-8.1 23.5,0.95 47.42,5.5 70.31,14.21 45.69,17.26 87.86,50.65 112.64,96.36 24.61,45.63 32.09,98.81 22.65,146.77 -2.19,12.05 -5.58,23.67 -9.83,34.95 -2.33,5.6 -4.38,11.39 -6.89,16.45 -2.6,5.22 -5.63,10.26 -8.76,15.19 -13.01,19.49 -29.36,36.18 -47.19,49.92 -35.65,27.97 -77.09,43.35 -116.28,52.59 -9.94,1.91 -19.56,4.61 -29.28,5.76 -9.71,1.24 -19.24,2.46 -28.57,3.66 -18.85,1.3 -36.77,2.17 -54.3,2.74 -34.88,1.17 -66.95,4.4 -93.43,14.87 -13.08,5.13 -24.97,13.08 -31.07,24.48 -2.86,5.72 -4.06,11.83 -3.96,17.56 0.37,5.71 1.51,11 3.32,15.69 7.48,18.73 18.54,29.86 25.49,37.32 7.29,7.32 11.69,10.51 11.91,10.25"/><path id="path136" style="fill:#fafaf9;fill-opacity:1;fill-rule:nonzero;stroke:none" d="m 3530.76,1127.07 c -0.5,-0.13 -3,7.73 -4.79,22.49 -1.93,14.71 -1.69,36.61 4.16,62.7 5.71,26.11 18.52,55.88 38.81,84.84 20.42,28.82 48.84,56.47 84,77.45 35.25,20.55 72.39,33.27 106.76,40.32 34.41,7.19 66.03,9.38 92.45,9.51 26.44,0.15 47.76,-1.43 62.4,-3.14 14.65,-1.71 22.65,-3.28 22.59,-3.95 -0.08,-0.91 -7.98,-0.5 -22.22,-0.09 -14.68,0.42 -36.08,0.84 -62.58,-0.18 -26.06,-1.07 -57.09,-3.99 -90.61,-11.53 -33.49,-7.41 -69.41,-20.04 -103.51,-39.91 -33.77,-20.16 -61.37,-46.58 -81.48,-74.09 -20,-27.65 -33.06,-56 -39.47,-81.01 -6.55,-24.98 -7.93,-46.16 -7.25,-60.65 0.52,-14.51 1.65,-22.61 0.74,-22.76"/><path id="path138" style="fill:#fafaf9;fill-opacity:1;fill-rule:nonzero;stroke:none" d="m 4077.18,953.238 c 0.49,-0.367 -3.38,-6.84 -11.75,-17.59 -8.34,-10.757 -21.68,-25.429 -40.28,-41.308 -18.54,-15.91 -42.8,-32.512 -72.1,-46.43 -29.22,-13.961 -63.69,-24.769 -100.91,-29.441 -37.29,-4.321 -73.33,-2.02 -105.06,4.582 -31.77,6.558 -59.28,16.918 -81.08,27.937 -21.83,11.012 -38.29,22.082 -48.94,30.563 -10.68,8.449 -15.99,13.801 -15.59,14.277 1.2,1.672 24.07,-18.269 67.7,-38.18 43.07,-19.976 109.19,-37.546 181.72,-28.828 72.5,8.789 132.53,41.578 169.62,71.231 37.63,29.711 55.1,54.519 56.67,53.187"/><path id="path140" style="fill:#fafaf9;fill-opacity:1;fill-rule:nonzero;stroke:none" d="m 3574.94,985.211 c 0.1,-0.441 -3.21,-1.371 -9.13,-3.723 -5.9,-2.328 -14.35,-6.82 -22.87,-15.238 -8.51,-8.461 -16.6,-20.992 -23.04,-36.93 -6.4,-15.949 -11.61,-35.058 -16.06,-56.422 -4.58,-21.378 -8.14,-45.367 -16.28,-70.488 -4.17,-12.48 -9.57,-25.262 -17.31,-37.262 -7.81,-11.918 -17.58,-23.078 -29.15,-32.578 -23.01,-19.281 -51.87,-32.699 -82.62,-41.761 -30.8,-9.118 -63.43,-14.129 -96.18,-20.551 -65.4,-12.09 -125.34,-36.336 -170.95,-71.207 -22.86,-17.262 -41.96,-36.981 -56.98,-57.43 -14.7,-20.723 -25.35,-42.133 -32.51,-62.562 -14.12,-41.118 -14.16,-77.309 -10.55,-101.207 3.6,-24.09 9.05,-36.75 8.02,-37.102 -0.34,-0.141 -1.78,2.949 -4.24,8.98 -1.35,2.989 -2.54,6.84 -3.88,11.43 -1.51,4.539 -2.72,9.918 -3.91,16.02 -4.92,24.211 -6.08,61.5 7.57,104.211 6.93,21.218 17.52,43.55 32.46,65.23 15.28,21.449 34.77,42.027 58.19,60.051 46.66,36.379 108.34,61.547 174.77,73.808 33.07,6.461 65.35,11.379 95.32,20.122 29.85,8.648 57.54,21.386 79.37,39.367 10.99,8.851 20.19,19.179 27.6,30.179 7.33,11.102 12.61,23.082 16.79,35.024 8.2,24.027 12.21,47.828 17.27,69.308 4.99,21.559 10.77,40.84 17.9,57.122 7.17,16.25 16.19,29.136 25.6,37.597 9.46,8.43 18.67,12.52 24.97,14.262 6.32,1.789 9.78,2.019 9.83,1.75"/><path id="path142" style="fill:#fafaf9;fill-opacity:1;fill-rule:nonzero;stroke:none" d="m 3306.96,1026.93 c 0.4,0.2 4.11,-6.68 5.21,-20.45 1.14,-13.55 -1.84,-34.589 -15.97,-55.332 -7.09,-10.168 -16.87,-20.41 -30.12,-27.339 -6.48,-3.719 -13.93,-6.079 -21.69,-7.891 -7.84,-1.297 -16.08,-1.957 -24.42,-1 -16.67,1.723 -33.56,8.32 -48.02,19.434 -14.31,11.136 -26.24,27.238 -30.97,46.367 -2.99,12.203 -3.24,24.901 -0.47,36.851 2.6,12.09 9.24,22.73 15.93,31.35 6.78,8.86 14,16.94 21.96,23.97 3.95,3.53 8.12,6.78 12.71,9.51 4.59,2.66 9.52,5.18 15.69,5.47 l 1.33,-8.93 c -1.71,-0.43 -3.33,-0.84 -4.95,-1.24 l -2.48,8.62 c 20.14,5.79 39.86,3.19 55.12,-2.99 15.54,-5.92 26.94,-15.36 34.78,-24.06 7.84,-8.83 12.03,-17.21 14.23,-23.02 2.02,-5.92 2.54,-9.2 2.13,-9.32 -1.34,-0.61 -4.34,12.9 -20.16,28.74 -7.91,7.66 -18.97,15.9 -33.53,20.77 -14.3,5.18 -32.26,6.83 -49.88,1.32 l -2.48,8.61 c 1.61,0.44 3.22,0.89 4.92,1.35 l 1.34,-8.92 c -7.04,-0.68 -15.29,-6.65 -22.34,-13.1 -7.22,-6.58 -14.03,-14.39 -20.32,-22.81 -6.42,-8.54 -11.75,-17.33 -13.95,-27.64 -2.31,-10.23 -2.1,-21.352 0.53,-32.031 4.1,-16.578 14.44,-30.739 27.15,-40.828 12.83,-10.032 27.96,-16.153 42.78,-17.93 7.43,-0.992 14.72,-0.512 21.69,0.469 6.87,1.468 13.51,3.351 19.38,6.531 11.99,5.848 21.22,14.867 28.13,23.988 13.78,18.602 17.79,38.031 17.89,50.931 0.2,13.1 -2.1,20.31 -1.15,20.55"/><path id="path144" style="fill:#17282f;fill-opacity:1;fill-rule:nonzero;stroke:none" d="m 2661.74,1353.56 c 0.08,-0.01 0.11,-0.92 0.08,-2.68 -0.06,-2.07 -0.14,-4.66 -0.25,-7.87 -0.36,-7.28 -0.85,-17.37 -1.48,-30.15 -1.57,-26.17 -3.13,-64.08 -5.22,-110.91 -3.92,-93.67 -7.74,-223.13 -10.78,-366.161 -3.07,-143.078 -4.93,-272.609 -6.28,-366.371 -0.7,-46.566 -1.28,-84.387 -1.69,-111.02 -0.27,-12.796 -0.49,-22.886 -0.64,-30.199 -0.12,-3.187 -0.22,-5.769 -0.3,-7.84 -0.08,-1.769 -0.18,-2.679 -0.27,-2.679 -0.09,0 -0.18,0.91 -0.25,2.679 -0.06,2.071 -0.14,4.653 -0.23,7.852 -0.08,7.301 -0.19,17.391 -0.33,30.187 0.01,26.653 0.02,64.481 0.03,111.063 0.4,93.777 1.69,223.34 4.75,366.449 3.03,143.039 7.45,272.54 12.31,366.22 2.56,46.82 4.69,84.71 6.87,110.86 1.05,12.76 1.87,22.83 2.46,30.1 0.32,3.19 0.57,5.76 0.77,7.83 0.2,1.75 0.35,2.65 0.45,2.64"/><path id="path146" style="fill:#da314b;fill-opacity:1;fill-rule:nonzero;stroke:none" d="m 2503.47,416.461 c -11.29,0 -22.39,2.258 -32.88,7.277 l 0.16,0.102 c 1.17,0.73 2.33,1.469 3.49,2.23 0.26,-0.031 0.52,-0.039 0.79,-0.039 9.49,0 26.49,15.438 43.8,39.418 19.96,23.512 34.57,51.301 42.57,81.231 15.26,43.05 20.48,89.82 0.82,126.058 -16.2,29.871 -41.39,89.242 -33.22,122.211 4.57,18.41 18.44,32.77 30.69,47.25 21.13,25 38.71,52.949 52.26,82.742 l 24.62,-214.082 c -0.79,-50.601 -1.36,-98.269 -1.76,-141.781 -3.4,-36.879 -6.98,-65.887 -6.98,-65.887 -23.14,-44.562 -75.59,-86.73 -124.36,-86.73"/><path id="path148" style="fill:#da314b;fill-opacity:1;fill-rule:nonzero;stroke:none" d="m 2636.57,710.859 -24.62,214.082 c 14.85,32.661 24.86,67.52 29.38,103.099 0.61,-18.26 0.91,-36.501 1,-54.72 -1.28,-43.761 -2.44,-89.84 -3.45,-137.41 -0.92,-43.121 -1.68,-85 -2.31,-125.051"/><path id="path150" style="fill:#915c52;fill-opacity:1;fill-rule:nonzero;stroke:none" d="m 2470.75,423.84 3.46,2.23 c 0.01,0 0.02,0 0.03,0 -1.16,-0.761 -2.32,-1.5 -3.49,-2.23 m 48.08,41.609 c 15.72,21.762 31.69,50.551 42.57,81.231 -8,-29.93 -22.61,-57.719 -42.57,-81.231"/><path id="path152" style="fill:#111d23;fill-opacity:1;fill-rule:nonzero;stroke:none" d="m 2634.81,569.078 c 0.4,43.512 0.97,91.18 1.76,141.781 0.63,40.051 1.39,81.93 2.31,125.051 1.01,47.57 2.17,93.649 3.45,137.41 0.48,-95.879 -4.91,-191.23 -1.68,-287.371 1.06,-31.531 -2.3,-78.461 -5.84,-116.871"/><path id="path154" style="fill:#da314b;fill-opacity:1;fill-rule:nonzero;stroke:none" d="m 3637.41,379.859 c -3.2,0 -6.44,0.321 -9.69,0.981 -21.17,4.301 -37.58,22.09 -46.03,41.961 -8.47,19.879 -10.3,41.859 -12.02,63.39 -12.47,155.629 -24.94,311.258 -37.41,466.899 3.42,5.101 7.01,9.512 10.68,13.16 8.52,8.418 16.97,12.91 22.87,15.238 1.02,0.41 1.97,0.774 2.83,1.102 27.21,-95.91 54.42,-191.801 81.63,-287.711 15.38,-54.211 30.77,-108.43 44.33,-163.129 7.96,-32.102 15.26,-66.059 6.11,-97.852 -8.23,-28.597 -34.5,-54.039 -63.3,-54.039 m -105.72,580.399 c -5.61,69.982 -11.22,139.982 -16.83,209.962 l 1.54,-3.51 c 17.26,-60.82 34.51,-121.63 51.77,-182.44 -0.93,-0.231 -1.96,-0.489 -3.06,-0.809 -6.3,-1.742 -15.51,-5.832 -24.97,-14.262 -2.86,-2.578 -5.7,-5.57 -8.45,-8.941"/><path id="path156" style="fill:#bfc0be;fill-opacity:1;fill-rule:nonzero;stroke:none" d="m 3532.26,953.09 c -0.19,2.39 -0.38,4.769 -0.57,7.168 2.75,3.371 5.59,6.363 8.45,8.941 9.46,8.43 18.67,12.52 24.97,14.262 1.1,0.32 2.13,0.578 3.06,0.809 0.15,-0.559 0.31,-1.122 0.47,-1.68 -0.86,-0.328 -1.81,-0.692 -2.83,-1.102 -5.9,-2.328 -14.35,-6.82 -22.87,-15.238 -3.67,-3.648 -7.26,-8.059 -10.68,-13.16"/><path id="path158" style="fill:#fafaf9;fill-opacity:1;fill-rule:nonzero;stroke:none" d="m 2888.14,2.32813 c -1.14,0.64062 9.49,11.44137 15.22,36.31247 5.66,24.6602 2.11,62.8594 -17.01,104.2504 -9.45,20.648 -22.74,42.121 -36.14,65.777 -13.26,23.641 -27.32,49.973 -33.85,80.801 -6.74,30.859 -2.9,64.742 7.08,96.769 9.79,32.231 24.41,63.532 36.2,96.332 25.02,65.008 23.74,134.34 4.99,191.25 -9.22,28.551 -22.49,54.102 -37.91,75.871 -15.57,21.688 -33.1,39.661 -50.56,54.239 -35.3,28.968 -69.77,44.211 -93.9,52.379 -24.29,8.132 -38.46,10.32 -38.29,11.281 0.06,0.359 3.63,0.039 10.38,-0.899 6.74,-0.992 16.66,-2.871 29.13,-6.519 24.85,-7.094 60.5,-21.551 97.31,-50.512 18.22,-14.582 36.56,-32.75 52.93,-54.91 16.22,-22.25 30.24,-48.52 40.03,-77.949 9.72,-29.41 15.37,-61.883 15.02,-95.672 0.1,-33.758 -7.02,-68.77 -19.33,-102.078 -12.03,-33.41 -26.62,-64.52 -36.25,-95.801 -9.79,-31.121 -13.48,-62.801 -7.43,-91.852 5.88,-29.117 19.15,-54.918 32,-78.527 12.97,-23.68 26,-45.48 35.31,-66.992 18.8,-42.891 21.38,-82.7892 14.23,-108.1876 -3.37,-12.7812 -8.7,-21.6523 -12.33,-27.4297 -4.19,-5.47264 -6.56,-8.14061 -6.83,-7.93357"/><path id="path160" style="fill:#fafaf9;fill-opacity:1;fill-rule:nonzero;stroke:none" d="m 3826.87,1647.43 c 0.5,-0.22 -1.91,-7.84 -9.7,-19.9 -7.69,-12.03 -21.72,-28.09 -43.42,-42.13 -21.51,-14.14 -51.2,-25.38 -85.25,-28.21 -34.02,-3.03 -71.72,2.06 -108.92,13.9 -37.22,11.78 -71.12,30.32 -95.06,55.19 -11.89,12.34 -21.48,25.96 -27.72,40.03 -6.22,14.04 -9.58,28.07 -10.77,41 -2.39,26.02 4.08,47.03 11.12,59.51 1.62,3.24 3.43,5.87 5.06,8.12 1.53,2.31 3.01,4.11 4.35,5.47 2.57,2.77 4.02,4.09 4.3,3.85 0.78,-0.6 -4.44,-6.6 -10.07,-19.21 -5.64,-12.48 -10.6,-32.53 -7.43,-56.94 1.57,-12.13 5.14,-25.2 11.28,-38.17 6.12,-12.92 15.31,-25.45 26.72,-36.94 22.89,-23.03 55.32,-40.57 91.38,-51.99 36.13,-11.5 72.41,-16.64 105,-14.25 32.64,2.21 61.01,12.13 82.13,24.9 21.26,12.65 35.54,27.26 44.01,38.23 8.56,10.99 12.2,17.95 12.99,17.54"/><path id="path162" style="fill:#17282f;fill-opacity:1;fill-rule:nonzero;stroke:none" d="m 3689.99,571.719 c -0.09,-0.028 -0.45,0.922 -1.07,2.801 -0.67,2.171 -1.52,4.929 -2.59,8.378 -2.28,7.75 -5.46,18.582 -9.52,32.36 -8.13,28.531 -19.74,69.183 -34.04,119.262 -28.34,101.148 -67.33,240.3 -110.41,394 -21.35,77 -41.68,150.34 -60.18,217.11 -9.16,33.4 -17.16,65.51 -21.3,96.2 -4.2,30.66 -4.45,59.83 -0.27,85.92 8.67,52.47 34.44,89.71 56.57,108.82 11.1,9.77 21.26,15.26 28.08,18.87 3.33,1.41 6.01,2.55 8.1,3.43 1.83,0.75 2.79,1.08 2.83,0.99 0.48,-0.77 -15.83,-5.31 -37.66,-24.79 -21.39,-19.3 -46.22,-56.24 -54.27,-107.9 -3.88,-25.67 -3.45,-54.45 0.89,-84.74 4.28,-30.35 12.38,-62.21 21.65,-95.52 18.63,-66.73 39.1,-140.03 60.58,-216.99 42.5,-153.869 80.98,-293.158 108.95,-394.42 13.62,-50.27 24.68,-91.07 32.44,-119.699 3.65,-13.891 6.51,-24.813 8.57,-32.621 0.86,-3.512 1.55,-6.321 2.1,-8.512 0.44,-1.938 0.63,-2.93 0.55,-2.949"/><path id="path164" style="fill:#33535f;fill-opacity:1;fill-rule:nonzero;stroke:none" d="m 3282.74,2786.22 c -0.68,0.07 1.83,7.71 0.09,21.4 -1.71,13.47 -9.32,33.16 -27.65,49.67 -17.8,16.97 -47.11,27.1 -79.62,26.29 -32.72,-0.27 -67.5,-11.02 -103.44,-23.13 -18.08,-5.95 -35.88,-11.63 -53.55,-15.54 -17.69,-3.82 -35.11,-5.87 -51.72,-6.29 -33.3,-1 -63.08,4.42 -87.12,11.46 -24.03,7.31 -42.38,16.23 -54.53,23.12 -6.13,3.39 -10.67,6.37 -13.7,8.46 -3.04,2.06 -4.59,3.21 -4.5,3.37 0.29,0.46 6.76,-3.78 19.16,-10.04 12.35,-6.3 30.74,-14.61 54.59,-21.37 23.86,-6.49 53.24,-11.45 85.96,-10.2 16.33,0.53 33.39,2.65 50.75,6.47 17.35,3.91 34.98,9.56 53.03,15.51 35.89,12.08 71.39,22.97 105.02,22.98 33.37,0.62 63.99,-10.35 82.17,-28.39 18.7,-17.49 26.04,-38.18 27.17,-52.14 1.14,-14.2 -2.11,-21.63 -2.11,-21.63"/><path id="path166" style="fill:#33535f;fill-opacity:1;fill-rule:nonzero;stroke:none" d="m 3420.25,2487.34 c -0.15,-0.08 -0.95,1.2 -2.32,3.72 -1.42,2.5 -3.26,6.3 -5.5,11.27 -4.42,9.95 -9.95,24.83 -14.08,43.96 -4.03,19.1 -6.56,42.5 -4.56,68.37 1.63,25.99 9.7,53.42 15.78,82.15 6.29,28.65 7.75,57.18 0.15,81.29 -3.64,11.99 -9.57,22.53 -16.94,30.8 -7.41,8.09 -16.49,13.62 -25.41,16.66 -18,6.34 -34.23,3.48 -43.64,-1.11 -9.5,-4.85 -13.15,-9.98 -13.59,-9.52 0,0 2.99,5.66 12.65,11.32 9.56,5.38 26.62,9.04 45.76,2.8 9.48,-2.99 19.28,-8.63 27.42,-17.25 7.97,-8.63 14.39,-19.73 18.33,-32.26 8.22,-25.13 6.73,-54.81 0.37,-83.78 -6.17,-29.11 -14.26,-56.11 -16.1,-81.5 -2.22,-25.32 -0.11,-48.34 3.38,-67.25 3.62,-18.92 8.55,-33.81 12.35,-43.91 3.81,-10.12 6.37,-15.56 5.95,-15.76"/><path id="path168" style="fill:#33535f;fill-opacity:1;fill-rule:nonzero;stroke:none" d="m 3299.72,2800.5 c -0.18,0.02 -0.13,2.47 0.07,7.1 0.2,5.16 0.45,11.89 0.76,20.28 0.18,17.47 0.75,43.43 -8.16,73.45 -4.56,14.85 -12.03,30.55 -23.63,44.61 -11.49,14.03 -27.62,26.29 -47.41,31.33 -19.7,5.37 -41.85,3.48 -63.3,-2.59 -21.59,-6.09 -42.4,-16.86 -63.29,-28.69 -20.91,-11.79 -41.36,-23.82 -62.75,-32.28 -21.47,-8.25 -43.57,-12.58 -64.68,-12.99 -21.1,-0.47 -41.18,2.24 -59.23,7.27 -18.04,5.13 -34.12,12.1 -48.05,19.8 -27.69,15.91 -46.03,34.66 -56.9,48.57 -5.6,6.89 -9.21,12.76 -11.53,16.81 -2.4,3.99 -3.57,6.13 -3.42,6.22 0.16,0.09 1.63,-1.86 4.3,-5.66 2.6,-3.84 6.44,-9.48 12.22,-16.1 11.24,-13.36 29.7,-31.4 57.12,-46.62 13.8,-7.36 29.66,-14 47.39,-18.85 17.73,-4.76 37.39,-7.24 57.98,-6.65 20.6,0.55 42.02,4.84 62.92,12.94 20.87,8.33 41.09,20.24 62.08,32.08 20.93,11.85 42.21,22.86 64.46,29.06 22.07,6.17 45.16,8.11 65.92,2.32 20.87,-5.46 37.77,-18.56 49.51,-33.23 11.9,-14.73 19.36,-30.98 23.82,-46.3 8.65,-30.87 7.45,-57.04 6.66,-74.58 -0.52,-8.83 -1.2,-15.66 -1.73,-20.28 -0.56,-4.62 -0.95,-7.03 -1.13,-7.02"/><path id="path170" style="fill:#c0776a;fill-opacity:1;fill-rule:nonzero;stroke:none" d="m 3035.59,300.059 747.84,111.543 -12.08,66.5 h 402.5 l 11.78,-102.313 C 4222.09,186.211 4077.95,9.89844 3884.9,7.94922 l -872.22,9.67188 22.91,282.4379"/><path id="path172" style="fill:#c0776a;fill-opacity:1;fill-rule:nonzero;stroke:none" d="m 3089.56,287.191 c -4.01,-1.32 -54.38,21.25 -99.5,42.129 -47.91,22.168 -100.46,32.379 -153.19,29.7 l -207.92,-10.579 c 0,0 12.85,-34.3 34.9,-46.492 22.05,-12.199 151.3,-14.801 151.3,-14.801 l -6.62,-6.82 c -27.24,-28.047 -64.39,-44.308 -103.48,-45.277 l -19.87,-0.512 c -14.74,1.172 -29.3,4.012 -43.39,8.481 l -51.28,20.73 c -15.52,7 -31.92,5.859 -38.67,-9.77 -6.11,-14.14 -1.63,-33.609 40.71,-54.941 23.67,-11.918 111.41,-42.258 111.41,-42.258 0,0 1.28,-24.261 5.11,-37.043 3.84,-12.758 38.31,-25.5271 38.31,-25.5271 0,0 21.71,-44.6992 30.66,-54.9218 4,-4.5782 35.22,-14.2891 68.44,-23.6094 53.65,-15.058606 110.45,-14.699231 163.83,1.2422 l 79.25,23.6484 V 281.93"/><path id="path174" style="fill:#b85549;fill-opacity:1;fill-rule:nonzero;stroke:none" d="m 2805.14,129.512 c -0.1,-1.344 -24.75,-0.071 -54.06,7.699 -29.34,7.66 -51.43,18.687 -50.86,19.898 0.6,1.411 23.28,-7.328 52.18,-14.859 28.86,-7.648 52.92,-11.219 52.74,-12.738"/><path id="path176" style="fill:#b85549;fill-opacity:1;fill-rule:nonzero;stroke:none" d="m 2797.83,80.8203 c 0.01,-1.3711 -13.42,-2.2187 -29.25,2.1211 -15.85,4.2578 -27,11.7969 -26.3,12.957 0.72,1.3399 12.49,-3.8671 27.67,-7.9296 15.14,-4.168 27.94,-5.6407 27.88,-7.1485"/><path id="path178" style="fill:#b85549;fill-opacity:1;fill-rule:nonzero;stroke:none" d="m 3980.97,237.18 c -0.95,-0.352 -5.91,14.468 -17.91,36.371 -5.9,11 -14.02,23.48 -23.93,36.621 -10.17,12.957 -22.28,26.476 -36.35,39.258 -14.22,12.621 -28.96,23.211 -42.95,31.922 -14.13,8.449 -27.41,15.168 -38.97,19.867 -23.08,9.57 -38.33,12.91 -38.09,13.89 0.08,0.36 3.92,-0.3 10.82,-1.789 3.47,-0.691 7.68,-1.679 12.45,-3.25 4.79,-1.519 10.34,-2.98 16.17,-5.422 11.91,-4.328 25.58,-10.82 40.09,-19.179 14.37,-8.641 29.48,-19.309 43.96,-32.16 14.33,-13.02 26.57,-26.899 36.69,-40.25 9.88,-13.52 17.8,-26.418 23.38,-37.789 3.05,-5.54 5.11,-10.899 7.13,-15.5 2.08,-4.571 3.51,-8.649 4.58,-12.02 2.21,-6.711 3.28,-10.449 2.93,-10.57"/><path id="path180" style="fill:#b85549;fill-opacity:1;fill-rule:nonzero;stroke:none" d="m 2835.81,305.898 c 0.46,-0.488 -5.49,-7.207 -16.07,-17.148 -10.6,-9.871 -25.98,-23.039 -45.29,-34.309 -19.34,-11.261 -38.84,-17.582 -53.09,-20.492 -14.31,-2.898 -23.34,-3.109 -23.41,-2.527 -0.49,1.898 36.03,5.25 73.88,27.527 18.84,10.992 34.33,23.481 45.49,32.559 11.11,9.172 17.96,14.941 18.49,14.39"/><path id="path182" style="fill:#f03d5f;fill-opacity:1;fill-rule:nonzero;stroke:none" d="M 684.461,543.328 C 702.293,543.328 548.254,129.57 508.617,23.8711 504.227,12.1719 501.156,1.85938 501.156,1.85938 L 1579.38,0 l -12.71,1003.23 -0.14,1.98 -90.17,717.62 c -0.9,7.12 -5.97,13 -12.89,14.87 -42.69,11.58 -196.53,51.28 -314.23,55.65 -137.99,5.1 -337.517,-22.26 -337.517,-22.26 0,0 -179.047,-18.48 -277.582,-54.01 -7.911,-2.85 -12.727,-10.81 -11.559,-19.14 L 684.461,543.328"/><path id="path184" style="fill:#17282f;fill-opacity:1;fill-rule:nonzero;stroke:none" d="m 1182.41,988.012 c 0.33,-0.153 -1.61,-4.762 -5.4,-13.024 -1.83,-4.168 -4.24,-9.179 -7.58,-14.718 -3.26,-5.571 -6.64,-12.141 -11.44,-18.731 -4.52,-6.777 -9.57,-14.129 -15.75,-21.461 -5.76,-7.68 -12.9,-15.027 -20.21,-22.949 -15.22,-15.25 -33.32,-30.699 -54.07,-44.481 -20.93,-13.507 -42.33,-23.937 -62.39,-31.789 -10.179,-3.55 -19.769,-7.148 -29.113,-9.371 -9.191,-2.726 -17.953,-4.41 -25.973,-5.847 -7.953,-1.77 -15.332,-2.231 -21.742,-3.012 -6.406,-0.848 -11.961,-1.051 -16.512,-1.059 -9.085,-0.179 -14.093,-0.101 -14.097,0.25 -0.059,1.16 20.101,1.032 51.656,7.43 7.875,1.66 16.481,3.52 25.492,6.398 9.164,2.352 18.571,6.082 28.559,9.68 19.67,7.992 40.66,18.383 61.27,31.692 20.43,13.55 38.33,28.648 53.51,43.48 7.3,7.719 14.46,14.852 20.28,22.309 6.24,7.121 11.4,14.25 16.06,20.812 18.48,26.367 26.42,44.899 27.45,44.391"/><path id="path186" style="fill:#c3c5c2;fill-opacity:1;fill-rule:nonzero;stroke:none" d="m 537.762,102.07 v 0 l 36.82,107.789 c 0.926,-0.031 1.828,-0.05 2.754,-0.078 -14.121,-38.801 -27.762,-75.84 -39.574,-107.711"/><path id="path188" style="fill:#da314b;fill-opacity:1;fill-rule:nonzero;stroke:none" d="m 656.387,78.1094 c -40.199,0 -80.5,7.7812 -118.625,23.9606 11.812,31.871 25.453,68.91 39.574,107.711 5.519,-0.16 11.012,-0.23 16.469,-0.23 155.879,0 283.961,61.14 283.961,61.14 v 0 c 0.179,0.02 0.136,2.18 -0.106,6.27 -0.344,4.629 -0.781,10.551 -1.324,17.848 -1.43,16.152 -3.406,38.382 -5.82,65.57 -0.161,1.633 -0.321,3.281 -0.485,4.949 179.219,27.16 356.859,39.203 545.499,44.774 2.36,0.07 4.77,0.109 7.19,0.109 16.55,0 34.01,-2.223 44.08,-14.781 11.3,-14.102 7.43,-36 -4.16,-49.879 -11.57,-13.871 -28.9,-21.442 -45.85,-27.723 -83.62,-30.976 -173.27,-41.898 -262.22,-48.238 -25.83,-1.84 -52.1,-3.43 -77.98,-6.602 -17.77,30.403 -32.91,52.891 -35.77,52.891 -0.08,0 -0.15,-0.02 -0.21,-0.051 -2.15,-1.219 8.64,-24.367 25.05,-54.269 -36.88,-5.219 -72.719,-14.188 -105.09,-32.258 -27.597,-15.403 -51.164,-36.641 -75.125,-57.41 1.032,18.929 -0.879,32.347 -2.972,32.347 -0.004,0 -0.004,0 -0.008,0 -2.629,0 -4.66,-18.148 -8.043,-41.808 -8.887,-7.52 -17.918,-14.852 -27.313,-21.668 C 790.91,99.9688 723.789,78.1094 656.387,78.1094"/><path id="path190" style="fill:#17282f;fill-opacity:1;fill-rule:nonzero;stroke:none" d="m 838.273,2825.49 c 86.184,87.73 222.187,139.54 334.857,90.23 75.76,-33.14 127.14,-104.23 193.64,-153.39 48.42,-35.79 108.25,-63.46 133.62,-118.08 22.37,-48.14 11.59,-104.17 6.19,-156.99 -5.41,-52.81 -1.62,-113.73 39.28,-147.58 21.48,-17.77 49.72,-24.79 73.92,-38.65 48.69,-27.9 77.62,-82.19 88.05,-137.33 10.42,-55.14 4.8,-111.9 -0.86,-167.74 l -232.08,-44.21 -38.12,64.12 -13.3,-100.81 -296.18,-26.73 -289.017,937.16"/><path id="path192" style="fill:#f8a58d;fill-opacity:1;fill-rule:nonzero;stroke:none" d="m 800,2729.69 -0.504,-64.57 -18.266,-968.04 c -1.589,-112.21 105.77,-207.76 225.93,-208.54 121.35,-0.79 170.86,90.38 174.33,203.7 3.64,118.95 9.67,244.1 9.67,244.1 0,0 153.94,21.23 191.2,220.28 18.53,99 18.03,262.17 13.31,395.67 -4.25,120.15 -107.58,212.59 -227.44,203.25 L 800,2729.69"/><path id="path194" style="fill:#17282f;fill-opacity:1;fill-rule:nonzero;stroke:none" d="m 1342.93,2423.69 c 0.11,-13.55 -11.29,-24.82 -25.44,-25.19 -14.12,-0.36 -25.68,10.3 -25.79,23.85 -0.1,13.56 11.29,24.83 25.41,25.21 14.15,0.37 25.72,-10.32 25.82,-23.87"/><path id="path196" style="fill:#17282f;fill-opacity:1;fill-rule:nonzero;stroke:none" d="m 1357.97,2468.45 c -3.27,-3.26 -22.3,11.65 -49.9,12.34 -27.55,1.08 -48.19,-12.55 -51.09,-9.09 -1.44,1.53 1.97,7.48 10.97,13.66 8.85,6.15 23.83,11.96 41.01,11.41 17.19,-0.57 31.47,-7.29 39.6,-14 8.31,-6.74 11.02,-12.87 9.41,-14.32"/><path id="path198" style="fill:#17282f;fill-opacity:1;fill-rule:nonzero;stroke:none" d="m 1071.13,2423.69 c 0.1,-13.55 -11.29,-24.82 -25.44,-25.19 -14.13,-0.36 -25.69,10.3 -25.79,23.85 -0.11,13.56 11.28,24.83 25.41,25.21 14.15,0.37 25.71,-10.32 25.82,-23.87"/><path id="path200" style="fill:#17282f;fill-opacity:1;fill-rule:nonzero;stroke:none" d="m 1086.6,2470.78 c -3.28,-3.25 -22.33,11.65 -49.9,12.34 -27.55,1.08 -48.196,-12.55 -51.102,-9.09 -1.418,1.54 1.953,7.48 10.976,13.66 8.856,6.15 23.826,11.96 41.016,11.41 17.18,-0.56 31.47,-7.29 39.61,-14 8.28,-6.74 11,-12.87 9.4,-14.32"/><path id="path202" style="fill:#17282f;fill-opacity:1;fill-rule:nonzero;stroke:none" d="m 1181.1,2263.39 c -0.09,1.57 17.15,4.06 45.04,6.85 7.06,0.53 13.77,1.75 15.09,6.52 1.8,5.05 -0.94,12.72 -4.13,21.02 -6.15,17.23 -12.6,35.29 -19.36,54.22 -26.83,77.19 -46.04,140.58 -42.92,141.63 3.11,1.05 27.39,-60.65 54.22,-137.84 6.45,-19.03 12.61,-37.16 18.47,-54.52 2.45,-8.08 6.78,-17.29 2.9,-27.76 -2.04,-5.21 -7.33,-8.89 -11.88,-9.98 -4.55,-1.25 -8.51,-1.22 -12.01,-1.33 -28.01,-0.73 -45.36,-0.38 -45.42,1.19"/><path id="path204" style="fill:#f68260;fill-opacity:1;fill-rule:nonzero;stroke:none" d="m 1191.16,1936.34 c 0,0 -134.76,-4.96 -265.805,78.81 0,0 61.172,-139.13 261.795,-125.93 l 4.01,47.12"/><path id="path206" style="fill:#f68260;fill-opacity:1;fill-rule:nonzero;stroke:none" d="m 1167.6,2197.21 c -9.57,13.4 -26.75,21.08 -44.07,19.7 -12.01,-0.96 -24.27,-6.4 -31.81,-15.95 -7.54,-9.55 -9.45,-23.35 -3.09,-32.83 7.15,-10.68 22.65,-13.52 35.92,-10.15 13.28,3.38 24.84,11.74 35.84,20.08 3.05,2.31 6.16,4.72 8.11,7.94 1.95,3.23 2.46,7.5 0.24,10.27"/><path id="path208" style="fill:#17282f;fill-opacity:1;fill-rule:nonzero;stroke:none" d="m 1099.37,2246.54 c 4.49,0.14 3.72,-29.81 28.77,-51.78 25,-22.03 57.02,-19.55 57.14,-23.75 0.37,-1.88 -7.27,-5.61 -20.75,-5.61 -13.24,-0.09 -32.42,4.69 -47.74,18.13 -15.29,13.46 -21.53,31.05 -22.22,43.36 -0.79,12.56 2.75,19.88 4.8,19.65"/><path id="path210" style="fill:#17282f;fill-opacity:1;fill-rule:nonzero;stroke:none" d="m 1095.37,2551.04 c -2.94,-7.43 -30.38,-3.11 -62.86,-6.12 -32.545,-2.36 -58.908,-11.11 -63.022,-4.26 -1.824,3.27 2.918,10.2 13.672,17.17 10.66,6.97 27.55,13.39 47.04,15.03 19.49,1.59 37.21,-1.99 48.86,-7.12 11.75,-5.11 17.57,-11.17 16.31,-14.7"/><path id="path212" style="fill:#17282f;fill-opacity:1;fill-rule:nonzero;stroke:none" d="m 1358.99,2524.19 c -6.08,-6.1 -29.04,1.04 -56.85,2.11 -27.77,1.88 -51.49,-2.79 -56.74,3.91 -2.28,3.25 1.6,9.43 12.05,15.08 10.31,5.63 27.41,9.99 46.52,8.99 19.09,-1.03 35.51,-7.16 45,-13.85 9.66,-6.71 12.71,-13.26 10.02,-16.24"/><path id="path214" style="fill:#f03d5f;fill-opacity:1;fill-rule:nonzero;stroke:none" d="m 593.645,1735.38 c 0,0 -321.586,-75.46 -383.954,-380.42 C 181.035,1214.83 140.871,410.211 328.313,285.219 570.238,123.891 877.766,270.691 877.766,270.691 L 838.273,659.879 H 638.602 l -26.946,426.371 c 7.516,-32.7 -18.011,649.13 -18.011,649.13"/><path id="path216" style="fill:#f03d5f;fill-opacity:1;fill-rule:nonzero;stroke:none" d="m 1737.68,395.918 c 62.34,6.402 121.82,37.391 162.79,84.801 40.97,47.41 63,110.761 60.29,173.371 l -131.34,558.21 c 0,0 -85.18,479.05 -354.53,522.25 l 91.77,-730.32 -8.76,-153.91 c 0,0 4.17,-101.82 14.52,-292.582 l 165.26,-161.82"/><path id="path218" style="fill:#17282f;fill-opacity:1;fill-rule:nonzero;stroke:none" d="m 1772.53,745.238 c 0.03,-1.129 -18.97,0.903 -48.48,-5.32 -29.22,-5.949 -69.24,-22.348 -101.45,-55.18 -32.16,-32.886 -47.74,-73.238 -53.09,-102.578 -5.61,-29.621 -3.18,-48.582 -4.32,-48.582 -0.29,-0.027 -1.09,4.633 -1.53,13.16 -0.47,8.512 -0.16,20.942 2.23,36.071 4.5,30.019 19.89,71.742 52.99,105.589 33.14,33.762 74.52,50 104.45,55.133 15.07,2.699 27.49,3.258 36.02,2.969 8.53,-0.262 13.21,-0.969 13.18,-1.262"/><path id="path220" style="fill:#17282f;fill-opacity:1;fill-rule:nonzero;stroke:none" d="m 942.797,2847.79 c 36.215,-48.61 53.426,-85.97 75.133,-172.43 10.64,-42.35 -23.789,-72.25 -57.992,-98.1 -16.028,-12.12 -39.208,-3.66 -43.586,15.95 0,0 11.878,-132.5 -36.032,-191.9 -22.457,-27.85 -23.402,-63.57 -18.078,-93.67 5.442,-30.74 21.278,-58.4 42.793,-81.03 55.543,-58.4 70.973,-153.65 32.653,-225.28 -9.809,-18.33 -22.618,-35.12 -30.45,-54.39 -4.48,-11.02 -7.093,-23.36 -6.383,-35.17 0.887,-14.58 -9.152,-27.49 -23.617,-29.58 -164.383,-23.85 -331.5,-28.88 -497.019,-14.95 -11.653,0.99 -21.641,9.23 -24.332,20.61 -12.969,54.9 8.656,114.77 36.406,165.33 30.984,56.46 70.445,110.63 81.109,174.14 10.036,59.77 -6.281,124.22 17.731,179.86 29.472,68.3 109.582,100.6 149.691,163.24 37.836,59.11 34.805,136.62 68.699,198.07 43.524,78.91 150.68,115.34 233.274,79.3"/><path id="path222" style="fill:#17282f;fill-opacity:1;fill-rule:nonzero;stroke:none" d="m 952.023,2774.41 c 62.897,-32.33 91.947,-109.24 153.047,-144.85 55.64,-32.42 125.06,-23.86 188.75,-14.3 -2.36,14.13 -4.73,28.25 -7.09,42.38 6.45,-12.39 13.12,-25.07 23.6,-34.31 10.47,-9.23 25.75,-14.38 38.71,-9.16 21.36,8.6 24.2,38 18.71,60.37 -8.79,35.83 -29.71,67.88 -55.59,94.17 -47.04,47.77 -111.62,77.88 -178.45,83.23 -66.83,5.34 -135.362,-14.14 -189.397,-53.83"/><path id="path224" style="fill:#17282f;fill-opacity:1;fill-rule:nonzero;stroke:none" d="m 1541.74,1350.92 c 0.17,0 0.37,-2.72 0.59,-7.87 0.17,-5.63 0.4,-13.13 0.69,-22.53 0.39,-19.56 1.37,-47.85 2.86,-82.8 2.87,-69.9 9.4,-166.33 17.28,-272.829 7.87,-106.52 13.83,-203.11 15.76,-273.121 1.02,-34.989 1.44,-63.329 1.21,-82.911 -0.12,-9.39 -0.22,-16.89 -0.29,-22.531 -0.12,-5.16 -0.28,-7.867 -0.46,-7.867 -0.17,0 -0.37,2.707 -0.59,7.859 -0.17,5.641 -0.4,13.129 -0.69,22.52 -0.39,19.57 -1.37,47.859 -2.86,82.808 -2.87,69.903 -9.4,166.34 -17.28,272.872 -7.87,106.49 -13.83,203.07 -15.76,273.06 -1.02,35.01 -1.45,63.35 -1.21,82.92 0.12,9.41 0.22,16.91 0.29,22.55 0.12,5.15 0.28,7.87 0.46,7.87"/><path id="path226" style="fill:#17282f;fill-opacity:1;fill-rule:nonzero;stroke:none" d="m 638.602,659.879 c -0.18,0 -0.422,1.922 -0.719,5.601 -0.274,4.239 -0.617,9.559 -1.039,16.051 -0.821,14.668 -1.934,34.668 -3.293,59.039 -2.84,49.871 -7.219,118.7 -12.41,194.731 -5.262,75.709 -10.032,144.219 -13.539,194.699 -1.602,24.37 -2.914,44.36 -3.879,59.03 -0.336,6.5 -0.61,11.81 -0.825,16.07 -0.136,3.67 -0.121,5.61 0.059,5.62 0.176,0.02 0.512,-1.89 0.988,-5.54 0.473,-4.24 1.067,-9.52 1.801,-15.99 1.371,-14.63 3.246,-34.57 5.527,-58.9 4.379,-49.76 9.879,-118.56 15.063,-194.642 5.195,-76.039 8.992,-144.957 10.894,-194.886 0.883,-24.973 1.543,-45.192 1.641,-59.16 0.024,-6.524 0.047,-11.84 0.063,-16.09 -0.043,-3.692 -0.153,-5.621 -0.332,-5.633"/><path id="path228" style="fill:#17282f;fill-opacity:1;fill-rule:nonzero;stroke:none" d="m 638.602,659.879 c 0.093,-0.93 -10.434,-1.391 -26.176,-6.699 -15.621,-5.168 -36.477,-16.309 -52.75,-35.602 -16.254,-19.297 -23.711,-41.75 -26.153,-58.019 -2.57,-16.411 -1.242,-26.868 -2.171,-26.93 -0.321,-0.039 -0.993,2.512 -1.543,7.242 -0.567,4.731 -0.786,11.66 0.066,20.18 1.563,16.89 8.758,40.617 25.816,60.89 17.086,20.25 39.258,31.348 55.645,35.758 8.242,2.281 15.113,3.242 19.867,3.481 4.75,0.261 7.383,0.031 7.399,-0.301"/><path id="path230" style="fill:#17282f;fill-opacity:1;fill-rule:nonzero;stroke:none" d="m 877.766,270.691 c -0.18,-0.011 -0.571,2.11 -1.153,6.161 -0.593,4.609 -1.355,10.488 -2.289,17.757 -1.84,16.11 -4.375,38.289 -7.469,65.403 -5.871,55.867 -13.859,131.929 -22.683,215.957 -2.93,29.211 -5.762,57.461 -8.387,83.66 l 2.488,-2.25 c -64.105,0.371 -119.64,0.691 -159.929,0.93 -19.317,0.3 -34.946,0.543 -46.43,0.722 -5.008,0.168 -9.098,0.309 -12.418,0.418 -2.824,0.141 -4.293,0.281 -4.293,0.43 0,0.16 1.469,0.301 4.293,0.441 3.32,0.11 7.41,0.239 12.418,0.41 11.484,0.188 27.113,0.43 46.43,0.731 40.289,0.238 95.824,0.559 159.929,0.93 l 2.262,0.007 0.231,-2.269 c 2.687,-26.199 5.589,-54.43 8.586,-83.629 8.234,-84.102 15.691,-160.211 21.164,-216.121 2.414,-27.188 4.39,-49.418 5.82,-65.57 0.543,-7.297 0.98,-13.219 1.324,-17.848 0.242,-4.09 0.285,-6.25 0.106,-6.27"/><path id="path232" style="fill:#17282f;fill-opacity:1;fill-rule:nonzero;stroke:none" d="m 877.766,270.699 c 0.054,-0.179 -2.547,-1.129 -7.547,-2.789 -5.481,-1.75 -12.785,-4.082 -21.949,-6.992 C 829.164,255 801.469,246.539 766.879,237.309 732.293,228.141 690.711,218.23 643.715,211.73 c -47.035,-7.269 -100.184,-4.429 -153.652,7.278 -26.797,5.762 -52.536,13.203 -76.93,21.683 -12.164,4.329 -24.039,8.789 -35.504,13.571 -5.723,2.429 -11.426,4.636 -16.883,7.59 l -8.199,4.128 -7.621,4.918 c -20.121,13.192 -35.793,30.192 -48.235,47.293 -12.457,17.18 -21.894,34.547 -29.703,50.7 -15.308,32.507 -24.269,60.179 -30.238,79.257 -2.918,9.571 -5.109,17.032 -6.461,22.122 -1.375,5.089 -2.019,7.781 -1.844,7.832 0.172,0.046 1.149,-2.543 2.852,-7.524 1.84,-5.449 4.297,-12.699 7.379,-21.797 6.547,-18.851 16.019,-46.242 31.629,-78.281 7.949,-15.898 17.476,-32.98 29.871,-49.75 12.371,-16.699 27.816,-33.172 47.371,-45.84 l 7.398,-4.719 7.946,-3.941 c 5.214,-2.809 10.949,-5.012 16.629,-7.391 11.402,-4.687 23.207,-9.089 35.293,-13.359 24.234,-8.34 49.781,-15.68 76.343,-21.398 53.067,-11.602 105.352,-14.543 151.918,-7.622 46.742,6.2 88.258,15.7 122.887,24.399 34.629,8.75 62.461,16.66 81.738,21.98 9.278,2.532 16.676,4.539 22.223,6.051 5.09,1.34 7.793,1.961 7.844,1.789"/><path id="path234" style="fill:#17282f;fill-opacity:1;fill-rule:nonzero;stroke:none" d="m 708.07,2610.85 c 20.555,46.37 7.336,104.7 -29.23,139.86 -36.567,35.15 -93.363,46.38 -141.598,30.66 -21.574,-7.03 -41.957,-19.41 -55.265,-37.8 -24.516,-33.87 -19.743,-83.67 5.609,-116.91 25.355,-33.24 67.582,-50.81 109.324,-53.13 41.746,-2.31 83.176,9.15 121.778,25.21"/><path id="path236" style="fill:#33535f;fill-opacity:1;fill-rule:nonzero;stroke:none" d="m 1040.62,1024.82 c 69.94,-57.699 234.52,-194.3 234.52,-194.3 l 92.17,16.41 -279.19,234.87 c -15,12.62 -37.22,11.39 -50.74,-2.8 -14.84,-15.58 -13.36,-40.48 3.24,-54.18"/><path id="path238" style="fill:#33535f;fill-opacity:1;fill-rule:nonzero;stroke:none" d="m 1033.23,1054.82 -36.253,32.72 c -7.086,6.39 -7.825,17.26 -1.672,24.56 6.485,7.69 18.075,8.43 25.495,1.64 l 34.87,-31.95 -22.44,-26.97"/><path id="path240" style="fill:#17282f;fill-opacity:1;fill-rule:nonzero;stroke:none" d="m 1141.1,1037.23 c 1.04,-0.98 -9.02,-13.31 -22.46,-27.51 -13.46,-14.208 -25.2,-24.919 -26.25,-23.931 -1.04,0.981 9.01,13.313 22.46,27.521 13.45,14.2 25.2,24.91 26.25,23.92"/><path id="path242" style="fill:#17282f;fill-opacity:1;fill-rule:nonzero;stroke:none" d="m 1143.89,922.219 c -0.39,-0.559 -11.18,6.191 -27.85,18.211 -16.68,12.011 -39.16,29.41 -62.81,50.031 -11.72,10.139 -23.6,20.569 -29.39,33.839 -5.81,13.18 -4.83,26.89 -0.95,36.74 3.9,10.03 10.2,16.34 14.79,19.88 4.71,3.53 7.81,4.59 7.94,4.33 0.22,-0.36 -2.52,-2.02 -6.62,-5.88 -4.01,-3.85 -9.49,-10.18 -12.64,-19.58 -3.16,-9.23 -3.62,-21.77 1.85,-33.51 5.4,-11.86 16.64,-21.71 28.44,-31.889 23.54,-20.532 45.56,-38.301 61.61,-51.02 16.05,-12.742 26.07,-20.543 25.63,-21.152"/><path id="path244" style="fill:#f8a58d;fill-opacity:1;fill-rule:nonzero;stroke:none" d="m 841.438,628.719 c 66.308,22.269 136.773,7.269 203.082,29.551 22.24,7.468 45.13,15.308 62.66,30.902 21.07,18.707 31.78,46.199 48.58,68.816 50.19,67.59 143.96,81.602 227.71,90.18 19.56,2.004 39.58,3.98 58.64,-0.84 19.06,-4.797 37.27,-17.848 42.62,-36.769 5.35,-18.911 -6.87,-42.52 -26.43,-44.481 18.36,-0.808 31.21,-19.437 34.57,-37.5 3.37,-18.058 0.38,-36.758 2.81,-54.957 3.41,-25.59 17.4,-49.519 16.59,-75.312 C 1511.16,563 1481.89,533.93 1449.29,520.352 1416.69,506.75 1380.62,505 1345.64,500.078 1173.93,475.918 1043.32,378.418 877.766,304.762"/><path id="path246" style="fill:#f8a58d;fill-opacity:1;fill-rule:nonzero;stroke:none" d="m 1494.49,704.879 c 5.66,-11.801 23.08,-14.43 33.82,-6.957 10.75,7.476 14.88,21.996 12.98,34.949 -1.9,12.949 -8.85,24.598 -16.57,35.16 -14.08,19.297 -31.1,36.231 -48.05,53.071 l -53.2,-44.532 71.02,-71.691"/><path id="path248" style="fill:#f68260;fill-opacity:1;fill-rule:nonzero;stroke:none" d="m 1474.89,763.02 c -0.1,-1.641 -32.59,1.031 -71.93,-5.059 -39.41,-5.801 -69.66,-17.941 -70.23,-16.41 -0.25,0.609 7,4.41 19.41,8.949 12.39,4.57 30.06,9.578 50.04,12.609 19.98,3 38.33,3.43 51.51,2.743 13.2,-0.68 21.25,-2.184 21.2,-2.832"/><path id="path250" style="fill:#f68260;fill-opacity:1;fill-rule:nonzero;stroke:none" d="m 1498.3,658.84 c -0.3,-1.578 -27.35,3.969 -61.04,3 -33.7,-0.699 -60.43,-7.59 -60.82,-6.02 -0.47,1.18 26.2,10.489 60.7,11.239 34.47,0.953 61.57,-7.008 61.16,-8.219"/><path id="path252" style="fill:#f68260;fill-opacity:1;fill-rule:nonzero;stroke:none" d="m 1492.66,689.648 c -0.84,0.082 -0.02,7.821 -1.46,20.02 -1.47,12.102 -5.86,28.863 -16.11,44.422 -2.13,3.328 -4.5,6.39 -6.83,9.269 l -1.5,1.852 1.67,1.641 c 11.07,10.867 14.17,25.488 13.82,35.179 -0.24,9.938 -2.99,15.649 -2.22,15.949 0.35,0.27 4.34,-5.089 5.58,-15.73 1.3,-10.301 -1.25,-26.582 -13.6,-39.07 l 0.17,3.5 c 2.5,-3.012 5.03,-6.231 7.27,-9.739 10.84,-16.441 14.86,-34.32 15.42,-46.953 0.53,-12.789 -1.63,-20.457 -2.21,-20.34"/><path id="path254" style="fill:#33535f;fill-opacity:1;fill-rule:nonzero;stroke:none" d="m 1494.54,710.57 87.25,-81.851 11.15,-48.617 -80.67,18.207 c -11.56,41.05 -20.09,80.16 -17.73,112.261"/><path id="path256" style="fill:#f3f2f1;fill-opacity:1;fill-rule:nonzero;stroke:none" d="M 1376.44,606.32 C 1374.66,603.109 905.727,371.91 905.727,371.91 v -49.73 l 478.543,248.922 593.76,22.41 v 35.207 L 1376.44,606.32"/><path id="path258" style="fill:#17282f;fill-opacity:1;fill-rule:nonzero;stroke:none" d="m 905.727,315.031 c 3.281,2.231 517.743,48.617 517.743,48.617 L 1978.03,593.512 1384.27,571.102 905.727,322.18 v -7.149"/><path id="path260" style="fill:#f8a58d;fill-opacity:1;fill-rule:nonzero;stroke:none" d="m 1398.32,438.168 c -4.16,26.941 21.64,50.031 47.94,57.23 26.3,7.204 54.42,4.352 81.01,10.403 17.07,3.879 33.08,11.34 49.42,17.609 82.02,31.469 171.99,33.098 259.83,34.328 10.87,-23.437 1.86,-54.269 -19.93,-68.16 8.04,-21.008 5.59,-44.957 -2.71,-65.859 -8.31,-20.899 -22.04,-39.18 -36.64,-56.278 -12.35,-14.461 -25.95,-28.66 -43.36,-36.339 -17.28,-7.633 -36.74,-8.141 -55.62,-8.543 -58.92,-1.239 -122.13,-1.289 -170.87,31.832 -37.87,25.738 -64.14,69.91 -108.04,82.98 3.48,-0.152 6.94,-0.281 10.41,-0.422"/><path id="path262" style="fill:#f68260;fill-opacity:1;fill-rule:nonzero;stroke:none" d="m 1791.34,470.852 c 0.01,-0.364 -4.01,-0.731 -11.28,-1.082 -8.38,-0.258 -18.66,-0.59 -30.76,-0.969 -25.99,-0.61 -61.88,-1.082 -101.52,-1.27 -19.77,-0.011 -38.61,-0.011 -55.95,-0.019 -8.66,0.16 -17.17,1.039 -24.71,3.789 -7.55,2.758 -13.83,7.39 -17.88,13.008 -4.1,5.562 -5.65,12.261 -4.67,17.711 0.88,5.468 3.49,9.64 6.21,12.308 5.77,5.402 10.75,4.524 10.54,4.391 0.2,-0.551 -4.39,-0.52 -9.07,-5.778 -4.57,-4.863 -8.11,-16.562 -0.05,-26.433 3.71,-4.797 9.49,-8.828 16.34,-11.137 6.93,-2.34 14.89,-3.031 23.37,-3.07 17.3,0.14 36.1,0.277 55.84,0.429 39.65,0.2 75.54,0.09 101.53,-0.25 12.11,-0.269 22.39,-0.492 30.77,-0.679 7.27,-0.27 11.29,-0.59 11.29,-0.949"/><path id="path264" style="fill:#f68260;fill-opacity:1;fill-rule:nonzero;stroke:none" d="m 1761.13,421.469 c 0.04,-0.36 -5,-1.348 -14.16,-2.77 -9.17,-1.418 -22.47,-3.308 -39.02,-4.898 -16.54,-1.52 -36.39,-2.762 -58.46,-1.403 -22.13,1.161 -45.98,6.262 -70.59,11.872 -49.08,11.992 -94.7,15.71 -127.73,15.679 -16.51,0.071 -29.88,-0.578 -39.12,-1.097 -9.24,-0.481 -14.36,-0.832 -14.41,-0.434 -0.03,0.32 5.01,1.344 14.23,2.461 9.22,1.133 22.63,2.351 39.27,2.75 33.18,1 79.57,-2.219 128.9,-14.277 24.65,-5.622 48.08,-10.762 69.78,-12.172 21.68,-1.59 41.36,-0.758 57.84,0.289 16.49,1.109 29.83,2.449 39.06,3.242 9.24,0.809 14.36,1.109 14.41,0.758"/><path id="path266" style="fill:#f68260;fill-opacity:1;fill-rule:nonzero;stroke:none" d="m 1712.16,368.668 c 0.04,-0.359 -3.9,-1.078 -11.03,-2.059 -7.15,-0.941 -17.5,-2.218 -30.35,-3.308 -25.6,-2.071 -61.7,-4.352 -100.81,3.25 -39.48,7.539 -70.18,27.648 -93.72,37.008 -23.53,10.152 -39.61,11.211 -39.48,12.132 0.01,0.239 4.05,0.489 11.24,-0.601 7.18,-1.02 17.49,-3.488 29.61,-8.11 24.43,-8.75 55.02,-28.058 93.37,-35.32 38.24,-7.441 73.97,-5.82 99.54,-4.691 11.95,0.652 22.1,1.199 30.41,1.66 7.19,0.359 11.19,0.391 11.22,0.039"/><path id="path268" style="fill:#da314b;fill-opacity:1;fill-rule:nonzero;stroke:none" d="m 1580.07,639.219 c -0.02,1.301 -0.04,2.621 -0.06,3.949 5.01,34.363 12.88,68.602 28.37,99.633 16.41,32.847 42.09,62.058 75.52,77.258 15.07,6.839 31.79,10.472 48.37,10.472 20.2,0 40.19,-5.39 56.73,-16.929 9.07,-6.321 17.17,-14.633 20.96,-25.012 3.79,-10.379 2.53,-23.031 -5.05,-31.07 -7.62,-8.079 -18.85,-9.7 -30.36,-9.7 -5.2,0 -10.45,0.328 -15.46,0.551 -2.51,0.109 -5.03,0.16 -7.53,0.16 -70.89,0 -140.35,-43.422 -170.76,-107.59 l -0.73,-1.722"/><path id="path270" style="fill:#111d23;fill-opacity:1;fill-rule:nonzero;stroke:none" d="m 1579.16,637.102 c 0.27,2.019 0.56,4.046 0.85,6.066 0.02,-1.328 0.04,-2.648 0.06,-3.949 l -0.91,-2.117"/><path id="path272" style="fill:#c3c5c2;fill-opacity:1;fill-rule:nonzero;stroke:none" d="m 662.34,701.102 c -11.231,38.207 -20.805,76.886 -28.695,115.929 -1.946,35.938 -4.411,76.168 -7.309,118.617 -1.035,15.18 -2.082,30.071 -3.129,44.582 L 662.34,701.102"/><path id="path274" style="fill:#da314b;fill-opacity:1;fill-rule:nonzero;stroke:none" d="m 674.664,661.398 c -4.309,13.172 -8.414,26.411 -12.324,39.704 L 623.207,980.23 c -3.519,48.67 -7.047,93.01 -10.156,129.53 24.515,-70.59 65,-135.049 92.879,-204.6 30.496,-76.051 44.578,-165.949 4.847,-237.609 l -29.082,-6.071 c -1.129,0 -2.246,-0.011 -3.351,-0.019 -1.242,-0.02 -2.469,-0.039 -3.68,-0.063"/><path id="path276" style="fill:#c3c5c2;fill-opacity:1;fill-rule:nonzero;stroke:none" d="m 626.488,855.141 c -0.121,0.679 -0.238,1.367 -0.355,2.058 l -4.199,66.469 c 1.609,-23.75 3.136,-46.707 4.554,-68.527"/><path id="path278" style="fill:#da314b;fill-opacity:1;fill-rule:nonzero;stroke:none" d="m 626.133,857.199 c -15.445,89.91 -22.039,181.341 -19.52,272.531 0.43,-1.44 0.864,-2.88 1.309,-4.32 3.476,-50.01 8.113,-116.67 13.219,-190.109 0.265,-3.891 0.531,-7.77 0.793,-11.633 l 4.199,-66.469"/><path id="path280" style="fill:#111d23;fill-opacity:1;fill-rule:nonzero;stroke:none" d="m 633.645,817.031 c -2.563,12.668 -4.95,25.367 -7.157,38.11 -1.418,21.82 -2.945,44.777 -4.554,68.527 -0.262,3.863 -0.528,7.742 -0.793,11.633 -5.106,73.439 -9.743,140.099 -13.219,190.109 1.613,-5.25 3.328,-10.47 5.129,-15.65 3.109,-36.52 6.637,-80.86 10.156,-129.53 1.047,-14.511 2.094,-29.402 3.129,-44.582 2.898,-42.449 5.363,-82.679 7.309,-118.617"/><path id="path282" style="fill:#111d23;fill-opacity:1;fill-rule:nonzero;stroke:none" d="m 675.09,660.102 c -0.141,0.437 -0.281,0.867 -0.426,1.296 1.211,0.024 2.438,0.043 3.68,0.063 1.105,0.008 2.222,0.019 3.351,0.019 l -6.605,-1.378"/><path id="path284" style="fill:#f03d5f;fill-opacity:1;fill-rule:nonzero;stroke:none" d="m 781.215,1764.26 c 0,0 48.5,-114.32 223.455,-107.05 174.95,7.27 180.63,143.03 180.63,143.03 l 117.05,-124.44 -111.19,-229.2 -149.38,-111.5 -203.507,83.63 -167.648,130.08 110.59,215.45"/><path id="path286" style="fill:#f687a4;fill-opacity:1;fill-rule:nonzero;stroke:none" d="m 263.223,1188.2 c -0.254,0 -0.438,0.07 -0.539,0.2 -1.801,2.24 21.086,23.59 51.125,47.69 28.308,22.71 52.867,39.76 57.093,39.76 0.258,0 0.438,-0.06 0.543,-0.19 1.793,-2.24 -21.093,-23.6 -51.121,-47.69 -28.32,-22.73 -52.879,-39.77 -57.101,-39.77"/><path id="path288" style="fill:#fafaf9;fill-opacity:1;fill-rule:nonzero;stroke:none" d="m 453.406,1398.97 c -0.898,-2.6 -28.531,5.2 -58.418,23.63 -29.984,18.32 -49.437,39.43 -47.527,41.41 2.004,2.24 23.949,-14.81 52.973,-32.53 28.921,-17.86 54.054,-29.71 52.972,-32.51"/><path id="path290" style="fill:#fafaf9;fill-opacity:1;fill-rule:nonzero;stroke:none" d="m 603.715,1385.58 c 2.355,-1.81 -19.738,-33.94 -44.899,-74.74 -25.289,-40.74 -44.175,-74.84 -46.859,-73.54 -2.512,1.17 12.387,37.75 38.004,79.03 25.496,41.32 51.586,70.98 53.754,69.25"/><path id="path292" style="fill:#fafaf9;fill-opacity:1;fill-rule:nonzero;stroke:none" d="m 475.289,1038.09 c -2.043,-1.81 -25.125,21.71 -45.328,56.68 -20.359,34.9 -29.34,66.6 -26.746,67.48 2.824,1.06 15.91,-28.27 35.754,-62.25 19.668,-34.08 38.644,-59.98 36.32,-61.91"/><path id="path294" style="fill:#fafaf9;fill-opacity:1;fill-rule:nonzero;stroke:none" d="m 341.102,869.93 c -2.852,-0.379 -8.668,25.07 -12.993,56.832 -4.328,31.789 -5.523,57.867 -2.675,58.258 2.851,0.39 8.668,-25.059 12.996,-56.852 4.328,-31.777 5.523,-57.848 2.672,-58.238"/><path id="path296" style="fill:#f687a4;fill-opacity:1;fill-rule:nonzero;stroke:none" d="m 467.723,824.07 c -0.094,0 -0.176,0.02 -0.246,0.059 -2.485,1.441 10.363,28.242 28.699,59.851 17.82,30.719 34.269,54.68 37.465,54.68 0.093,0 0.175,-0.019 0.246,-0.058 2.488,-1.434 -10.36,-28.231 -28.703,-59.852 -17.821,-30.711 -34.266,-54.68 -37.461,-54.68"/><path id="path298" style="fill:#fafaf9;fill-opacity:1;fill-rule:nonzero;stroke:none" d="m 320.66,650.02 c -2.074,-1.872 -24.379,19.992 -46.019,51.628 -21.739,31.582 -34.094,60.25 -31.618,61.52 2.625,1.391 18.86,-24.629 40.207,-55.629 21.243,-31.07 39.668,-55.578 37.43,-57.519"/><path id="path300" style="fill:#fafaf9;fill-opacity:1;fill-rule:nonzero;stroke:none" d="m 520.148,678.738 c 2.047,-2.019 -20.914,-28.508 -51.261,-59.129 -30.367,-30.648 -56.629,-53.839 -58.672,-51.82 -2.043,2.031 20.906,28.512 51.273,59.141 30.352,30.64 56.621,53.84 58.66,51.808"/><path id="path302" style="fill:#f687a4;fill-opacity:1;fill-rule:nonzero;stroke:none" d="m 406.328,319.25 c -3.644,0 -24.594,18.07 -43.785,45.578 -20.316,28.871 -30.129,55.981 -27.605,57.07 0.07,0.032 0.144,0.051 0.226,0.051 3.184,0 16.688,-23.859 35.906,-51.14 19.567,-28.079 37.809,-49.289 35.684,-51.411 -0.094,-0.097 -0.234,-0.148 -0.426,-0.148"/><path id="path304" style="fill:#fafaf9;fill-opacity:1;fill-rule:nonzero;stroke:none" d="m 664.172,392.148 c 1.426,-2.5 -23.156,-19.207 -54.902,-37.308 -31.75,-18.11 -58.641,-30.762 -60.067,-28.262 -1.422,2.5 23.152,19.203 54.91,37.301 31.739,18.109 58.633,30.769 60.059,28.269"/><path id="path306" style="fill:#fafaf9;fill-opacity:1;fill-rule:nonzero;stroke:none" d="m 764.512,474.961 c -1.77,-2.082 -25.164,15.719 -46.285,44.789 -21.27,28.98 -31.106,56.68 -28.579,57.73 2.735,1.282 16.43,-23.609 36.993,-51.582 20.382,-28.097 39.914,-48.73 37.871,-50.937"/><path id="path308" style="fill:#fafaf9;fill-opacity:1;fill-rule:nonzero;stroke:none" d="m 941.438,1050.83 c 1.722,-2.31 -24.754,-25.04 -59.129,-50.78 -34.391,-25.761 -63.661,-44.749 -65.383,-42.448 -1.723,2.296 24.746,25.027 59.137,50.788 34.378,25.73 63.652,44.73 65.375,42.44"/><path id="path310" style="fill:#fafaf9;fill-opacity:1;fill-rule:nonzero;stroke:none" d="m 754.961,1062.86 c -2.863,0.29 -2.398,27.69 1.039,61.19 3.434,33.51 8.539,60.42 11.398,60.13 2.86,-0.3 2.395,-27.69 -1.039,-61.19 -3.437,-33.5 -8.539,-60.42 -11.398,-60.13"/><path id="path312" style="fill:#f687a4;fill-opacity:1;fill-rule:nonzero;stroke:none" d="m 926.395,1296.95 c -4.469,0 -33.926,18.56 -66.09,46.06 -34.09,29.01 -57.817,56.6 -55.805,58.54 0.086,0.08 0.211,0.12 0.375,0.12 3.902,0 29.855,-23.23 62.191,-50.74 33.61,-28.75 61.559,-51.39 59.844,-53.79 -0.086,-0.13 -0.262,-0.19 -0.515,-0.19"/><path id="path314" style="fill:#fafaf9;fill-opacity:1;fill-rule:nonzero;stroke:none" d="m 797.805,1589.3 c 2.195,-1.85 -19.68,-31.25 -48.852,-65.63 -29.176,-34.4 -54.605,-60.76 -56.797,-58.91 -2.191,1.87 19.68,31.25 48.86,65.65 29.164,34.38 54.597,60.76 56.789,58.89"/><path id="path316" style="fill:#f687a4;fill-opacity:1;fill-rule:nonzero;stroke:none" d="m 648.848,1620.24 c -4.914,0 -25.571,10.16 -51.684,18.94 -0.137,3.79 -0.269,7.48 -0.398,11.1 1.156,-0.37 2.32,-0.75 3.492,-1.15 30.367,-10.21 51.16,-26.27 49.617,-28.53 -0.152,-0.25 -0.496,-0.36 -1.027,-0.36"/><path id="path318" style="fill:#f687a4;fill-opacity:1;fill-rule:nonzero;stroke:none" d="m 597.164,1639.18 c -0.082,0.03 -0.164,0.06 -0.246,0.08 -28.98,9.94 -53.707,14.4 -53.398,17.41 0.05,0.93 3.183,1.56 8.5,1.56 9.57,0 26.222,-2.03 44.746,-7.95 0.129,-3.62 0.261,-7.31 0.398,-11.1"/><path id="path320" style="fill:#fafaf9;fill-opacity:1;fill-rule:nonzero;stroke:none" d="m 1025.81,1485.91 c -2.76,0.81 1.97,25.14 10.55,54.35 8.59,29.21 17.79,52.23 20.55,51.42 2.76,-0.81 -1.97,-25.15 -10.55,-54.36 -8.59,-29.21 -17.79,-52.23 -20.55,-51.41"/><path id="path322" style="fill:#fafaf9;fill-opacity:1;fill-rule:nonzero;stroke:none" d="m 1115.66,1255.73 c -2.87,0.17 -3.84,23.98 -2.16,53.19 1.68,29.21 5.37,52.76 8.24,52.59 2.87,-0.17 3.84,-23.97 2.15,-53.19 -1.67,-29.2 -5.36,-52.75 -8.23,-52.59"/><path id="path324" style="fill:#fafaf9;fill-opacity:1;fill-rule:nonzero;stroke:none" d="m 1263.4,1083.02 c -1.81,-2.24 -23.69,12.37 -48.9,32.62 -25.2,20.27 -44.16,38.5 -42.36,40.74 1.8,2.25 23.69,-12.36 48.89,-32.62 25.2,-20.26 44.17,-38.5 42.37,-40.74"/><path id="path326" style="fill:#fafaf9;fill-opacity:1;fill-rule:nonzero;stroke:none" d="m 1420.8,1324.2 c 1.9,-2.16 -17.63,-22.5 -43.62,-45.44 -26.01,-22.94 -48.63,-39.79 -50.53,-37.63 -1.9,2.16 17.63,22.5 43.64,45.44 25.99,22.94 48.61,39.78 50.51,37.63"/><path id="path328" style="fill:#f687a4;fill-opacity:1;fill-rule:nonzero;stroke:none" d="m 1347.72,1437.78 c -4.53,0 -27.54,13.13 -52.16,33.6 -26.69,22.07 -44.58,43.87 -42.55,45.8 0.11,0.11 0.27,0.17 0.48,0.17 3.82,0 23.89,-17.42 48.72,-37.95 26.13,-21.74 47.88,-38.9 46.24,-41.36 -0.11,-0.17 -0.36,-0.26 -0.73,-0.26"/><path id="path330" style="fill:#fafaf9;fill-opacity:1;fill-rule:nonzero;stroke:none" d="m 1530.31,1641.01 c 2.28,-1.58 -9.84,-22.28 -31.24,-42.3 -21.32,-20.13 -42.72,-30.94 -44.16,-28.57 -1.62,2.5 16.52,16.78 37.03,36.16 20.6,19.25 35.98,36.48 38.37,34.71"/><path id="path332" style="fill:#f687a4;fill-opacity:1;fill-rule:nonzero;stroke:none" d="m 1399.06,1658.93 c -11.13,0 -35.97,3.11 -64.22,10.3 -13.75,3.45 -26.33,7.37 -36.75,11.09 l -11.05,11.75 c 12.55,-2.96 30.43,-7.74 50.35,-12.75 37.52,-9.55 68.31,-16.37 67.87,-19.29 -0.1,-0.72 -2.31,-1.1 -6.2,-1.1"/><path id="path334" style="fill:#f687a4;fill-opacity:1;fill-rule:nonzero;stroke:none" d="m 1298.09,1680.32 c -18.51,6.62 -30.22,12.61 -29.6,14.29 0.13,0.36 0.76,0.53 1.83,0.53 2.8,0 8.66,-1.16 16.72,-3.07 l 11.05,-11.75"/><path id="path336" style="fill:#f687a4;fill-opacity:1;fill-rule:nonzero;stroke:none" d="m 1637.6,1336.84 c -0.03,0 -0.05,0.01 -0.08,0.01 -2.73,0.59 3.5,39.66 17.77,86.19 13.97,45.91 30.36,81.43 33.31,81.43 0.05,0 0.09,0 0.12,-0.02 2.76,-1.07 -9.43,-38.32 -23.47,-84.45 -14.01,-45.71 -24.67,-83.16 -27.65,-83.16"/><path id="path338" style="fill:#fafaf9;fill-opacity:1;fill-rule:nonzero;stroke:none" d="m 1688.96,1116.29 c -2.09,-1.99 -26.78,20.78 -55.14,50.83 -28.37,30.05 -49.67,56.02 -47.57,57.99 2.09,1.98 26.78,-20.79 55.14,-50.85 28.36,-30.04 49.66,-56 47.57,-57.97"/><path id="path340" style="fill:#f687a4;fill-opacity:1;fill-rule:nonzero;stroke:none" d="m 1768.67,991.301 c -0.01,0 -0.01,0 -0.01,0 -2.88,0.051 -4.65,32.829 -3.96,73.199 0.69,40.35 3.57,73.03 6.45,73.03 v 0 c 2.88,-0.05 4.65,-32.83 3.97,-73.21 -0.69,-40.35 -3.58,-73.019 -6.45,-73.019"/><path id="path342" style="fill:#fafaf9;fill-opacity:1;fill-rule:nonzero;stroke:none" d="m 1687.76,785.551 c -2.25,-1.629 -23.71,24.59 -43.47,61.199 -19.87,36.578 -30.1,68.871 -27.51,69.859 2.76,1.11 17.12,-28.949 36.67,-64.89 19.42,-36 36.75,-64.457 34.31,-66.168"/><path id="path344" style="fill:#fafaf9;fill-opacity:1;fill-rule:nonzero;stroke:none" d="m 1894.33,747.988 c 2.02,-2.07 -11.86,-18.867 -30.98,-37.539 -19.12,-18.679 -36.25,-32.14 -38.26,-30.078 -2.01,2.047 11.87,18.859 30.99,37.527 19.12,18.672 36.25,32.141 38.25,30.09"/><path id="path346" style="fill:#f687a4;fill-opacity:1;fill-rule:nonzero;stroke:none" d="m 1391.64,982.469 c -0.06,0 -0.12,0.011 -0.17,0.031 -2.56,0.781 6.63,33.58 30.33,67.71 22.38,32.64 48.3,52.54 52.14,52.54 0.19,0 0.33,-0.05 0.41,-0.15 2.05,-2.29 -21.37,-25.27 -43.98,-58.31 -22.44,-32.26 -35.55,-61.821 -38.73,-61.821"/><path id="path348" style="fill:#fafaf9;fill-opacity:1;fill-rule:nonzero;stroke:none" d="m 808.344,708.109 c -2.793,0.692 2.129,30.442 10.996,66.45 8.859,36.019 18.312,64.66 21.105,63.961 2.793,-0.68 -2.129,-30.43 -10.996,-66.45 -8.859,-36.011 -18.312,-64.64 -21.105,-63.961"/><path id="path350" style="fill:#fafaf9;fill-opacity:1;fill-rule:nonzero;stroke:none" d="m 1053.98,683.668 c -1.56,-2.406 -26.47,11.043 -55.609,30.043 -29.144,19 -51.492,36.348 -49.922,38.758 1.571,2.41 26.465,-11.039 55.611,-30.039 29.14,-19 51.49,-36.352 49.92,-38.762"/><path id="path352" style="fill:#fafaf9;fill-opacity:1;fill-rule:nonzero;stroke:none" d="m 1041.66,860.871 c -2.39,-1.609 -14.1,11.707 -26.14,29.738 -12.06,18.032 -19.875,33.942 -17.485,35.539 2.385,1.59 14.095,-11.718 26.145,-29.75 12.04,-18.019 19.87,-33.929 17.48,-35.527"/><path id="path354" style="fill:#fafaf9;fill-opacity:1;fill-rule:nonzero;stroke:none" d="m 1149.98,820.488 c 1.65,-2.359 -8.87,-12.59 -23.49,-22.867 -14.64,-10.269 -27.83,-16.691 -29.49,-14.332 -1.65,2.352 8.87,12.59 23.5,22.859 14.63,10.274 27.83,16.692 29.48,14.34"/><path id="path356" style="fill:#f687a4;fill-opacity:1;fill-rule:nonzero;stroke:none" d="m 867.32,101.531 c -0.054,0 -0.109,0.008 -0.16,0.028 -2.832,0.859 1.789,23.562 5.899,51.589 0.48,3.172 0.933,6.27 1.363,9.282 3.695,3.129 7.363,6.289 11.023,9.461 -0.34,-6.25 -1,-13.102 -2.082,-20.27 -4.175,-28.359 -13.195,-50.09 -16.043,-50.09"/><path id="path358" style="fill:#f0859a;fill-opacity:1;fill-rule:nonzero;stroke:none" d="m 874.422,162.43 c 3.383,23.66 5.414,41.808 8.043,41.808 0.004,0 0.004,0 0.008,0 2.093,0 4.004,-13.418 2.972,-32.347 -3.66,-3.172 -7.328,-6.332 -11.023,-9.461"/><path id="path360" style="fill:#f687a4;fill-opacity:1;fill-rule:nonzero;stroke:none" d="m 1116.17,182.641 c -3.2,0 -21.78,28.16 -42.2,64.05 -2.9,5.09 -5.68,10.059 -8.31,14.868 3.63,0.511 7.27,0.992 10.93,1.429 2.11,-3.609 4.26,-7.34 6.43,-11.16 20.92,-36.75 35.86,-67.719 33.35,-69.137 -0.06,-0.031 -0.12,-0.05 -0.2,-0.05"/><path id="path362" style="fill:#f0859a;fill-opacity:1;fill-rule:nonzero;stroke:none" d="m 1065.66,261.559 c -16.41,29.902 -27.2,53.05 -25.05,54.269 0.06,0.031 0.13,0.051 0.21,0.051 2.86,0 18,-22.488 35.77,-52.891 -3.66,-0.437 -7.3,-0.918 -10.93,-1.429"/><path id="path364" style="fill:#f687a4;fill-opacity:1;fill-rule:nonzero;stroke:none" d="m 1260.75,136.988 c -0.09,0 -0.16,0.024 -0.22,0.071 -2.28,1.75 22.77,38.332 55.97,81.742 32.35,42.301 60.51,75.461 64.01,75.461 0.09,0 0.16,-0.024 0.22,-0.063 2.28,-1.75 -22.77,-38.347 -55.96,-81.73 -32.37,-42.328 -60.52,-75.481 -64.02,-75.481"/><path id="path366" style="fill:#f687a4;fill-opacity:1;fill-rule:nonzero;stroke:none" d="m 1313.43,59.1094 c -4.75,0 -7.46,0.3711 -7.57,1.1719 -0.41,2.8398 32.68,9.9882 73.93,15.9492 29.75,4.3008 55.61,6.8203 67.87,6.8203 4.73,0 7.43,-0.3789 7.54,-1.1719 0.42,-2.8476 -32.69,-9.9883 -73.92,-15.9609 -29.74,-4.2969 -55.59,-6.8086 -67.85,-6.8086"/><path id="path368" style="fill:#fafaf9;fill-opacity:1;fill-rule:nonzero;stroke:none" d="m 1466.66,188.852 c -2.9,0.66 -0.29,22 0.77,48.207 1.22,26.211 0.47,47.679 3.42,48.082 2.74,0.449 8.24,-21.243 6.99,-48.539 -1.13,-27.301 -8.49,-48.434 -11.18,-47.75"/><path id="path370" style="fill:#fafaf9;fill-opacity:1;fill-rule:nonzero;stroke:none" d="m 1109.75,64.25 c -1,-2.5508 -28.03,6.4297 -56.22,26.8008 -28.31,20.2382 -45.43,42.9882 -43.33,44.7502 2.22,2.039 22.14,-16.821 49.41,-36.2893 C 1086.75,79.8711 1110.97,67 1109.75,64.25"/><path id="path372" style="fill:#fafaf9;fill-opacity:1;fill-rule:nonzero;stroke:none" d="m 685.656,80.0586 c -2.793,0.7031 0.555,23.5434 7.469,51.0114 6.918,27.489 14.781,49.188 17.57,48.489 2.789,-0.7 -0.554,-23.539 -7.468,-51.028 -6.914,-27.472 -14.782,-49.1794 -17.571,-48.4724"/><path id="path374" style="fill:#33535f;fill-opacity:1;fill-rule:nonzero;stroke:none" d="m 639.574,2609.42 c 0.649,0.82 12.004,-8.95 32.938,-20.45 10.41,-5.84 23.449,-11.57 38.316,-16.72 14.973,-4.85 31.84,-8.94 49.883,-11.13 18.074,-1.97 35.434,-1.82 51.117,-0.5 15.656,1.64 29.652,4.26 41.117,7.58 23,6.44 36.278,13.37 36.727,12.43 0.16,-0.33 -3.067,-2.18 -9.086,-5.28 -2.988,-1.6 -6.711,-3.42 -11.227,-5.1 -4.484,-1.73 -9.507,-4 -15.367,-5.58 -11.523,-3.83 -25.719,-6.88 -41.672,-8.82 -15.984,-1.61 -33.738,-1.91 -52.207,0.09 -18.433,2.25 -35.652,6.57 -50.847,11.77 -15.094,5.51 -28.223,11.71 -38.571,18.06 -5.351,2.87 -9.726,6.22 -13.699,8.93 -4.019,2.66 -7.226,5.27 -9.769,7.51 -5.164,4.39 -7.887,6.93 -7.653,7.21"/><path id="path376" style="fill:#33535f;fill-opacity:1;fill-rule:nonzero;stroke:none" d="m 897.922,2494.39 c 0.074,-0.34 -3.793,-1.57 -10.899,-3.37 -7.101,-1.81 -17.457,-4.15 -30.382,-6.4 -25.7,-4.38 -62.625,-8.75 -102.438,-0.61 -39.875,8.26 -71.742,29.99 -88.508,50.45 -8.515,10.19 -13.89,19.58 -16.761,26.38 -2.926,6.78 -3.914,10.75 -3.657,10.84 1.063,0.55 5.793,-15.53 23.188,-34.79 16.98,-19.25 48.098,-39.75 86.801,-47.78 38.765,-7.94 75.132,-4.29 100.812,-0.86 12.902,1.78 23.324,3.56 30.531,4.75 7.211,1.19 11.231,1.75 11.313,1.39"/><path id="path378" style="fill:#33535f;fill-opacity:1;fill-rule:nonzero;stroke:none" d="m 541.836,1882.38 c -0.074,-0.06 -0.516,0.41 -1.32,1.38 -0.766,0.99 -2.055,2.39 -3.399,4.46 -2.656,4.13 -6.117,10.74 -7.972,20.02 -3.942,18.23 0.16,47.98 21.98,74.29 10.848,12.95 25.387,24.58 41.828,35.28 16.391,10.83 34.84,20.77 52.899,32.95 17.882,12.23 35.933,27.07 48.183,47.04 6.07,9.94 10.391,21.16 11.973,33.05 1.676,11.88 0.742,24.23 -1.93,36.37 -5.457,24.39 -16.398,46.75 -25.32,68.97 -9.184,22.06 -16.352,44.89 -16.903,67.32 -1.832,44.98 14.942,83.85 34.293,110.84 19.579,27.47 42.477,43.48 58.989,51.99 4.144,1.99 7.875,3.77 11.199,5.37 3.262,1.14 6.113,2.14 8.586,3 4.652,1.58 7.105,2.31 7.16,2.14 0.055,-0.17 -2.293,-1.24 -6.801,-3.12 -2.39,-0.99 -5.156,-2.13 -8.32,-3.44 -3.223,-1.7 -6.84,-3.61 -10.863,-5.73 -16,-8.95 -38.141,-25.14 -56.942,-52.34 -18.601,-26.72 -34.562,-64.88 -32.508,-108.5 0.672,-21.74 7.641,-43.65 16.836,-65.6 8.903,-22.04 20.004,-44.52 25.684,-69.79 2.77,-12.58 3.77,-25.59 1.973,-38.2 -1.696,-12.6 -6.344,-24.58 -12.75,-34.98 -12.957,-20.95 -31.618,-36.04 -49.852,-48.37 -18.457,-12.27 -36.914,-22.03 -53.234,-32.59 -16.364,-10.43 -30.672,-21.63 -41.379,-34.07 -21.399,-25.04 -26.02,-53.79 -22.785,-71.52 3.226,-18.23 11.488,-25.87 10.695,-26.22"/><path id="path380" style="fill:#33535f;fill-opacity:1;fill-rule:nonzero;stroke:none" d="m 808.176,1878.74 c -0.086,-0.16 -2.059,0.95 -5.785,3.26 -3.438,2.62 -8.641,6.78 -12.903,14.04 -4.39,7.11 -7.898,17 -8.996,28.82 -1.097,11.82 0.238,25.45 4.36,39.76 8.121,29.36 32.656,56.07 51.074,89.61 9.148,16.77 15.691,36.21 15.035,56.97 -0.356,20.69 -6.637,41.76 -16.066,61.73 -18.997,40.21 -48.2,72.17 -68.368,105.63 -10.207,16.65 -18.558,33.49 -23.593,50.27 -5.332,16.75 -6.309,33.42 -4.911,48.21 2.809,29.9 16.61,51.74 29.125,62.53 6.399,5.34 12.036,8.59 16.036,10.3 4.046,1.63 6.179,2.39 6.242,2.22 0.367,-0.67 -8.856,-3.09 -20.918,-14.02 -11.727,-10.94 -24.539,-32.31 -26.817,-61.36 -1.117,-14.4 0.028,-30.44 5.368,-46.6 5.074,-16.28 13.375,-32.67 23.546,-49.02 10.219,-16.36 22.336,-32.68 34.661,-49.87 12.355,-17.14 24.699,-35.56 34.339,-56.08 9.641,-20.42 16.149,-42.2 16.454,-63.86 0.636,-21.74 -6.422,-42.27 -15.911,-59.34 -19.14,-34.13 -43.621,-60.31 -51.777,-88.39 -4.215,-13.82 -5.769,-27.03 -4.98,-38.46 0.797,-11.44 3.882,-21.03 7.847,-28.01 8.067,-14.24 17.633,-17.63 16.938,-18.34"/><path id="path382" style="fill:#33535f;fill-opacity:1;fill-rule:nonzero;stroke:none" d="m 1202.82,2629.44 c -0.09,-0.17 -1.38,0.39 -3.78,1.59 -2.38,1.23 -5.79,3.27 -9.9,6.31 -8.2,6.05 -18.94,16.63 -28.76,32.07 -10.05,15.32 -18.6,35.39 -27.69,57.43 -4.6,11 -9.51,22.48 -15.55,33.83 -6.31,11.17 -13.26,22.56 -22.08,32.97 -34.61,42.68 -81.2,65.59 -115.58,74.5 -34.839,9.09 -57.582,7.03 -57.507,8.24 -0.012,0.34 5.57,0.74 15.742,0.89 10.121,-0.43 24.933,-1.2 42.676,-5.56 17.668,-4.34 38.409,-11.64 59.209,-23.99 20.71,-12.31 42.04,-28.91 59.5,-50.79 9.03,-10.67 16.15,-22.39 22.54,-33.87 6.12,-11.65 10.99,-23.31 15.49,-34.4 8.87,-22.2 16.93,-42.06 26.37,-57.3 9.22,-15.36 19.25,-26.02 26.9,-32.44 7.68,-6.43 12.66,-9.07 12.42,-9.48"/><path id="path384" style="fill:#33535f;fill-opacity:1;fill-rule:nonzero;stroke:none" d="m 1342.29,2630.26 c -0.03,-0.18 -1.87,0.02 -5.38,0.56 -3.52,0.46 -8.63,1.71 -15.02,3.9 -12.76,4.34 -30.43,13.91 -47.67,30.98 -17.43,16.79 -34.25,40.52 -49.48,68.35 -15.65,27.48 -30.85,59.1 -54.37,86.6 -23.27,27.84 -54.88,44.42 -84.85,52.93 -30.19,8.59 -58.79,10.33 -82.56,11.02 -23.855,0.53 -43.206,-0.47 -56.569,-0.99 -6.207,-0.24 -11.293,-0.43 -15.407,-0.59 -3.523,-0.09 -5.386,-0.05 -5.398,0.13 -0.012,0.18 1.82,0.49 5.32,0.92 3.504,0.41 8.672,1.01 15.352,1.56 13.344,1.14 32.711,2.71 56.742,2.65 23.96,-0.23 52.9,-1.57 83.82,-10.08 30.65,-8.39 63.54,-25.47 87.49,-54.15 24.14,-28.26 39.25,-60.19 54.63,-87.67 14.92,-27.8 31.1,-51.25 47.87,-68.07 16.58,-17.05 33.5,-26.85 45.8,-31.7 12.35,-4.86 19.8,-5.78 19.68,-6.35"/><path id="path386" style="fill:#33535f;fill-opacity:1;fill-rule:nonzero;stroke:none" d="m 1578.43,1981.21 c -0.58,0.22 2.55,7.1 5.87,20.19 3.32,13.02 7.08,32.41 6.02,56.48 -0.86,23.92 -6.56,52.67 -21.26,80.81 -7.26,14.08 -16.97,27.65 -28.59,40.46 -11.58,12.86 -24.83,25.09 -38.23,37.89 -13.4,12.79 -26.35,25.71 -37.06,39.77 -10.79,13.97 -19.6,28.61 -26.67,43.18 -7.11,14.54 -12.39,29.06 -16.11,42.96 -3.86,13.85 -6.27,27.08 -7.52,39.22 -2.69,24.32 -1.31,44.19 0.56,57.66 0.79,6.76 1.99,11.92 2.76,15.42 0.78,3.5 1.27,5.31 1.45,5.27 0.53,-0.09 -1.01,-7.47 -2.19,-20.92 -1.25,-13.43 -2.04,-33.07 1.07,-56.99 1.47,-11.94 4.06,-24.92 8.02,-38.49 3.84,-13.61 9.18,-27.81 16.28,-42.03 7.04,-14.23 15.77,-28.52 26.38,-42.15 10.51,-13.7 23.27,-26.38 36.63,-39.14 13.36,-12.76 26.69,-25.09 38.43,-38.23 11.77,-13.09 21.73,-27.17 29.06,-41.67 14.85,-29.02 20.27,-58.51 20.67,-82.91 0.6,-24.55 -3.79,-44.15 -7.74,-57.14 -2.01,-6.53 -3.89,-11.48 -5.42,-14.73 -1.42,-3.29 -2.25,-4.98 -2.41,-4.91"/><path id="path388" style="fill:#33535f;fill-opacity:1;fill-rule:nonzero;stroke:none" d="m 482.941,2638.17 c -0.289,0.04 -0.097,3.58 1.27,9.8 1.344,6.23 4.312,15.09 9.824,25.16 10.613,19.92 34.481,44.95 69.328,53.46 34.938,8.19 67.555,-3.34 86.024,-16.3 9.472,-6.48 16.133,-13.04 20.14,-17.99 4.039,-4.93 5.809,-8 5.575,-8.17 -0.817,-0.76 -8.782,11.25 -27.711,23.06 -18.395,11.78 -49.727,22.1 -82.817,14.34 -33.011,-8.06 -56.281,-31.43 -67.355,-50.25 -11.535,-19.11 -13.203,-33.42 -14.278,-33.11"/><path id="path390" style="fill:#33535f;fill-opacity:1;fill-rule:nonzero;stroke:none" d="m 579.844,2596.07 c -0.637,0.12 0.027,8.81 2.793,22.7 2.926,13.56 7.988,33.78 23.633,50.13 16.312,16.38 39.378,18.4 53.003,13.42 6.942,-2.54 11.754,-6.43 14.172,-9.71 2.504,-3.2 3.282,-5.33 3.047,-5.46 -0.808,-0.82 -5.172,7.88 -18.336,11.66 -12.57,3.7 -33.64,1.12 -48.164,-13.55 -14.437,-15 -20.004,-34.14 -23.777,-47.36 -3.641,-13.47 -5.598,-21.99 -6.371,-21.83"/><path id="path392" style="fill:#f03d5f;fill-opacity:1;fill-rule:nonzero;stroke:none" d="m 706.855,2742.55 c 1.352,-0.95 -15.343,-22.88 -26.265,-54.48 -11.242,-31.49 -11.93,-59.04 -13.574,-58.93 -1.227,-0.2 -2.903,28.18 8.66,60.66 11.289,32.57 30.347,53.67 31.179,52.75"/><path id="path394" style="fill:#33535f;fill-opacity:1;fill-rule:nonzero;stroke:none" d="m 2306.67,2498.77 c 0,-17.19 13.93,-31.12 31.12,-31.12 17.19,0 31.12,13.93 31.12,31.12 0,17.19 -13.93,31.12 -31.12,31.12 -17.19,0 -31.12,-13.93 -31.12,-31.12"/><path id="path396" style="fill:#33535f;fill-opacity:1;fill-rule:nonzero;stroke:none" d="m 2182.12,2498.77 c 0,-17.19 13.93,-31.12 31.12,-31.12 17.2,0 31.12,13.93 31.12,31.12 0,17.19 -13.92,31.12 -31.12,31.12 -17.19,0 -31.12,-13.93 -31.12,-31.12"/><path id="path398" style="fill:#33535f;fill-opacity:1;fill-rule:nonzero;stroke:none" d="m 2057.89,2514.33 c -8.6,-14.88 -3.5,-33.92 11.39,-42.51 14.89,-8.6 33.92,-3.5 42.51,11.39 8.6,14.89 3.5,33.92 -11.38,42.51 -14.89,8.6 -33.93,3.5 -42.52,-11.39"/><path id="path400" style="fill:#33535f;fill-opacity:1;fill-rule:nonzero;stroke:none" d="m 2211.32,2862.29 c 0,0.14 -2.13,0.17 -6.3,0.1 -4.56,-0.13 -10.69,-0.3 -18.49,-0.52 -4.06,-0.19 -8.63,-0.19 -13.63,-0.61 -5.01,-0.7 -10.45,-1.46 -16.32,-2.29 -5.92,-0.85 -12.27,-1.76 -19.03,-2.73 -6.68,-1.66 -13.77,-3.42 -21.27,-5.28 -29.89,-7.68 -66.09,-20.81 -103.1,-44.95 -36.99,-23.73 -75.42,-57.69 -106.62,-103.84 -30.61,-46.2 -54.23,-104.32 -60.48,-169.6 -0.62,-16.34 -2.59,-32.96 -1.01,-49.85 0.59,-8.43 0.42,-17.01 1.65,-25.51 1.28,-8.49 2.57,-17.05 3.87,-25.67 6.96,-34.06 17.09,-68.95 34.64,-101.45 17.15,-32.57 39.26,-63.56 66.26,-91.17 27.53,-27.04 59.68,-50.5 95.47,-68.58 35.67,-18.23 75.21,-30.82 116.36,-35.71 10.19,-2.03 20.62,-2.02 31.03,-2.65 10.42,-0.68 20.87,-1.06 31.38,-0.57 20.99,0.85 42.04,3.49 62.84,7.94 45.2,9.62 87.75,28.03 125.11,52.65 l -3.8,-0.39 c 43.36,-17.4 85.91,-34.47 127.43,-51.14 l 7.55,-3.03 -2.16,7.84 c -12.85,46.76 -25.36,92.24 -37.46,136.23 l -0.64,-3.36 c 35.76,47.52 58.56,101.78 68.01,155.67 4.73,26.92 6.73,53.79 4.95,79.76 -0.56,13 -1.18,25.84 -3.62,38.3 -0.97,6.26 -1.94,12.47 -2.9,18.64 -1.13,6.13 -2.99,12.07 -4.45,18.05 -24.62,95.89 -83.68,166.72 -142.18,207.26 -29.28,20.62 -58.15,35.41 -84.61,44.64 -6.59,2.35 -12.94,4.63 -19.05,6.82 -6.28,1.59 -12.31,3.12 -18.1,4.59 -5.77,1.43 -11.28,2.8 -16.55,4.1 -5.31,1.02 -10.44,1.57 -15.23,2.31 -9.64,1.22 -18.1,2.88 -25.52,3.25 -7.31,0.25 -13.54,0.45 -18.73,0.63 -4.74,0.11 -8.51,0.19 -11.44,0.25 -2.56,0.02 -3.86,-0.02 -3.86,-0.13 0,-0.12 1.3,-0.29 3.86,-0.53 2.91,-0.23 6.66,-0.53 11.39,-0.9 5.16,-0.35 11.35,-0.77 18.6,-1.26 7.36,-0.57 15.75,-2.43 25.28,-3.84 37.51,-6.88 93.73,-21.83 151.17,-63.83 57.35,-40.55 114.91,-110.71 138.59,-204.98 1.4,-5.87 3.21,-11.7 4.29,-17.73 0.91,-6.06 1.83,-12.17 2.75,-18.31 2.35,-12.25 2.89,-24.84 3.37,-37.61 1.66,-25.49 -0.43,-51.83 -5.16,-78.19 -9.45,-52.77 -31.94,-105.83 -67.07,-152.29 l -1.15,-1.52 0.5,-1.84 c 12.01,-44.02 24.43,-89.53 37.19,-136.31 l 5.39,4.8 c -41.5,16.71 -84.03,33.83 -127.37,51.29 l -2,0.8 -1.81,-1.19 c -36.55,-24.04 -78.15,-42.01 -122.31,-51.41 -20.33,-4.35 -40.9,-6.94 -61.42,-7.77 -10.28,-0.49 -20.5,-0.12 -30.68,0.55 -10.17,0.61 -20.39,0.58 -30.35,2.56 -40.23,4.76 -78.88,17.02 -113.8,34.8 -35.01,17.63 -66.5,40.52 -93.5,66.92 -26.48,26.97 -48.2,57.26 -65.08,89.1 -17.29,31.77 -27.3,65.91 -34.26,99.26 -1.31,8.45 -2.61,16.84 -3.89,25.16 -1.24,8.32 -1.1,16.74 -1.71,25 -1.63,16.57 0.25,32.88 0.76,48.92 5.85,64.09 28.71,121.3 58.52,166.99 30.39,45.61 67.99,79.39 104.27,103.2 36.3,24.2 71.93,37.63 101.43,45.72 7.4,1.98 14.4,3.85 20.99,5.6 6.7,1.1 12.98,2.13 18.84,3.09 5.81,0.96 11.2,1.85 16.16,2.67 4.96,0.55 9.5,0.67 13.53,1 7.76,0.56 13.86,1 18.4,1.33 4.15,0.36 6.28,0.6 6.28,0.75"/></g></g></svg>