<svg xmlns:dc="http://purl.org/dc/elements/1.1/" xmlns:cc="http://creativecommons.org/ns#" xmlns:rdf="http://www.w3.org/1999/02/22-rdf-syntax-ns#" xmlns:svg="http://www.w3.org/2000/svg" xmlns="http://www.w3.org/2000/svg" viewBox="0 0 2666.6667 2666.6667" height="2666.6667" width="2666.6667" xml:space="preserve" id="svg2" version="1.1" style="&#10;    height: 100%;&#10;    width: 100%;&#10;"><metadata id="metadata8"><rdf:RDF><cc:Work rdf:about=""><dc:format>image/svg+xml</dc:format><dc:type rdf:resource="http://purl.org/dc/dcmitype/StillImage"/></cc:Work></rdf:RDF></metadata><defs id="defs6"/><g transform="matrix(1.3333333,0,0,-1.3333333,0,2666.6667)" id="g10"><g transform="scale(0.1)" id="g12"><g transform="scale(1.22699)" id="g14"/><path id="path18" style="fill:#dfebfd;fill-opacity:1;fill-rule:nonzero;stroke:none" d="m 8603.87,9233.4 c 0,0 -797.46,-1803.7 -1123.91,-1634.6 -326.44,169.1 1033.51,1945.8 1033.51,1945.8 0,0 -993.37,1734.5 -1614.56,2078.6 0,0 -151.61,-2192.4 -426.39,-1948.2 -274.77,244.3 -222.97,2533 -222.97,2533 0,0 -1328.07,1328.3 -2192.4,594.4 -864.33,-733.9 -779.83,-1456.1 -593.12,-1667.5 186.7,-211.4 1646.31,-1187.3 1479.55,-1349.4 -166.76,-162 -1350.44,209.1 -1779.03,752.9 0,0 -419.34,-1897.7 421.44,-2365.1 840.77,-467.5 1420.9,-146.9 1935.23,-445.2 514.33,-298.3 780.88,-675.3 446.2,-638.9 -334.68,36.5 -1100.56,693.3 -1725.75,629.2 -625.18,-64.2 -1086.68,-51.2 -457.29,-705.4 629.39,-654.1 2009.16,-1464.4 2659.75,-1081.7 28.36,16.7 55.41,32.7 81.35,47.9 -47.9,-35.6 -81.35,-47.9 -81.35,-47.9 80.96,-171.8 25.11,-687.2 -32.59,-1072.4 -13.72,-62.9 -28.71,-152.6 -45.01,-277.3 v 0 c -9.57,-54.8 -17.75,-99.4 -23.58,-130.5 C 6156.88,3627.2 5252.71,2605.3 5252.71,2605.3 l 127.63,-149.7 c 1120.24,886.3 1147.09,2228.6 1147.09,2228.6 109.27,1004.1 567.29,1629.9 567.29,1629.9 0,0 1951.69,-179.7 2030.45,1343.3 0,0 -73.92,1019.3 -521.3,1576"/><path id="path20" style="fill:#efa26f;fill-opacity:1;fill-rule:nonzero;stroke:none" d="m 14327.7,10026.2 c 0,0 -952.3,-1905.1 -1919.7,-3220.2 -384.8,-523.4 -772.2,-953.3 -1102.7,-1132.6 -323.6,-175.4 -597.5,-448 -824.1,-750 C 9894.15,4141.3 9623.25,3162.2 9623.25,3162.2 L 7149.63,6904.5 c 0,0 84.41,3658.1 381.41,4270 432.87,891.7 641.97,2693.4 808.27,3052.1 123.37,266.1 475.67,1640.6 509.46,1741.6 14.67,43.5 131.9,110.2 284.13,110.1 122.17,0 329.58,-118.1 381.89,-360.7 264.53,-1226.5 -53.87,-2035.5 -50.26,-2071.4 93.3,-942.6 -187.22,-1642.3 9.49,-1827.6 7.34,-6.8 20.93,-3.6 40.17,8.7 341,218.9 2457.51,3304.6 2718.21,3371.2 275.3,70.2 2095.3,-5172.3 2095.3,-5172.3"/><path id="path22" style="fill:#f99746;fill-opacity:1;fill-rule:nonzero;stroke:none" d="m 10367.4,3902.8 c 0,0 -33.7,-1663 -130.1,-3902.8 H 3997.82 c 1426.23,3041.4 2666.16,5601.2 2666.16,5601.2 0,0 3552.72,-108.5 3703.42,-1698.4"/><g transform="scale(1.06993)" id="g24"><path id="path26" style="fill:#ffb27d;fill-opacity:1;fill-rule:nonzero;stroke:none" d="m 15412.6,15397 -716,-1049.6 -702.5,-1030 c -42.8,-51.6 -92.5,-69.6 -146.1,-64.4 -168.5,16 -377.1,259.1 -539.7,393.7 l -16.5,13.6 c -214.3,177.3 -244.6,497.8 -67.3,712 l 1073.8,1298 v 0.1 l 318.4,385 c 177.4,214.3 497.8,244.6 712,67.3 l 16.6,-13.6 c 214.3,-177.3 244.6,-497.7 67.3,-712.1"/></g><g transform="scale(1.0286)" id="g28"><path id="path30" style="fill:#efa26f;fill-opacity:1;fill-rule:nonzero;stroke:none" d="m 15287.2,14924 -730.8,-1071.4 c -44.5,-53.8 -96.2,-72.5 -152,-67.1 l 468.4,2514.5 c 1,-14.1 80.6,-1142.3 414.4,-1376"/></g><path id="path32" style="fill:#d38254;fill-opacity:1;fill-rule:nonzero;stroke:none" d="m 12408,6806 c -384.8,-523.4 -772.2,-953.3 -1102.7,-1132.6 -323.6,-175.4 -597.5,-448 -824.1,-750 -260.7,121.5 -557.92,264.1 -848.4,405.3 -353.72,171.9 -367.28,674.1 -20.83,860.3 3.39,1.8 6.71,3.6 9.95,5.5 324.66,185.7 657.28,841.7 657.28,841.7 L 12408,6806"/><path id="path34" style="fill:#ffc197;fill-opacity:1;fill-rule:nonzero;stroke:none" d="m 8831.54,15911.3 -200.43,-809.2 c 0,0 175.21,-71.7 287.73,-16 112.53,55.6 204.34,781.6 -87.3,825.2"/><g transform="scale(1.06983)" id="g36"><path id="path38" style="fill:#2b478b;fill-opacity:1;fill-rule:nonzero;stroke:none" d="M 13642.7,6004.3 H 9614.2 c -396.27,0 -720.48,324.25 -720.48,720.48 v 8854.72 c 0,396.3 324.21,720.5 720.48,720.5 h 4028.5 c 396.2,0 720.4,-324.2 720.4,-720.5 V 6724.78 c 0,-396.23 -324.2,-720.48 -720.4,-720.48"/></g><g transform="scale(1.05309)" id="g40"><path id="path42" style="fill:#c0d8fb;fill-opacity:1;fill-rule:nonzero;stroke:none" d="M 14316.1,15758.1 V 6970.95 c 0,-298.08 -242.1,-541.93 -537.9,-541.93 H 9848.49 c -295.8,0 -537.87,243.85 -537.87,541.93 v 8787.15 c 0,298.1 242.07,541.9 537.87,541.9 h 3929.71 c 295.8,0 537.9,-243.8 537.9,-541.9"/></g><g transform="scale(1.05309)" id="g44"><path id="path46" style="fill:#cbe1fd;fill-opacity:1;fill-rule:nonzero;stroke:none" d="M 13778.2,16300 9897.11,6429.02 h -48.62 c -295.8,0 -537.87,243.85 -537.87,541.93 v 8787.15 c 0,298.1 242.07,541.9 537.87,541.9 h 3929.71"/></g><g transform="scale(1.06587)" id="g48"><path id="path50" style="fill:#2b478b;fill-opacity:1;fill-rule:nonzero;stroke:none" d="m 12483,15781.6 h -1622.7 c -132.2,0 -240.3,108.1 -240.3,240.3 v 37.8 c 0,132.2 108.1,240.3 240.3,240.3 H 12483 c 132.2,0 240.3,-108.1 240.3,-240.3 v -37.8 c 0,-132.2 -108.1,-240.3 -240.3,-240.3"/></g><g transform="scale(1.01316)" id="g52"><path id="path54" style="fill:#ffb27d;fill-opacity:1;fill-rule:nonzero;stroke:none" d="m 15899.9,12074.1 -112.7,-42.8 -758.3,-288.1 c -17.7,-6.8 -35.7,-12.5 -53.7,-17 -251.1,-65.3 -518.1,68.5 -612.3,316.3 l -11.2,29.1 c -100.8,265.5 33.8,565.3 299.3,666.1 l 706.9,268.6 51.3,19.6 112.7,42.8 c 265.5,100.9 565.2,-33.8 666.1,-299.3 l 11.1,-29.1 c 100.9,-265.5 -33.7,-565.3 -299.2,-666.2"/></g><path id="path56" style="fill:#ffd3b6;fill-opacity:1;fill-rule:nonzero;stroke:none" d="m 15485.3,12215.4 c -128.2,-48.6 -360.3,-134.8 -484.4,-152.6 -35.1,-5.1 -99.9,14 -160.2,80.2 -36.3,39.6 -70.9,96 -96.6,174.2 -12.1,36.8 -22.1,73.4 -26.3,111.2 -4.8,44.3 -3.5,88.5 4.2,132.3 7,39.4 34,75.4 73.3,94.3 0.1,0.2 0.4,0.2 0.6,0.3 132,63.1 309.9,139.9 465.8,182.7 107.9,29.8 217,-17.8 251.1,-112.2 l 16.1,-44.1 82.5,-225.8 c 34.1,-93.8 -21.4,-201 -126.1,-240.5"/><path id="path58" style="fill:#ffc197;fill-opacity:1;fill-rule:nonzero;stroke:none" d="m 15485.3,12215.4 c -128.2,-48.6 -360.3,-134.8 -484.4,-152.6 -35.1,-5.1 -99.9,14 -160.2,80.2 -6.5,15 -12.4,30.9 -18,47.8 -12.1,36.8 -22.1,73.5 -26.3,111.3 -4.7,44.2 -3.5,88.4 4.2,132.2 7.1,39.5 34,75.4 73.3,94.4 0.2,0.1 0.5,0.1 0.6,0.2 132,63.1 309.9,139.9 465.9,182.7 69.1,19.1 138.6,6.5 188.5,-29.9 l 82.5,-225.8 c 34.1,-93.8 -21.4,-201 -126.1,-240.5"/><path id="path60" style="fill:#ffb27d;fill-opacity:1;fill-rule:nonzero;stroke:none" d="m 15760.5,11153.1 -592.3,-161.3 c -180,-49 -367.4,58.2 -416.4,238.2 l -18.3,67 c -49,180 58.2,367.4 238.2,416.4 l 592.4,161.3 c 180,49 367.3,-58.2 416.3,-238.2 l 18.3,-67.1 c 49,-180 -58.2,-367.3 -238.2,-416.3"/><path id="path62" style="fill:#ffd3b6;fill-opacity:1;fill-rule:nonzero;stroke:none" d="m 15440.2,11182.1 c -108.8,-29 -305.5,-80.3 -408.6,-85.9 -37.5,-2.1 -112.6,29.6 -161.6,128.2 -12.1,23.9 -22.3,51.5 -30.3,83.5 -7.2,29.1 -12.7,57.9 -13.2,87.1 -0.7,34.4 3.6,68.2 13.2,101.4 8.5,29.9 33.4,55.7 67,67.7 0.2,0.1 0.4,0.1 0.5,0.2 112.9,39.9 264.5,87.5 395.7,110.4 90.6,15.9 176.5,-27.7 197.7,-102.4 l 15.3,-53.3 45.6,-160.2 c 21.1,-74.2 -32.4,-153.1 -121.3,-176.7"/><path id="path64" style="fill:#ffc197;fill-opacity:1;fill-rule:nonzero;stroke:none" d="m 15440.2,11182.1 c -108.8,-29 -305.5,-80.3 -408.6,-85.9 -37.5,-2.1 -112.6,29.6 -161.6,128.2 -6.6,27.1 -11.4,54.2 -11.9,81.7 -0.7,34.3 3.6,68.3 13.2,101.4 8.5,29.8 33.4,55.7 66.9,67.7 0.3,0.1 0.5,0.1 0.6,0.3 112.9,39.8 264.5,87.4 395.7,110.2 75,13.2 146.8,-14.5 181.4,-66.7 l 45.6,-160.2 c 21.1,-74.2 -32.4,-153.1 -121.3,-176.7"/><path id="path66" style="fill:#ed7d2b;fill-opacity:1;fill-rule:nonzero;stroke:none" d="m 6056.55,4339.5 c 0,0 1219.28,-1167.8 2041.23,-1618.7 l 622.33,441.4 v -651.1 c 0,0 1223.91,-216.5 1609.99,0 V 4286.8 L 6892.44,6010.1 6056.55,4339.5"/><path id="path68" style="fill:#f3f8ff;fill-opacity:1;fill-rule:nonzero;stroke:none" d="m 7149.69,7036.2 c 0,0 -774.29,-1158.4 -1543.84,-2396.9 0,0 1621.77,-1115.6 2501.03,-1442.9 l 1153.29,1320.9 -164.63,-1590 c 0,0 1020.66,-372 1494.16,-274.9 0,0 -29.9,1442.4 -29.6,2387.5 0,0 -2805.72,786.4 -3410.41,1996.3"/><path id="path70" style="fill:#f99746;fill-opacity:1;fill-rule:nonzero;stroke:none" d="m 7340.14,4096.6 c 0.98,106 87.72,191.2 193.74,190.2 106.02,-1 191.16,-87.7 190.18,-193.8 -0.98,-106 -87.72,-191.1 -193.73,-190.1 -106.02,0.9 -191.17,87.7 -190.19,193.7"/><g transform="scale(1.01717)" id="g72"><path id="path74" style="fill:#ffb27d;fill-opacity:1;fill-rule:nonzero;stroke:none" d="m 15818.8,13142.6 c -4.2,-1.5 -8.3,-2.9 -12.6,-4.3 l -763.5,-196 c -335.7,-86.2 -682.9,95.4 -771.5,403.7 l -45.4,157.9 c -85.2,295.9 97.8,605.4 409.8,705.8 l 252.1,64.7 511.5,131.3 c 335.6,86.3 682.8,-95.4 771.4,-403.6 l 45.4,-158 c 84,-291.9 -93,-596.8 -397.2,-701.5"/></g><path id="path76" style="fill:#ffd3b6;fill-opacity:1;fill-rule:nonzero;stroke:none" d="m 15734.5,13585.1 -377.3,-170 c -0.5,-0.2 -1.2,-0.3 -2.4,-0.6 -15.1,-4.1 -30.4,-7.1 -45.6,-9.4 -6.3,-1 -12.8,-1.7 -19.1,-2.4 -2.7,-0.3 -5.3,-0.3 -8,-0.1 -41.6,1.4 -70,45.5 -52.1,84.8 35.7,77.6 45.4,167.5 21.4,255.8 l -9,32.9 c 0,0.3 -0.2,0.7 -0.3,1 l -29.2,107.1 c -23.2,85.4 -72.5,156.8 -136.8,208.5 -7.7,6.3 -15.7,12.2 -23.8,17.8 -74.6,51.7 -55.6,168.7 31.7,192.9 0.8,0.3 1.5,0.5 2.4,0.8 l 414,62.6 c 102.4,27.8 201,-51 228.9,-153.4 l 33.3,-122 70.8,-260.1 c 27.8,-102.5 3.5,-218.4 -98.9,-246.2"/><path id="path78" style="fill:#ffc197;fill-opacity:1;fill-rule:nonzero;stroke:none" d="m 15734.5,13585.1 -377.3,-170 c -0.5,-0.2 -1.2,-0.3 -2.4,-0.6 -8.8,-1.7 -36.5,-6.3 -72.7,-11.9 -41.6,1.4 -70,45.5 -52.1,84.8 35.7,77.6 45.4,167.5 21.4,255.8 l -9,32.9 c 0,0.3 -0.2,0.7 -0.3,1 l -29.2,107.1 c -23.2,85.4 -72.5,156.8 -136.8,208.5 13.4,19.5 33.3,35 59.4,42.3 0.7,0.2 1.6,0.4 2.4,0.7 l 414.1,62.6 c 86.2,23.4 169.6,-28.8 210.6,-106.9 l 70.8,-260.1 c 27.8,-102.5 3.5,-218.4 -98.9,-246.2"/><path id="path80" style="fill:#d38254;fill-opacity:1;fill-rule:nonzero;stroke:none" d="m 9514.79,9328.8 c 0,0 -169.42,1478.9 -325.74,1767.3 -156.31,288.5 -288.58,866 -48.09,1295.1 240.48,429.3 323.57,1255 323.57,1255 93.3,-942.6 -187.22,-1642.3 9.49,-1827.6 7.34,-6.8 20.93,-3.6 40.17,8.7 l 0.6,-2498.5"/><g transform="scale(1.12856)" id="g84"><path id="path86" style="fill:#dfebfd;fill-opacity:1;fill-rule:nonzero;stroke:none" d="m 16059.7,4647.59 c -240.2,887.23 -1737.4,609.97 -1737.4,609.97 0,0 -1016.6,-1552.68 -1312.4,-1589.63 -295.7,-36.94 610,1497.22 610,1497.22 -573.1,55.38 -2033.2,-646.93 -2033.2,-646.93 0,0 92.4,-1811.42 -203.4,-1774.47 -295.7,36.95 0,1608.06 0,1608.06 -554.5,-166.31 -1072.1,-813.24 -1072.1,-813.24 -646.89,-1053.55 739.4,-1829.94 739.4,-1829.94 0,0 18.5,-628.41 -369.6,-1349.324 h -0.1 c 0,0 -87.5,-133.089 -176.6,-359.306 h 151.2 c 12.3,40.5832 25.9,79.7473 41,117.319 0,0.353 0.1,0.53 0.3,0.706 0.2,0.533 0.4,1.063 0.7,1.596 10.3,23.395 25.1,56.623 43.8,97.116 0,0.086 0,0.086 0,0.176 0,0.09 0.1,0.09 0.1,0.177 46.2,90.38 77.4,157.193 97.1,205.394 0.1,0.177 0.1,0.353 0.1,0.443 138.4,283.813 337.8,653.663 470.8,731.193 0,0 -16.7,23.57 -32.3,69.38 10.2,-22.15 21.1,-45.19 32.3,-69.38 258.7,-554.506 1552.6,-646.925 2273.5,-499.039 720.8,147.885 406.6,351.159 18.4,681.219 -388.1,329.98 -1201.4,242.96 -1441.6,372.33 -240.3,129.37 110.8,258.83 591.5,221.87 480.5,-37.03 720.8,-517.55 1497.2,-591.54 776.3,-73.9 1367.7,1386.27 1367.7,1386.27 -536,-166.31 -1497.2,129.46 -1534.1,314.3 -37,184.83 1386.2,166.31 1608,221.78 221.9,55.47 610,499.04 369.7,1386.28"/></g></g></g></svg>